SplineFontDB: 3.0
FontName: Courgette-Regular
FullName: Courgette Regular
FamilyName: Courgette
Weight: Book
Copyright: Copyright (c) 2012, Sorkin Type Co (www.sorkintype.com) with Reserved Font Name "Courgette".
Version: 1.002
ItalicAngle: 0
UnderlinePosition: -103
UnderlineWidth: 102
Ascent: 1638
Descent: 410
LayerCount: 2
Layer: 0 1 "Back"  1
Layer: 1 1 "Fore"  0
XUID: [1021 631 1661839179 7448149]
FSType: 0
OS2Version: 3
OS2_WeightWidthSlopeOnly: 0
OS2_UseTypoMetrics: 1
CreationTime: 1338897660
ModificationTime: 1338941208
PfmFamily: 17
TTFWeight: 400
TTFWidth: 5
LineGap: 0
VLineGap: 0
Panose: 2 0 6 3 7 4 0 6 0 4
OS2TypoAscent: 362
OS2TypoAOffset: 1
OS2TypoDescent: -150
OS2TypoDOffset: 1
OS2TypoLinegap: 0
OS2WinAscent: 1
OS2WinAOffset: 1
OS2WinDescent: 0
OS2WinDOffset: 1
HheadAscent: 1
HheadAOffset: 1
HheadDescent: 0
HheadDOffset: 1
OS2SubXSize: 1434
OS2SubYSize: 1331
OS2SubXOff: 0
OS2SubYOff: 287
OS2SupXSize: 1434
OS2SupYSize: 1331
OS2SupXOff: 0
OS2SupYOff: 977
OS2StrikeYSize: 102
OS2StrikeYPos: 512
OS2Vendor: 'STC '
OS2CodePages: 20000093.00000000
OS2UnicodeRanges: a00000af.5000204a.00000000.00000000
DEI: 91125
ShortTable: maxp 16
  1
  0
  419
  210
  7
  202
  4
  1
  0
  0
  0
  0
  0
  0
  2
  1
EndShort
LangName: 1033 "" "" "" "SorkinTypeCo.: Courgette Regular: 2012" "" "Version 1.002" "" "Courgette is a trademark of Sorkin Type Co." "Sorkin Type Co." "Karolina Lach" "Courgette is a medium low contrast brushy italic script type. A brushy italic style is traditionally for display and unsurprisingly Courgette works well in display. However Courgette's low contrast and carefully made forms mean that it also works well in smaller sizes and even in massed text." "www.sorkintype.com" "www.thekarolina.com" "This Font Software is licensed under the SIL Open Font License, Version 1.1. This license is available with a FAQ at: http://scripts.sil.org/OFL" "http://scripts.sil.org/OFL" "" "" "" "Courgette Regular" 
GaspTable: 3 6 14 42 14 65535 14
Encoding: UnicodeBmp

StartChar: .notdef
Encoding: 65536 -1 0
Width: 1837
Flags: HW
LayerCount: 2
Fore
SplineSet
152 18 m 128,-1,1
 112 54 112 54 112 101 c 128,-1,2
 112 148 112 148 125.5 184.5 c 128,-1,3
 139 221 139 221 160 291 c 2,4,-1
 470.5 1360.5 l 1,5,-1
 529 1546.5 l 1,6,7
 570.748 1674.06 570.748 1674.06 590.374 1708.03 c 128,-1,8
 610 1742 610 1742 629 1760.5 c 0,9,10
 672.649 1803 672.649 1803 738 1803 c 2,11,-1
 1896 1803 l 2,12,13
 1984.26 1803 1984.26 1803 2006.5 1738 c 0,14,15
 2013 1719 2013 1719 2013 1693 c 128,-1,16
 2013 1667 2013 1667 2002 1635.5 c 128,-1,17
 1991 1604 1991 1604 1970 1532 c 2,18,-1
 1650.5 430.5 l 1,19,-1
 1590 240 l 1,20,21
 1543.98 101.929 1543.98 101.929 1524.99 72.4643 c 128,-1,22
 1506 43 1506 43 1485 24.5 c 0,23,24
 1436.76 -18 1436.76 -18 1371 -18 c 2,25,-1
 263 -18 l 2,26,0
 192 -18 192 -18 152 18 c 128,-1,1
571.5 355.5 m 128,-1,28
 587 349 587 349 610.5 349 c 128,-1,29
 634 349 634 349 677 380.5 c 128,-1,30
 720 412 720 412 765 458.5 c 0,31,32
 844.972 541.138 844.972 541.138 920 651 c 1,33,34
 981 496 981 496 1046 422 c 128,-1,35
 1111 348 1111 348 1191 348 c 0,36,37
 1292.66 348 1292.66 348 1364.5 426 c 0,38,39
 1412 477.571 1412 477.571 1412 518.786 c 128,-1,40
 1412 560 1412 560 1391 560 c 0,41,42
 1381 560 1381 560 1370.5 554.5 c 2,43,-1
 1345.5 542 l 2,44,45
 1308.21 524 1308.21 524 1270.61 524 c 128,-1,46
 1233 524 1233 524 1205.5 553.5 c 128,-1,47
 1178 583 1178 583 1156 630.5 c 128,-1,48
 1134 678 1134 678 1116 737.5 c 2,49,-1
 1081 857 l 1,50,51
 1188.11 1000.75 1188.11 1000.75 1376.5 1162.5 c 0,52,53
 1489.84 1259.81 1489.84 1259.81 1573 1296.5 c 2,54,-1
 1598.5 1307.5 l 2,55,56
 1607 1311 1607 1311 1613.5 1321.5 c 128,-1,57
 1620 1332 1620 1332 1611 1346.5 c 128,-1,58
 1602 1361 1602 1361 1582.5 1371 c 0,59,60
 1539.6 1393 1539.6 1393 1495.8 1393 c 128,-1,61
 1452 1393 1452 1393 1417 1379.5 c 128,-1,62
 1382 1366 1382 1366 1336 1334.5 c 128,-1,63
 1290 1303 1290 1303 1248 1264.5 c 0,64,65
 1141.9 1167.24 1141.9 1167.24 1070.5 1053 c 1,66,-1
 1037 998 l 1,67,68
 1007.76 1173.44 1007.76 1173.44 1011.88 1242.72 c 128,-1,69
 1016 1312 1016 1312 1016 1338.5 c 128,-1,70
 1016 1365 1016 1365 1010 1379 c 128,-1,71
 1004 1393 1004 1393 978.5 1393 c 128,-1,72
 953 1393 953 1393 919 1379.5 c 128,-1,73
 885 1366 885 1366 856.5 1341 c 0,74,75
 790.735 1283.31 790.735 1283.31 787 1203 c 0,76,77
 780.249 1040.99 780.249 1040.99 867 797 c 1,78,79
 760.143 639.143 760.143 639.143 596.5 504.5 c 1,80,-1
 530 451 l 2,81,82
 513 438 513 438 513 423 c 128,-1,83
 513 408 513 408 521.5 395.5 c 128,-1,84
 530 383 530 383 543 372.5 c 128,-1,27
 556 362 556 362 571.5 355.5 c 128,-1,28
EndSplineSet
EndChar

StartChar: a
Encoding: 97 97 5
Width: 1109
Flags: HW
LayerCount: 2
Fore
SplineSet
838 266 m 0,0,1
 838 174 838 174 903 174 c 0,2,3
 947.889 174 947.889 174 977.444 188 c 128,-1,4
 1007 202 1007 202 1017 202 c 0,5,6
 1038 202 1038 202 1038 180.5 c 0,7,8
 1038 93.6078 1038 93.6078 947.5 31.5 c 0,9,10
 853.313 -33.1382 853.313 -33.1382 754 0.5 c 0,11,12
 688.881 22.5563 688.881 22.5563 658.5 99 c 0,13,14
 643 138 643 138 643 170.5 c 0,15,16
 643 222 643 222 653 280 c 1,17,18
 560.155 90.0893 560.155 90.0893 422 18.5 c 0,19,20
 367 -10 367 -10 305 -10 c 128,-1,21
 243 -10 243 -10 197.5 15.5 c 128,-1,22
 152 41 152 41 120.5 86 c 0,23,24
 54.9019 179.712 54.9019 179.712 61 322 c 1,25,26
 66.7918 499.617 66.7918 499.617 165.5 671 c 0,27,28
 257.487 830.714 257.487 830.714 396 932.5 c 0,29,30
 535.485 1035 535.485 1035 656.242 1035 c 128,-1,31
 777 1035 777 1035 851 924 c 1,32,33
 919.714 1035 919.714 1035 973 1035 c 0,34,35
 1030.44 1035 1030.44 1035 1059.22 1014 c 0,36,37
 1113.64 974.287 1113.64 974.287 1098.32 943.644 c 0,38,39
 847.206 430.103 847.206 430.103 840 304 c 0,40,41
 838 286 838 286 838 266 c 0,0,1
283 262 m 0,42,43
 283 142 283 142 360 142 c 0,44,45
 418.548 142 418.548 142 505 242.5 c 0,46,47
 631.229 389.241 631.229 389.241 728.5 638 c 0,48,49
 759 716 759 716 780 794 c 1,50,51
 775.765 861.755 775.765 861.755 723 894 c 0,52,53
 705 905 705 905 669.5 905 c 128,-1,54
 634 905 634 905 586.5 879 c 128,-1,55
 539 853 539 853 494.5 808 c 128,-1,56
 450 763 450 763 411.5 701.5 c 128,-1,57
 373 640 373 640 344.5 568.5 c 0,58,59
 283 414.211 283 414.211 283 262 c 0,42,43
EndSplineSet
EndChar

StartChar: b
Encoding: 98 98 6
Width: 1077
Flags: HW
LayerCount: 2
Fore
SplineSet
81 284.5 m 0,0,1
 81 342 81 342 89.5 395 c 128,-1,2
 98 448 98 448 111.5 502 c 128,-1,3
 125 556 125 556 142 609.5 c 2,4,-1
 254.5 952.5 l 1,5,6
 387.156 1367.7 387.156 1367.7 421 1602 c 0,7,8
 432.2 1686 432.2 1686 503 1686 c 0,9,10
 545 1686 545 1686 573.5 1663.5 c 0,11,12
 626.879 1621.36 626.879 1621.36 625.439 1572.68 c 128,-1,13
 624 1524 624 1524 611.5 1464.5 c 128,-1,14
 599 1405 599 1405 579.5 1335 c 128,-1,15
 560 1265 560 1265 535 1188 c 1,16,17
 468.004 990.233 468.004 990.233 435.002 901.616 c 2,18,-1
 378 753 l 1,19,20
 464.783 888.279 464.783 888.279 520.391 937.64 c 0,21,22
 630.076 1035 630.076 1035 749 1035 c 0,23,24
 924.248 1035 924.248 1035 981.5 851.5 c 0,25,26
 1001 789 1001 789 1001 695 c 128,-1,27
 1001 601 1001 601 973.5 508.5 c 128,-1,28
 946 416 946 416 899 336.5 c 128,-1,29
 852 257 852 257 789.5 193 c 128,-1,30
 727 129 727 129 657.5 84 c 0,31,32
 512.322 -10 512.322 -10 375 -10 c 0,33,34
 236.741 -10 236.741 -10 158.5 74.5 c 0,35,36
 81 158.2 81 158.2 81 284.5 c 0,0,1
361 120 m 0,37,38
 455.316 120 455.316 120 551.5 203.5 c 0,39,40
 699.578 332.051 699.578 332.051 751 569.5 c 0,41,42
 768 648 768 648 768 732.5 c 128,-1,43
 768 817 768 817 749 851 c 128,-1,44
 730 885 730 885 690.5 885 c 128,-1,45
 651 885 651 885 608 853 c 128,-1,46
 565 821 565 821 518 768.5 c 128,-1,47
 471 716 471 716 425 647.5 c 128,-1,48
 379 579 379 579 342.5 506.5 c 0,49,50
 261 344.616 261 344.616 261 232.308 c 128,-1,51
 261 120 261 120 361 120 c 0,37,38
EndSplineSet
EndChar

StartChar: c
Encoding: 99 99 7
Width: 953
Flags: HW
LayerCount: 2
Fore
SplineSet
64 345 m 0,0,1
 66 432 66 432 91.5 518.5 c 128,-1,2
 117 605 117 605 159.5 682 c 128,-1,3
 202 759 202 759 260.5 824 c 128,-1,4
 319 889 319 889 387.5 936 c 0,5,6
 531.787 1035 531.787 1035 691 1035 c 0,7,8
 855.468 1035 855.468 1035 914 904 c 0,9,10
 935 857 935 857 933.5 797.5 c 128,-1,11
 932 738 932 738 914 688.5 c 128,-1,12
 896 639 896 639 869 600 c 0,13,14
 808.077 512 808.077 512 746 512 c 0,15,16
 677.333 512 677.333 512 643.5 550.5 c 0,17,18
 614.541 583.454 614.541 583.454 626 627 c 0,19,20
 629 640 629 640 644 650.5 c 128,-1,21
 659 661 659 661 681.5 684.5 c 0,22,23
 746.516 752.405 746.516 752.405 750 843 c 0,24,25
 751.771 905 751.771 905 674 905 c 0,26,27
 589.814 905 589.814 905 498 811 c 0,28,29
 364.098 673.91 364.098 673.91 309 460 c 0,30,31
 261.061 273.883 261.061 273.883 327 188.5 c 0,32,33
 366 138 366 138 433 138 c 0,34,35
 545.857 138 545.857 138 651 218.5 c 0,36,37
 683 243 683 243 703 269 c 128,-1,38
 723 295 723 295 740 295 c 128,-1,39
 757 295 757 295 768.5 278.5 c 128,-1,40
 780 262 780 262 780 236.5 c 0,41,42
 780 176.655 780 176.655 727 120 c 1,43,44
 591.091 -10 591.091 -10 400 -10 c 0,45,46
 236.867 -10 236.867 -10 148 83 c 0,47,48
 60.0919 174.997 60.0919 174.997 64 345 c 0,0,1
EndSplineSet
EndChar

StartChar: d
Encoding: 100 100 8
Width: 1141
Flags: HW
LayerCount: 2
Fore
SplineSet
1071 202 m 0,0,1
 1092 202 1092 202 1092 180 c 0,2,3
 1092 93.8 1092 93.8 1003 31.5 c 0,4,5
 943.714 -9.99999 943.714 -9.99999 891.357 -10 c 128,-1,6
 839 -10 839 -10 808 2 c 128,-1,7
 777 14 777 14 752 40.5 c 0,8,9
 696 99.86 696 99.86 696 205 c 0,10,11
 696 226 696 226 704 272 c 1,12,13
 622.725 147.379 622.725 147.379 565.363 95.6895 c 0,14,15
 448.073 -10 448.073 -10 336 -10 c 0,16,17
 158.872 -10 158.872 -10 104 150.5 c 0,18,19
 84 209 84 209 84 298 c 128,-1,20
 84 387 84 387 111 478 c 128,-1,21
 138 569 138 569 184.5 651 c 128,-1,22
 231 733 231 733 292.5 803.5 c 128,-1,23
 354 874 354 874 422.5 925.5 c 0,24,25
 568.146 1035 568.146 1035 686.204 1035 c 128,-1,26
 804.263 1035 804.263 1035 875 939 c 1,27,28
 1048.59 1534.64 1048.59 1534.64 1137 1642 c 0,29,30
 1174.4 1686 1174.4 1686 1215 1686 c 0,31,32
 1283 1686 1283 1686 1317.5 1647 c 0,33,34
 1329 1634 1329 1634 1329 1621 c 128,-1,35
 1329 1608 1329 1608 1313 1573 c 128,-1,36
 1297 1538 1297 1538 1266.5 1460 c 0,37,38
 1177.39 1224.95 1177.39 1224.95 1140.7 1115.97 c 0,39,40
 1048.71 837.481 1048.71 837.481 1016.86 732.241 c 2,41,-1
 962 547 l 1,42,43
 891 300.043 891 300.043 891 233.022 c 128,-1,44
 891 166 891 166 940 166 c 0,45,46
 985.429 166 985.429 166 1012.21 178.5 c 2,47,-1
 1050 196.5 l 2,48,49
 1061 202 1061 202 1071 202 c 0,0,1
384 140 m 0,50,51
 487.049 140 487.049 140 620.5 341 c 0,52,53
 758.576 548.966 758.576 548.966 814 794 c 1,54,55
 809.765 861.755 809.765 861.755 757 894 c 0,56,57
 739 905 739 905 702.5 905 c 128,-1,58
 666 905 666 905 617.5 878.5 c 128,-1,59
 569 852 569 852 523.5 807 c 128,-1,60
 478 762 478 762 438.5 701.5 c 128,-1,61
 399 641 399 641 370 573 c 0,62,63
 307 425.276 307 425.276 307 282.638 c 128,-1,64
 307 140 307 140 384 140 c 0,50,51
EndSplineSet
EndChar

StartChar: e
Encoding: 101 101 9
Width: 966
Flags: HW
LayerCount: 2
Fore
SplineSet
76.5 350 m 0,0,1
 80 437 80 437 105 516.5 c 128,-1,2
 130 596 130 596 172 670.5 c 128,-1,3
 214 745 214 745 270.5 811.5 c 128,-1,4
 327 878 327 878 393 927.5 c 0,5,6
 536.333 1035 536.333 1035 682 1035 c 0,7,8
 853.219 1035 853.219 1035 910.5 894 c 0,9,10
 930 846 930 846 929 780.5 c 128,-1,11
 928 715 928 715 904 659.5 c 128,-1,12
 880 604 880 604 837.5 558.5 c 128,-1,13
 795 513 795 513 736.5 477 c 128,-1,14
 678 441 678 441 609 416.5 c 0,15,16
 466.84 366.023 466.84 366.023 305 364 c 1,17,18
 301 350 301 350 300 322 c 128,-1,19
 299 294 299 294 306 259.5 c 128,-1,20
 313 225 313 225 329.5 198 c 0,21,22
 366.167 138 366.167 138 434 138 c 0,23,24
 549.915 138 549.915 138 660.5 205.5 c 0,25,26
 699 229 699 229 723.5 253.5 c 128,-1,27
 748 278 748 278 766 278 c 128,-1,28
 784 278 784 278 797.5 256.5 c 128,-1,29
 811 235 811 235 811 208.5 c 0,30,31
 811 155.375 811 155.375 781 116 c 1,32,33
 655 -10 655 -10 406 -10 c 0,34,35
 259.478 -10 259.478 -10 170.5 78 c 0,36,37
 69.5731 177.818 69.5731 177.818 76.5 350 c 0,0,1
660 902 m 0,38,39
 555.213 902 555.213 902 458.5 757.5 c 0,40,41
 375.885 634.064 375.885 634.064 326 464 c 1,42,43
 493.25 481.105 493.25 481.105 615.5 596.5 c 0,44,45
 729 703.635 729 703.635 729 802.818 c 128,-1,46
 729 902 729 902 660 902 c 0,38,39
EndSplineSet
EndChar

StartChar: f
Encoding: 102 102 10
Width: 806
Flags: HW
LayerCount: 2
Fore
SplineSet
-41 -220 m 0,0,1
 -41 -199 -41 -199 -9.5 -136.5 c 128,-1,2
 22 -74 22 -74 59.5 23 c 128,-1,3
 97 120 97 120 131 225 c 128,-1,4
 165 330 165 330 199.5 449.5 c 2,5,-1
 278 714 l 1,6,-1
 174 686 l 1,7,8
 134.727 686 134.727 686 110.5 727 c 0,9,10
 104 738 104 738 104 753 c 128,-1,11
 104 768 104 768 128 788.5 c 128,-1,12
 152 809 152 809 187 827 c 0,13,14
 256.622 862.806 256.622 862.806 331 882 c 1,15,-1
 340 910 l 2,16,17
 367 994 367 994 391.5 1084.5 c 128,-1,18
 416 1175 416 1175 443.5 1261 c 128,-1,19
 471 1347 471 1347 506 1424.5 c 128,-1,20
 541 1502 541 1502 588.5 1560 c 0,21,22
 691.69 1686 691.69 1686 849 1686 c 0,23,24
 964.8 1686 964.8 1686 1033 1624 c 128,-1,25
 1101 1562.18 1101 1562.18 1101 1456 c 0,26,27
 1101 1346.06 1101 1346.06 1037.5 1265 c 0,28,29
 985.017 1198 985.017 1198 920 1198 c 0,30,31
 838.711 1198 838.711 1198 809.5 1272 c 0,32,33
 802 1291 802 1291 802 1304.5 c 0,34,35
 802 1325.67 802 1325.67 832 1344 c 1,36,37
 886.664 1385.8 886.664 1385.8 909 1456 c 0,38,39
 916 1478 916 1478 916 1499 c 0,40,41
 916 1581 916 1581 852 1581 c 0,42,43
 763.902 1581 763.902 1581 690.5 1382 c 0,44,45
 668 1321 668 1321 645.5 1248.5 c 1,46,-1
 552 929 l 1,47,48
 643 943 643 943 684.5 943 c 128,-1,49
 726 943 726 943 758 933.5 c 128,-1,50
 790 924 790 924 816 907 c 0,51,52
 875 868.423 875 868.423 875 811.212 c 128,-1,53
 875 754 875 754 819 754 c 257,54,-1
 692 759 l 1,55,56
 588.2 759 588.2 759 500 750 c 1,57,-1
 418.5 459.5 l 1,58,59
 337.482 165.392 337.482 165.392 286.741 31.1961 c 128,-1,60
 236 -103 236 -103 188 -196 c 0,61,62
 143.263 -281 143.263 -281 51.1316 -281 c 128,-1,63
 -41 -281 -41 -281 -41 -220 c 0,0,1
EndSplineSet
EndChar

StartChar: g
Encoding: 103 103 11
Width: 1079
Flags: HW
LayerCount: 2
Fore
SplineSet
658 218 m 1,0,1
 506 -10 506 -10 321 -10 c 0,2,3
 153.724 -10 153.724 -10 96 167.5 c 0,4,5
 76 229 76 229 76 318 c 128,-1,6
 76 407 76 407 101.5 496.5 c 128,-1,7
 127 586 127 586 171 666 c 128,-1,8
 215 746 215 746 274.5 813.5 c 128,-1,9
 334 881 334 881 401.5 930.5 c 0,10,11
 544 1035 544 1035 683.979 1035 c 128,-1,12
 823.958 1035 823.958 1035 884 904 c 1,13,14
 896 917 896 917 906 930.5 c 128,-1,15
 916 944 916 944 927.5 955.5 c 0,16,17
 954 982 954 982 973.5 982 c 128,-1,18
 993 982 993 982 1014.5 975 c 128,-1,19
 1036 968 1036 968 1055.5 956.5 c 0,20,21
 1104.85 927.395 1104.85 927.395 1093 902 c 0,22,23
 1038 783 1038 783 1001 668 c 2,24,-1
 853 196 l 1,25,26
 678.344 -341.066 678.344 -341.066 409 -498.5 c 0,27,28
 338 -540 338 -540 286 -546.5 c 128,-1,29
 234 -553 234 -553 211 -547 c 128,-1,30
 188 -541 188 -541 170 -529.5 c 0,31,32
 131 -504.583 131 -504.583 131 -484.792 c 0,33,34
 131 -450.455 131 -450.455 177.5 -442.227 c 128,-1,35
 224 -434 224 -434 275 -404.5 c 128,-1,36
 326 -375 326 -375 371.5 -333 c 0,37,38
 561.386 -157.72 561.386 -157.72 658 218 c 1,0,1
317 417.5 m 128,-1,40
 302 342 302 342 302 294 c 128,-1,41
 302 246 302 246 305 221 c 128,-1,42
 308 196 308 196 317 177 c 0,43,44
 336.895 135 336.895 135 375.947 135 c 128,-1,45
 415 135 415 135 453 162.5 c 128,-1,46
 491 190 491 190 533 238 c 128,-1,47
 575 286 575 286 617 351 c 128,-1,48
 659 416 659 416 697 491 c 0,49,50
 780.96 656.71 780.96 656.71 815 808 c 1,51,52
 810.28 836.323 810.28 836.323 780.64 865.161 c 0,53,54
 724.278 920 724.278 920 678.139 920 c 128,-1,55
 632 920 632 920 586 891.5 c 128,-1,56
 540 863 540 863 498.5 814.5 c 128,-1,57
 457 766 457 766 421 701.5 c 128,-1,58
 385 637 385 637 358.5 565 c 128,-1,39
 332 493 332 493 317 417.5 c 128,-1,40
EndSplineSet
EndChar

StartChar: h
Encoding: 104 104 12
Width: 1137
Flags: HW
LayerCount: 2
Fore
SplineSet
794 846 m 0,0,1
 738.598 846 738.598 846 597 678.5 c 1,2,-1
 514.5 576.5 l 1,3,-1
 354 367 l 1,4,5
 296 257 296 257 263 184.5 c 2,6,-1
 209 68.5 l 2,7,8
 188 25 188 25 172.5 7.5 c 128,-1,9
 157 -10 157 -10 130.5 -10 c 128,-1,10
 104 -10 104 -10 79.5 -0.5 c 128,-1,11
 55 9 55 9 37 24 c 0,12,13
 -1 55.6667 -1 55.6667 -1 94 c 0,14,15
 -1 108.815 -1 108.815 20.5 153.407 c 2,16,-1
 59.5 234 l 2,17,18
 246.568 618.825 246.568 618.825 399 1209.5 c 0,19,20
 455.493 1428.41 455.493 1428.41 480 1602 c 0,21,22
 491.2 1686 491.2 1686 562 1686 c 0,23,24
 607.5 1686 607.5 1686 638.25 1663.5 c 0,25,26
 695.878 1621.33 695.878 1621.33 693.939 1572.17 c 128,-1,27
 692 1523 692 1523 680 1462 c 128,-1,28
 668 1401 668 1401 649 1329.5 c 128,-1,29
 630 1258 630 1258 605.5 1179 c 1,30,31
 540.341 978.412 540.341 978.412 508.17 888.706 c 0,32,33
 410.159 620.319 410.159 620.319 387 574 c 1,34,35
 402 592 402 592 425.5 623 c 0,36,37
 608.248 862.102 608.248 862.102 651.124 908.551 c 128,-1,38
 694 955 694 955 723.5 980.5 c 0,39,40
 786.549 1035 786.549 1035 884 1035 c 0,41,42
 962.959 1035 962.959 1035 1011 981.5 c 0,43,44
 1056 931.386 1056 931.386 1056 870.693 c 128,-1,45
 1056 810 1056 810 1042.5 761.5 c 128,-1,46
 1029 713 1029 713 1008 663 c 128,-1,47
 987 613 987 613 961.5 560.5 c 1,48,-1
 912.5 455 l 1,49,50
 842 296 842 296 842 219 c 0,51,52
 842 165 842 165 886 165 c 0,53,54
 928.273 165 928.273 165 962.636 183 c 128,-1,55
 997 201 997 201 1007 201 c 0,56,57
 1028 201 1028 201 1028 179.5 c 0,58,59
 1028 91.3333 1028 91.3333 937.5 31 c 0,60,61
 876 -10 876 -10 825 -10 c 128,-1,62
 774 -10 774 -10 740.5 0.5 c 128,-1,63
 707 11 707 11 681 35 c 0,64,65
 622 89.4615 622 89.4615 622 194 c 0,66,67
 622 307.195 622 307.195 695.5 477.5 c 1,68,-1
 804 708 l 2,69,70
 835 772.214 835 772.214 835 809.107 c 128,-1,71
 835 846 835 846 794 846 c 0,0,1
EndSplineSet
EndChar

StartChar: i
Encoding: 105 105 13
Width: 586
Flags: HW
LayerCount: 2
Fore
SplineSet
562 1231.5 m 128,-1,1
 534 1217 534 1217 503 1213.5 c 128,-1,2
 472 1210 472 1210 444.5 1223 c 128,-1,3
 417 1236 417 1236 397 1259.5 c 0,4,5
 354 1310.03 354 1310.03 354 1361.01 c 128,-1,6
 354 1412 354 1412 370.5 1437.5 c 128,-1,7
 387 1463 387 1463 412 1479 c 0,8,9
 460.438 1510 460.438 1510 502.719 1510 c 128,-1,10
 545 1510 545 1510 568.5 1504 c 128,-1,11
 592 1498 592 1498 612.5 1484 c 0,12,13
 661 1450.88 661 1450.88 661 1403.44 c 128,-1,14
 661 1356 661 1356 647.5 1324.5 c 128,-1,15
 634 1293 634 1293 612 1269.5 c 128,-1,0
 590 1246 590 1246 562 1231.5 c 128,-1,1
407 187 m 0,16,17
 433 187 433 187 433 153 c 0,18,19
 433 108.333 433 108.333 392 60.5 c 0,20,21
 331.571 -9.99998 331.571 -9.99998 231 -10 c 0,22,23
 114.761 -10 114.761 -10 71.5 83.5 c 0,24,25
 56 117 56 117 56 164 c 128,-1,26
 56 211 56 211 72.5 268.5 c 128,-1,27
 89 326 89 326 113.5 389.5 c 128,-1,28
 138 453 138 453 167 518.5 c 2,29,-1
 220.5 644 l 1,30,31
 278 784.816 278 784.816 278 829.908 c 128,-1,32
 278 875 278 875 268.5 889.5 c 128,-1,33
 259 904 259 904 248 912 c 2,34,-1
 227.5 926.5 l 2,35,36
 218 933 218 933 218 950.5 c 128,-1,37
 218 968 218 968 231.5 984 c 128,-1,38
 245 1000 245 1000 267 1011.5 c 0,39,40
 311.957 1035 311.957 1035 372 1035 c 0,41,42
 519 1035 519 1035 519 958 c 0,43,44
 519 867.877 519 867.877 472 752.439 c 128,-1,45
 425 637 425 637 392.5 565.5 c 2,46,-1
 331.5 428 l 1,47,48
 266 276.316 266 276.316 266 209 c 0,49,50
 266 165 266 165 310 165 c 0,51,52
 353 165 353 165 375 176 c 128,-1,53
 397 187 397 187 407 187 c 0,16,17
EndSplineSet
EndChar

StartChar: j
Encoding: 106 106 14
Width: 576
Flags: HW
LayerCount: 2
Fore
SplineSet
507 1231.5 m 128,-1,1
 479 1217 479 1217 448 1213.5 c 128,-1,2
 417 1210 417 1210 389.5 1223 c 128,-1,3
 362 1236 362 1236 342 1259.5 c 0,4,5
 299 1310.03 299 1310.03 299 1361.01 c 128,-1,6
 299 1412 299 1412 315.5 1437.5 c 128,-1,7
 332 1463 332 1463 357 1479 c 0,8,9
 405.438 1510 405.438 1510 447.719 1510 c 128,-1,10
 490 1510 490 1510 513.5 1504 c 128,-1,11
 537 1498 537 1498 557.5 1484 c 0,12,13
 606 1450.88 606 1450.88 606 1403.44 c 128,-1,14
 606 1356 606 1356 592.5 1324.5 c 128,-1,15
 579 1293 579 1293 557 1269.5 c 128,-1,0
 535 1246 535 1246 507 1231.5 c 128,-1,1
360 1035 m 0,16,17
 497 1035 497 1035 497 958 c 0,18,19
 497 748.611 497 748.611 387 385 c 0,20,21
 262.886 -25.2647 262.886 -25.2647 71.5 -286.5 c 0,22,23
 -77.8018 -490.292 -77.8018 -490.292 -242 -550 c 1,24,25
 -257.75 -557 -257.75 -557 -283.375 -557 c 128,-1,26
 -309 -557 -309 -557 -331.5 -541.5 c 128,-1,27
 -354 -526 -354 -526 -354 -506.5 c 0,28,29
 -354 -468.438 -354 -468.438 -327 -460 c 0,30,31
 -178.678 -412.425 -178.678 -412.425 -18.5 -100.5 c 0,32,33
 123.659 176.336 123.659 176.336 204.5 503 c 0,34,35
 256 711.102 256 711.102 256 844 c 0,36,37
 256 890.182 256 890.182 226 912 c 2,38,-1
 205.5 926.5 l 2,39,40
 196 933 196 933 196 950.5 c 128,-1,41
 196 968 196 968 210.5 984 c 128,-1,42
 225 1000 225 1000 248.5 1011.5 c 0,43,44
 296.522 1035 296.522 1035 360 1035 c 0,16,17
EndSplineSet
EndChar

StartChar: k
Encoding: 107 107 15
Width: 1019
Flags: HW
LayerCount: 2
Fore
SplineSet
734 -9 m 0,0,1
 507.457 -9 507.457 -9 372 422 c 1,2,3
 319 324 319 324 284.5 244.5 c 2,4,-1
 224 108.5 l 2,5,6
 198 52 198 52 175.5 21 c 128,-1,7
 153 -10 153 -10 125 -10 c 128,-1,8
 97 -10 97 -10 74 -0.5 c 128,-1,9
 51 9 51 9 34.5 24 c 0,10,11
 -1 56.2727 -1 56.2727 -1 94 c 0,12,13
 -1 108.815 -1 108.815 20.5 153.407 c 2,14,-1
 59.5 234 l 2,15,16
 246.568 618.825 246.568 618.825 399 1209.5 c 0,17,18
 455.493 1428.41 455.493 1428.41 480 1602 c 0,19,20
 491.2 1686 491.2 1686 562 1686 c 0,21,22
 604 1686 604 1686 632.5 1663.5 c 0,23,24
 685.879 1621.36 685.879 1621.36 683.939 1571.68 c 128,-1,25
 682 1522 682 1522 670.5 1460 c 128,-1,26
 659 1398 659 1398 640 1324.5 c 128,-1,27
 621 1251 621 1251 597 1171 c 1,28,29
 531.597 962.365 531.597 962.365 500.299 872.682 c 1,30,-1
 405.5 613.5 l 2,31,32
 388 568 388 568 378 547 c 1,33,34
 609.538 638.538 609.538 638.538 726 755 c 0,35,36
 796 825 796 825 796 886 c 0,37,38
 796 917.045 796 917.045 775.5 931.023 c 128,-1,39
 755 945 755 945 747.5 952.5 c 128,-1,40
 740 960 740 960 746.5 979.5 c 128,-1,41
 753 999 753 999 784 1017 c 128,-1,42
 815 1035 815 1035 859 1035 c 128,-1,43
 903 1035 903 1035 932.5 1027 c 128,-1,44
 962 1019 962 1019 984.5 1002.5 c 0,45,46
 1033 966.933 1033 966.933 1033 902.967 c 128,-1,47
 1033 839 1033 839 1006 785.5 c 128,-1,48
 979 732 979 732 921.5 682.5 c 0,49,50
 808.976 585.631 808.976 585.631 560 496 c 1,51,52
 590.751 363.386 590.751 363.386 673.5 262.5 c 0,53,54
 752.652 166 752.652 166 819 166 c 0,55,56
 854 166 854 166 879 178.5 c 2,57,-1
 915 196.5 l 2,58,59
 926 202 926 202 936 202 c 0,60,61
 961 202 961 202 961 172 c 0,62,63
 961 146 961 146 952 126.5 c 128,-1,64
 943 107 943 107 926.5 85 c 128,-1,65
 910 63 910 63 883.5 42 c 0,66,67
 819.143 -8.99998 819.143 -8.99998 734 -9 c 0,0,1
EndSplineSet
EndChar

StartChar: l
Encoding: 108 108 16
Width: 572
Flags: HW
LayerCount: 2
Fore
SplineSet
80.5 106.5 m 128,-1,1
 65 147 65 147 65 200.5 c 128,-1,2
 65 254 65 254 89.5 344 c 128,-1,3
 114 434 114 434 152 549 c 2,4,-1
 236 798 l 1,5,6
 414.638 1318.38 414.638 1318.38 443 1602 c 0,7,8
 452.333 1686 452.333 1686 525 1686 c 0,9,10
 571 1686 571 1686 601 1663.5 c 0,11,12
 658.837 1620.12 658.837 1620.12 656.919 1566.06 c 128,-1,13
 655 1512 655 1512 638 1434.5 c 128,-1,14
 621 1357 621 1357 594 1265.5 c 128,-1,15
 567 1174 567 1174 532.5 1072 c 2,16,-1
 394 666 l 2,17,18
 275 319.5 275 319.5 275 219 c 0,19,20
 275 165 275 165 319 165 c 0,21,22
 361.273 165 361.273 165 395.636 183 c 128,-1,23
 430 201 430 201 440 201 c 0,24,25
 461 201 461 201 461 179.5 c 0,26,27
 461 91.3333 461 91.3333 370.5 31 c 0,28,29
 309 -10 309 -10 258.5 -10 c 128,-1,30
 208 -10 208 -10 177 2 c 128,-1,31
 146 14 146 14 121 40 c 128,-1,0
 96 66 96 66 80.5 106.5 c 128,-1,1
EndSplineSet
EndChar

StartChar: m
Encoding: 109 109 17
Width: 1669
Flags: HW
LayerCount: 2
Fore
SplineSet
826 846 m 0,0,1
 768.186 846 768.186 846 614.5 678.5 c 1,2,3
 499.071 546.95 499.071 546.95 446.536 480.975 c 2,4,-1
 357 367 l 1,5,6
 299 257 299 257 266 184.5 c 2,7,-1
 212 68.5 l 2,8,9
 191 25 191 25 175.5 7.5 c 128,-1,10
 160 -10 160 -10 133.5 -10 c 128,-1,11
 107 -10 107 -10 82.5 -0.5 c 128,-1,12
 58 9 58 9 40 24 c 0,13,14
 2 55.6667 2 55.6667 2 94 c 0,15,16
 2 108.815 2 108.815 23.5 153.407 c 2,17,-1
 62.5 234 l 2,18,19
 80 270 80 270 104 326.5 c 2,20,-1
 160 463 l 1,21,22
 278 758 278 758 278 844 c 0,23,24
 278 890.182 278 890.182 248 912 c 2,25,-1
 227.5 926.5 l 2,26,27
 218 933 218 933 218 950.5 c 128,-1,28
 218 968 218 968 231.5 984 c 128,-1,29
 245 1000 245 1000 267 1011.5 c 0,30,31
 311.957 1035 311.957 1035 357.478 1035 c 128,-1,32
 403 1035 403 1035 429 1025 c 128,-1,33
 455 1015 455 1015 473.5 998 c 0,34,35
 512 962.622 512 962.622 512 924.811 c 128,-1,36
 512 887 512 887 502 848.5 c 128,-1,37
 492 810 492 810 477 770.5 c 128,-1,38
 462 731 462 731 445 693.5 c 0,39,40
 405.35 607.7 405.35 607.7 395.675 588.35 c 128,-1,41
 386 569 386 569 390 574 c 0,42,43
 573.475 811.404 573.475 811.404 610.237 854.202 c 0,44,45
 686.883 943.431 686.883 943.431 729.942 975.716 c 0,46,47
 809.01 1035 809.01 1035 879.505 1035 c 128,-1,48
 950 1035 950 1035 992 991 c 128,-1,49
 1034 947 1034 947 1034 875 c 0,50,51
 1034 811.846 1034 811.846 1002 726.923 c 128,-1,52
 970 642 970 642 959 608 c 1,53,-1
 1106.5 802 l 1,54,-1
 1188 899.5 l 1,55,56
 1261.62 983.248 1261.62 983.248 1317.81 1009.12 c 128,-1,57
 1374 1035 1374 1035 1409.5 1035 c 128,-1,58
 1445 1035 1445 1035 1479.5 1022 c 128,-1,59
 1514 1009 1514 1009 1538.5 985 c 0,60,61
 1589 935.531 1589 935.531 1589 855 c 0,62,63
 1589 776.636 1589 776.636 1553 694.818 c 128,-1,64
 1517 613 1517 613 1490 560.5 c 128,-1,65
 1463 508 1463 508 1438.5 455 c 0,66,67
 1365 296 1365 296 1365 219 c 0,68,69
 1365 165 1365 165 1409 165 c 0,70,71
 1451.27 165 1451.27 165 1485.64 183 c 128,-1,72
 1520 201 1520 201 1530 201 c 0,73,74
 1551 201 1551 201 1551 179.5 c 0,75,76
 1551 91.3333 1551 91.3333 1460.5 31 c 0,77,78
 1399 -10 1399 -10 1348.5 -10 c 128,-1,79
 1298 -10 1298 -10 1267 2 c 128,-1,80
 1236 14 1236 14 1211 40 c 0,81,82
 1155 98.24 1155 98.24 1155 185.12 c 128,-1,83
 1155 272 1155 272 1177 345 c 128,-1,84
 1199 418 1199 418 1229 486.5 c 128,-1,85
 1259 555 1259 555 1289.5 612.5 c 128,-1,86
 1320 670 1320 670 1335.5 703.5 c 0,87,88
 1368 773.742 1368 773.742 1368 807 c 0,89,90
 1368 846 1368 846 1327 846 c 0,91,92
 1273.39 846 1273.39 846 1133 667 c 1,93,94
 1027.35 527.919 1027.35 527.919 985.676 467.46 c 2,95,-1
 917 367 l 1,96,97
 859 257 859 257 827.5 184.5 c 2,98,-1
 777 68.5 l 2,99,100
 758 25 758 25 744 7.5 c 128,-1,101
 730 -10 730 -10 705 -10 c 128,-1,102
 680 -10 680 -10 656.5 -2 c 128,-1,103
 633 6 633 6 615.5 19 c 0,104,105
 577 47.6 577 47.6 577 80.3 c 128,-1,106
 577 113 577 113 598.5 169.5 c 128,-1,107
 620 226 620 226 652 296.5 c 1,108,-1
 792 591.5 l 1,109,110
 867 756.734 867 756.734 867 801.367 c 128,-1,111
 867 846 867 846 826 846 c 0,0,1
925 564 m 1,112,113
 926 564 926 564 926 565 c 2,114,-1
 927 567 l 2,115,116
 925 565 925 565 925 564 c 1,112,113
EndSplineSet
EndChar

StartChar: n
Encoding: 110 110 18
Width: 1149
Flags: HW
LayerCount: 2
Fore
SplineSet
793 846 m 0,0,1
 762.24 846 762.24 846 705.12 786.5 c 128,-1,2
 648 727 648 727 606 678.5 c 1,3,-1
 521 576.5 l 1,4,-1
 357 367 l 1,5,6
 299 257 299 257 266 184.5 c 2,7,-1
 212 68.5 l 2,8,9
 191 25 191 25 175.5 7.5 c 128,-1,10
 160 -10 160 -10 133.5 -10 c 128,-1,11
 107 -10 107 -10 82.5 -0.5 c 128,-1,12
 58 9 58 9 40 24 c 0,13,14
 2 55.6667 2 55.6667 2 94 c 0,15,16
 2 108.815 2 108.815 23.5 153.407 c 2,17,-1
 62.5 234 l 2,18,19
 80 270 80 270 104 326.5 c 2,20,-1
 160 463 l 1,21,22
 278 758 278 758 278 844 c 0,23,24
 278 890.182 278 890.182 248 912 c 2,25,-1
 227.5 926.5 l 2,26,27
 218 933 218 933 218 950.5 c 128,-1,28
 218 968 218 968 231.5 984 c 128,-1,29
 245 1000 245 1000 267 1011.5 c 0,30,31
 311.957 1035 311.957 1035 357.478 1035 c 128,-1,32
 403 1035 403 1035 428 1025 c 128,-1,33
 453 1015 453 1015 470.5 998 c 0,34,35
 507 962.543 507 962.543 507 924.771 c 128,-1,36
 507 887 507 887 497.5 848.5 c 128,-1,37
 488 810 488 810 473.5 770.5 c 128,-1,38
 459 731 459 731 443 693 c 128,-1,39
 427 655 427 655 414 627 c 2,40,-1
 393.5 583.5 l 2,41,42
 386 568 386 568 390 574 c 0,43,44
 500.975 727.953 500.975 727.953 536.487 772.477 c 1,45,-1
 606 856.5 l 1,46,47
 682.951 945.899 682.951 945.899 726.975 975.449 c 0,48,49
 815.694 1035 815.694 1035 866.847 1035 c 128,-1,50
 918 1035 918 1035 953 1022 c 128,-1,51
 988 1009 988 1009 1014 985 c 0,52,53
 1069 934.231 1069 934.231 1069 855 c 128,-1,54
 1069 775.818 1069 775.818 1033 689.909 c 128,-1,55
 997 604 997 604 970.5 550.5 c 128,-1,56
 944 497 944 497 919.5 442 c 0,57,58
 845 274.755 845 274.755 845 199 c 0,59,60
 845 165 845 165 899 165 c 0,61,62
 941.273 165 941.273 165 975.636 183 c 128,-1,63
 1010 201 1010 201 1020 201 c 0,64,65
 1041 201 1041 201 1041 179.5 c 0,66,67
 1041 91.3333 1041 91.3333 950.5 31 c 0,68,69
 889 -10 889 -10 838 -10 c 128,-1,70
 787 -10 787 -10 753.5 1 c 128,-1,71
 720 12 720 12 694 35.5 c 0,72,73
 635 88.8269 635 88.8269 635 184 c 0,74,75
 635 299.61 635 299.61 708.5 473.5 c 1,76,77
 761.076 592.932 761.076 592.932 783.038 637.466 c 2,78,-1
 817 708 l 2,79,80
 848 772.214 848 772.214 848 809.107 c 128,-1,81
 848 846 848 846 793 846 c 0,0,1
EndSplineSet
EndChar

StartChar: o
Encoding: 111 111 19
Width: 1053
Flags: HW
LayerCount: 2
Fore
SplineSet
98 169.5 m 128,-1,1
 74 231 74 231 73 315 c 128,-1,2
 72 399 72 399 93.5 485 c 128,-1,3
 115 571 115 571 154.5 651 c 128,-1,4
 194 731 194 731 249.5 801 c 128,-1,5
 305 871 305 871 372.5 923 c 0,6,7
 517.885 1035 517.885 1035 675 1035 c 0,8,9
 881.4 1035 881.4 1035 954 853.5 c 0,10,11
 1006.05 723.382 1006.05 723.382 960 537 c 0,12,13
 917.714 365.844 917.714 365.844 806.5 223 c 0,14,15
 694.794 79.5238 694.794 79.5238 544 20 c 0,16,17
 468 -10 468 -10 394.5 -10 c 128,-1,18
 321 -10 321 -10 263.5 9 c 128,-1,19
 206 28 206 28 164 68 c 128,-1,0
 122 108 122 108 98 169.5 c 128,-1,1
307.5 401 m 128,-1,21
 290 323 290 323 291 253.5 c 128,-1,22
 292 184 292 184 312.5 144.5 c 128,-1,23
 333 105 333 105 379 105 c 128,-1,24
 425 105 425 105 469.5 136.5 c 128,-1,25
 514 168 514 168 556 220 c 128,-1,26
 598 272 598 272 635 340 c 128,-1,27
 672 408 672 408 700 482 c 0,28,29
 760.952 643.087 760.952 643.087 759 768 c 1,30,31
 759 878 759 878 714 908 c 0,32,33
 696 920 696 920 663.5 920 c 128,-1,34
 631 920 631 920 589 890.5 c 128,-1,35
 547 861 547 861 505 811 c 128,-1,36
 463 761 463 761 424 694 c 128,-1,37
 385 627 385 627 355 553 c 128,-1,20
 325 479 325 479 307.5 401 c 128,-1,21
EndSplineSet
EndChar

StartChar: p
Encoding: 112 112 20
Width: 1128
Flags: HW
LayerCount: 2
Fore
SplineSet
251 95 m 1,0,1
 249.088 79.7076 249.088 79.7076 207.544 -63.1462 c 128,-1,2
 166 -206 166 -206 138 -289.5 c 0,3,4
 74.8503 -477.821 74.8503 -477.821 34 -524 c 1,5,6
 0.57143 -560 0.57143 -560 -46 -560 c 0,7,8
 -102.727 -560 -102.727 -560 -133 -504.5 c 0,9,10
 -142 -488 -142 -488 -142 -468.5 c 128,-1,11
 -142 -449 -142 -449 -111.5 -384.5 c 0,12,13
 -33.3169 -219.162 -33.3169 -219.162 99 266 c 0,14,15
 151.637 457.97 151.637 457.97 169.319 526.985 c 2,16,-1
 201 652 l 2,17,18
 232 776 232 776 237.5 820.5 c 128,-1,19
 243 865 243 865 232 883.5 c 128,-1,20
 221 902 221 902 207 911.5 c 128,-1,21
 193 921 193 921 181 928 c 128,-1,22
 169 935 169 935 171 953.5 c 128,-1,23
 173 972 173 972 187.5 987.5 c 128,-1,24
 202 1003 202 1003 224 1013.5 c 0,25,26
 269.048 1035 269.048 1035 314.524 1035 c 128,-1,27
 360 1035 360 1035 386 1024 c 128,-1,28
 412 1013 412 1013 429 994.5 c 0,29,30
 465.146 955.165 465.146 955.165 460.573 918.083 c 0,31,32
 451.114 841.379 451.114 841.379 439 786 c 1,33,34
 614.432 1035 614.432 1035 802 1035 c 0,35,36
 973.276 1035 973.276 1035 1031 857.5 c 0,37,38
 1051 796 1051 796 1051 707 c 128,-1,39
 1051 618 1051 618 1024 528.5 c 128,-1,40
 997 439 997 439 951 359 c 128,-1,41
 905 279 905 279 844 211.5 c 128,-1,42
 783 144 783 144 715 94.5 c 0,43,44
 571.444 -9.99999 571.444 -9.99999 443.179 -9.99999 c 128,-1,45
 314.913 -10 314.913 -10 251 95 c 1,0,1
346.5 381 m 128,-1,47
 324 311 324 311 324 253 c 128,-1,48
 324 195 324 195 349 157.5 c 128,-1,49
 374 120 374 120 423 120 c 128,-1,50
 472 120 472 120 520.5 146.5 c 128,-1,51
 569 173 569 173 614.5 218 c 128,-1,52
 660 263 660 263 699.5 323.5 c 128,-1,53
 739 384 739 384 768 452 c 0,54,55
 831 599.724 831 599.724 831 733 c 0,56,57
 831 805 831 805 812 845 c 128,-1,58
 793 885 793 885 753.5 885 c 128,-1,59
 714 885 714 885 671 854.5 c 128,-1,60
 628 824 628 824 581 773.5 c 128,-1,61
 534 723 534 723 488 657.5 c 128,-1,62
 442 592 442 592 405.5 521.5 c 128,-1,46
 369 451 369 451 346.5 381 c 128,-1,47
EndSplineSet
EndChar

StartChar: q
Encoding: 113 113 21
Width: 1092
Flags: HW
LayerCount: 2
Fore
SplineSet
891 902 m 1,0,1
 961.435 962 961.435 962 1008 962 c 0,2,3
 1036.46 962 1036.46 962 1064.73 941 c 0,4,5
 1118.97 900.707 1118.97 900.707 1110 872 c 0,6,7
 1107 861 1107 861 1101 845.5 c 2,8,-1
 1088.5 812 l 2,9,10
 1074.2 772.4 1074.2 772.4 1058.1 739.2 c 128,-1,11
 1042 706 1042 706 1018 651.5 c 0,12,13
 848.94 249.512 848.94 249.512 803.47 114.756 c 128,-1,14
 758 -20 758 -20 737.5 -95 c 0,15,16
 692 -261.463 692 -261.463 692 -334.232 c 0,17,18
 692 -438.25 692 -438.25 703.5 -471.625 c 128,-1,19
 715 -505 715 -505 711.5 -519 c 128,-1,20
 708 -533 708 -533 697 -542 c 0,21,22
 675 -560 675 -560 641 -560 c 128,-1,23
 607 -560 607 -560 581 -548 c 128,-1,24
 555 -536 555 -536 534.5 -510 c 0,25,26
 488.259 -451.353 488.259 -451.353 492 -341 c 1,27,28
 494.43 -195.184 494.43 -195.184 630 120.5 c 1,29,-1
 695 270 l 1,30,31
 613.882 145.619 613.882 145.619 556.941 94.3094 c 0,32,33
 441.183 -10 441.183 -10 329 -10 c 0,34,35
 157.837 -10 157.837 -10 103 167.5 c 0,36,37
 84 229 84 229 84 318 c 128,-1,38
 84 407 84 407 110.5 496.5 c 128,-1,39
 137 586 137 586 182.5 666 c 128,-1,40
 228 746 228 746 288.5 813.5 c 128,-1,41
 349 881 349 881 417 930.5 c 0,42,43
 560.556 1035 560.556 1035 689.757 1035 c 128,-1,44
 818.958 1035 818.958 1035 891 902 c 1,0,1
377 140 m 0,45,46
 480.049 140 480.049 140 613.5 341 c 0,47,48
 751.576 548.966 751.576 548.966 807 794 c 1,49,50
 802.765 861.755 802.765 861.755 750 894 c 0,51,52
 732 905 732 905 695.5 905 c 128,-1,53
 659 905 659 905 610.5 878.5 c 128,-1,54
 562 852 562 852 517.5 807 c 128,-1,55
 473 762 473 762 434 701.5 c 128,-1,56
 395 641 395 641 366 573 c 0,57,58
 304 427.621 304 427.621 304 283.81 c 128,-1,59
 304 140 304 140 377 140 c 0,45,46
882 894 m 1,60,61
 880 894 880 894 879 891 c 1,62,-1
 882 894 l 1,60,61
EndSplineSet
EndChar

StartChar: r
Encoding: 114 114 22
Width: 835
Flags: HW
LayerCount: 2
Fore
SplineSet
43 57.5 m 128,-1,1
 31 76 31 76 30 89.5 c 128,-1,2
 29 103 29 103 35.5 122.5 c 128,-1,3
 42 142 42 142 53 170 c 0,4,5
 257 672.154 257 672.154 257 844 c 1,6,7
 253.934 891.524 253.934 891.524 224.5 912 c 2,8,-1
 204 926.5 l 2,9,10
 195 933 195 933 194.5 950.5 c 128,-1,11
 194 968 194 968 207 984 c 128,-1,12
 220 1000 220 1000 241 1011.5 c 0,13,14
 283.913 1035 283.913 1035 329.457 1035 c 128,-1,15
 375 1035 375 1035 400.5 1025 c 128,-1,16
 426 1015 426 1015 444 998 c 0,17,18
 482 962.111 482 962.111 482.5 922.056 c 128,-1,19
 483 882 483 882 473.5 841 c 128,-1,20
 464 800 464 800 451 760.5 c 128,-1,21
 438 721 438 721 425 685.5 c 128,-1,22
 412 650 412 650 408 633 c 0,23,24
 399.758 597.97 399.758 597.97 402 589 c 1,25,26
 426 610 426 610 431 630 c 1,27,-1
 470.5 703.5 l 1,28,29
 600.33 938.298 600.33 938.298 724.5 1013.5 c 0,30,31
 760 1035 760 1035 810.5 1035 c 128,-1,32
 861 1035 861 1035 892 999.5 c 128,-1,33
 923 964 923 964 924.5 921 c 128,-1,34
 926 878 926 878 918.5 849.5 c 128,-1,35
 911 821 911 821 896.5 796.5 c 0,36,37
 863.061 740 863.061 740 816 740 c 0,38,39
 803 740 803 740 792.5 749 c 2,40,-1
 770 768.5 l 2,41,42
 737.429 797 737.429 797 706.714 797 c 128,-1,43
 676 797 676 797 632.5 757 c 128,-1,44
 589 717 589 717 541.5 654 c 0,45,46
 383.744 444.766 383.744 444.766 284 186.5 c 2,47,-1
 239.5 70.5 l 2,48,49
 223 27 223 27 210 8.5 c 128,-1,50
 197 -10 197 -10 171.5 -10 c 128,-1,51
 146 -10 146 -10 120.5 -0.5 c 128,-1,52
 95 9 95 9 75 24 c 128,-1,0
 55 39 55 39 43 57.5 c 128,-1,1
EndSplineSet
EndChar

StartChar: s
Encoding: 115 115 23
Width: 867
Flags: HW
LayerCount: 2
Fore
SplineSet
24 175.5 m 0,0,1
 24 207 24 207 37.5 233.5 c 128,-1,2
 51 260 51 260 71 278.5 c 0,3,4
 112.622 317 112.622 317 159 317 c 0,5,6
 199 317 199 317 199 276 c 0,7,8
 199 172.4 199 172.4 268 131 c 0,9,10
 293 116 293 116 320 116 c 128,-1,11
 347 116 347 116 366 122 c 128,-1,12
 385 128 385 128 401 141 c 0,13,14
 437 170.25 437 170.25 437 210.125 c 128,-1,15
 437 250 437 250 419 283.5 c 128,-1,16
 401 317 401 317 374.5 354.5 c 2,17,-1
 317 433.5 l 1,18,19
 197 594.145 197 594.145 197 729 c 0,20,21
 197 841.043 197 841.043 292 932 c 0,22,23
 399.578 1035 399.578 1035 569 1035 c 0,24,25
 716.903 1035 716.903 1035 800.5 962 c 0,26,27
 868 903.056 868 903.056 868 827 c 0,28,29
 868 748.451 868 748.451 807.5 701 c 0,30,31
 753.709 658.811 753.709 658.811 700 670 c 256,32,33
 676 675 676 675 663 694.5 c 128,-1,34
 650 714 650 714 658 739 c 128,-1,35
 666 764 666 764 666 791 c 128,-1,36
 666 818 666 818 656 841 c 128,-1,37
 646 864 646 864 629 880 c 0,38,39
 593.938 913 593.938 913 555.469 913 c 128,-1,40
 517 913 517 913 492 904.5 c 128,-1,41
 467 896 467 896 448.5 879.5 c 0,42,43
 409 844.27 409 844.27 409 791.635 c 128,-1,44
 409 739 409 739 427 701 c 128,-1,45
 445 663 445 663 471.5 625 c 128,-1,46
 498 587 498 587 529 548 c 128,-1,47
 560 509 560 509 586.5 466 c 0,48,49
 649 364.585 649 364.585 649 288.292 c 128,-1,50
 649 212 649 212 617 160.5 c 128,-1,51
 585 109 585 109 534 71.5 c 0,52,53
 424.52 -9.00001 424.52 -9.00001 290 -9 c 0,54,55
 161.13 -9 161.13 -9 86.5 53 c 0,56,57
 24 104.923 24 104.923 24 175.5 c 0,0,1
EndSplineSet
EndChar

StartChar: t
Encoding: 116 116 24
Width: 735
Flags: HW
LayerCount: 2
Fore
SplineSet
603 262 m 0,0,1
 632 262 632 262 632 223 c 0,2,3
 632 190.111 632 190.111 612 159 c 1,4,5
 585.277 101.101 585.277 101.101 504 49 c 0,6,7
 411.96 -10 411.96 -10 319 -10 c 0,8,9
 158.2 -10 158.2 -10 115 134 c 0,10,11
 63.7874 304.709 63.7874 304.709 268 859 c 1,12,13
 152.924 869.229 152.924 869.229 143 899 c 0,14,15
 140 908 140 908 140 918.5 c 128,-1,16
 140 929 140 929 149.5 943 c 128,-1,17
 159 957 159 957 174 969.5 c 0,18,19
 209.4 999 209.4 999 245 999 c 2,20,-1
 324 999 l 1,21,22
 432.007 1252.4 432.007 1252.4 478.5 1287 c 0,23,24
 500 1303 500 1303 527 1303 c 128,-1,25
 554 1303 554 1303 572 1296 c 128,-1,26
 590 1289 590 1289 604 1276 c 0,27,28
 636 1246.29 636 1246.29 636 1209 c 256,29,30
 636 1189 636 1189 623.5 1163 c 2,31,-1
 550 1002 l 1,32,-1
 574 1002 l 2,33,34
 636 1002 636 1002 674 1003 c 2,35,36
 731 1004.5 l 2,37,38
 750 1005 750 1005 778.5 1005 c 128,-1,39
 807 1005 807 1005 807 984 c 0,40,41
 807 852 807 852 495 852 c 2,42,-1
 487 852 l 1,43,-1
 419 675.5 l 1,44,45
 304 363.606 304 363.606 304 239 c 0,46,47
 304 204 304 204 320 184.5 c 128,-1,48
 336 165 336 165 380 165 c 128,-1,49
 424 165 424 165 460 180 c 128,-1,50
 496 195 496 195 523 213.5 c 128,-1,51
 550 232 550 232 569.5 247 c 128,-1,52
 589 262 589 262 603 262 c 0,0,1
EndSplineSet
EndChar

StartChar: u
Encoding: 117 117 25
Width: 1133
Flags: HW
LayerCount: 2
Fore
SplineSet
1005 197 m 0,0,1
 1028 197 1028 197 1028 174 c 0,2,3
 1028 86.7551 1028 86.7551 941.5 28.5 c 0,4,5
 884.333 -10 884.333 -10 806 -10 c 0,6,7
 741.5 -10 741.5 -10 707.75 20 c 0,8,9
 647 74 647 74 647 152 c 0,10,11
 647 251.273 647 251.273 730 455 c 1,12,13
 575.878 246.548 575.878 246.548 513.939 178.274 c 128,-1,14
 452 110 452 110 406.5 72.5 c 0,15,16
 306.4 -10 306.4 -10 225 -10 c 0,17,18
 101.03 -10 101.03 -10 60.5 97 c 0,19,20
 48 130 48 130 48 172.5 c 128,-1,21
 48 215 48 215 62.5 267.5 c 128,-1,22
 77 320 77 320 100 377 c 128,-1,23
 123 434 123 434 150.5 494 c 2,24,-1
 204.5 613.5 l 1,25,26
 307.77 845.37 307.77 845.37 281 888.5 c 0,27,28
 269.256 907.42 269.256 907.42 235.5 926.5 c 0,29,30
 224 933 224 933 224 950.5 c 128,-1,31
 224 968 224 968 238.5 984 c 128,-1,32
 253 1000 253 1000 276.5 1011.5 c 0,33,34
 324.522 1035 324.522 1035 373.761 1035 c 128,-1,35
 423 1035 423 1035 448.5 1024.5 c 128,-1,36
 474 1014 474 1014 490.5 997.5 c 0,37,38
 523 965 523 965 523 925 c 128,-1,39
 523 885 523 885 510 835.5 c 128,-1,40
 497 786 497 786 476 728 c 128,-1,41
 455 670 455 670 429.5 608 c 0,42,43
 361.168 446.054 361.168 446.054 336.584 394.027 c 2,44,-1
 300 317 l 1,45,46
 269 247.846 269 247.846 269 219.923 c 128,-1,47
 269 192 269 192 278 180.5 c 128,-1,48
 287 169 287 169 310.5 169 c 128,-1,49
 334 169 334 169 365 191 c 128,-1,50
 396 213 396 213 433 250 c 128,-1,51
 470 287 470 287 510 335.5 c 128,-1,52
 550 384 550 384 588.5 436.5 c 0,53,54
 663.275 538.466 663.275 538.466 697.637 600.233 c 0,55,56
 910.154 974.912 910.154 974.912 923.577 992.456 c 0,57,58
 956.128 1035 956.128 1035 989.564 1035 c 128,-1,59
 1023 1035 1023 1035 1048 1027.5 c 128,-1,60
 1073 1020 1073 1020 1091 1006.5 c 0,61,62
 1133 975 1133 975 1117.5 944 c 0,63,64
 874.326 435.42 874.326 435.42 855 304 c 1,65,66
 850 259 850 259 850 242 c 0,67,68
 850 166 850 166 896 166 c 0,69,70
 939.2 166 939.2 166 967.1 181.5 c 128,-1,71
 995 197 995 197 1005 197 c 0,0,1
EndSplineSet
EndChar

StartChar: v
Encoding: 118 118 26
Width: 1046
Flags: HW
LayerCount: 2
Fore
SplineSet
75.5 97 m 0,0,1
 61 130 61 130 61 175 c 128,-1,2
 61 220 61 220 75 274.5 c 128,-1,3
 89 329 89 329 111 386 c 128,-1,4
 133 443 133 443 159.5 501.5 c 2,5,-1
 211 618 l 1,6,7
 309.728 847.049 309.728 847.049 284 888.5 c 0,8,9
 272.256 907.42 272.256 907.42 238.5 926.5 c 0,10,11
 227 933 227 933 227 950.5 c 128,-1,12
 227 968 227 968 241.5 984 c 128,-1,13
 256 1000 256 1000 279.5 1011.5 c 0,14,15
 327.522 1035 327.522 1035 376.761 1035 c 128,-1,16
 426 1035 426 1035 451.5 1024.5 c 128,-1,17
 477 1014 477 1014 493.5 997.5 c 0,18,19
 526 965 526 965 526 918 c 128,-1,20
 526 871 526 871 508 812 c 128,-1,21
 490 753 490 753 463 688 c 128,-1,22
 436 623 436 623 404 555 c 1,23,-1
 345 424.5 l 1,24,25
 282 278.667 282 278.667 282 231.833 c 0,26,27
 282 140 282 140 347 140 c 0,28,29
 513.783 140 513.783 140 660.5 338.5 c 0,30,31
 744.937 452.738 744.937 452.738 781.5 587.5 c 0,32,33
 799 652 799 652 799 704.5 c 128,-1,34
 799 757 799 757 795.5 792 c 128,-1,35
 792 827 792 827 784.5 853.5 c 0,36,37
 770.722 902.181 770.722 902.181 740 937 c 1,38,39
 718.813 962.895 718.813 962.895 759 997.5 c 0,40,41
 802.548 1035 802.548 1035 884 1035 c 0,42,43
 933.592 1035 933.592 1035 972.5 988.5 c 0,44,45
 1020 931.732 1020 931.732 1020 827.366 c 128,-1,46
 1020 723 1020 723 989 622.5 c 128,-1,47
 958 522 958 522 904 429.5 c 128,-1,48
 850 337 850 337 776.5 257 c 128,-1,49
 703 177 703 177 618 117.5 c 0,50,51
 435.857 -10 435.857 -10 254 -10 c 0,52,53
 122.515 -10 122.515 -10 75.5 97 c 0,0,1
EndSplineSet
EndChar

StartChar: w
Encoding: 119 119 27
Width: 1538
Flags: HW
LayerCount: 2
Fore
SplineSet
189.5 -6 m 128,-1,1
 112.236 -6 112.236 -6 81.5 74.5 c 0,2,3
 71 102 71 102 71 126.5 c 0,4,5
 71 191.323 71 191.323 91.5 252.161 c 128,-1,6
 112 313 112 313 132 366.5 c 2,7,-1
 219.5 593 l 1,8,9
 270.97 731.849 270.97 731.849 281.985 786.924 c 128,-1,10
 293 842 293 842 279 861.5 c 128,-1,11
 265 881 265 881 246.5 895.5 c 128,-1,12
 228 910 228 910 211.5 921.5 c 128,-1,13
 195 933 195 933 195 950.5 c 128,-1,14
 195 968 195 968 209.5 984 c 128,-1,15
 224 1000 224 1000 247.5 1011.5 c 0,16,17
 295.522 1035 295.522 1035 347.261 1035 c 128,-1,18
 399 1035 399 1035 428.5 1024.5 c 128,-1,19
 458 1014 458 1014 477 997.5 c 0,20,21
 514 965.368 514 965.368 514 918.684 c 128,-1,22
 514 872 514 872 498.5 814 c 128,-1,23
 483 756 483 756 459.5 691 c 128,-1,24
 436 626 436 626 407 556 c 2,25,-1
 351.5 417.5 l 1,26,27
 287.1 251.031 287.1 251.031 273 168 c 1,28,29
 366.57 199.899 366.57 199.899 521.5 398.5 c 0,30,31
 690.688 615.378 690.688 615.378 821 893 c 1,32,33
 836.307 927.988 836.307 927.988 857.654 937.994 c 0,34,35
 893.678 954.88 893.678 954.88 948.839 952.94 c 0,36,37
 1036.46 949.858 1036.46 949.858 1039 899 c 0,38,39
 1041.25 867.5 1041.25 867.5 1022.62 830.25 c 128,-1,40
 1004 793 1004 793 992.5 768.5 c 2,41,-1
 953 687.5 l 1,42,43
 836 451.411 836 451.411 836 303 c 0,44,45
 836 200.182 836 200.182 891.5 161.5 c 0,46,47
 908 150 908 150 941 150 c 128,-1,48
 974 150 974 150 1019 173.5 c 128,-1,49
 1064 197 1064 197 1105 238 c 128,-1,50
 1146 279 1146 279 1181.5 333.5 c 128,-1,51
 1217 388 1217 388 1243 450 c 0,52,53
 1298 581.154 1298 581.154 1298 681.577 c 0,54,55
 1298 855.148 1298 855.148 1233 937 c 0,56,57
 1211.4 963.4 1211.4 963.4 1245.5 997.5 c 0,58,59
 1283 1035 1283 1035 1362 1035 c 0,60,61
 1458.61 1035 1458.61 1035 1494.5 926 c 0,62,63
 1508 885 1508 885 1508 803 c 128,-1,64
 1508 721 1508 721 1479 620.5 c 128,-1,65
 1450 520 1450 520 1400.5 427.5 c 128,-1,66
 1351 335 1351 335 1286.5 255 c 128,-1,67
 1222 175 1222 175 1151 116 c 0,68,69
 999.373 -10 999.373 -10 869 -10 c 0,70,71
 646 -10 646 -10 646 278 c 0,72,73
 646 344 646 344 658 407 c 1,74,75
 540.197 235.344 540.197 235.344 403.532 114.672 c 128,-1,0
 266.867 -5.99998 266.867 -5.99998 189.5 -6 c 128,-1,1
EndSplineSet
EndChar

StartChar: x
Encoding: 120 120 28
Width: 957
Flags: HW
LayerCount: 2
Fore
SplineSet
115 22.5 m 0,0,1
 72 -9 72 -9 48.5 -9 c 128,-1,2
 25 -9 25 -9 9.5 -2.5 c 128,-1,3
 -6 4 -6 4 -19 14.5 c 0,4,5
 -49 38.7308 -49 38.7308 -49 59.3654 c 128,-1,6
 -49 80 -49 80 -27 97 c 2,7,8
 34.5 146.5 l 1,9,10
 198.143 281.143 198.143 281.143 305 439 c 1,11,12
 218.249 682.986 218.249 682.986 225 845 c 0,13,14
 228.735 925.312 228.735 925.312 294.5 983 c 0,15,16
 353.78 1035 353.78 1035 422 1035 c 0,17,18
 442 1035 442 1035 448 1021 c 128,-1,19
 454 1007 454 1007 454 980.5 c 128,-1,20
 454 954 454 954 452 924.5 c 128,-1,21
 450 895 450 895 451.5 862.5 c 128,-1,22
 453 830 453 830 456.5 791.5 c 0,23,24
 465.69 690.414 465.69 690.414 475 633 c 1,25,-1
 508.5 688 l 1,26,27
 621.625 869 621.625 869 774 975 c 0,28,29
 860.25 1035 860.25 1035 922 1035 c 0,30,31
 977.6 1035 977.6 1035 1008.8 1019 c 0,32,33
 1067.36 988.971 1067.36 988.971 1048 958 c 0,34,35
 1045 953 1045 953 1036.5 949.5 c 2,36,-1
 1011 938.5 l 1,37,38
 852.657 868.643 852.657 868.643 608 600 c 0,39,40
 557 544 557 544 519 493 c 1,41,-1
 554 376.5 l 1,42,43
 618.769 166 618.769 166 708 166 c 0,44,45
 746.692 166 746.692 166 772.346 177.5 c 2,46,-1
 808.5 194 l 2,47,48
 819 199 819 199 829 199 c 0,49,50
 850 199 850 199 850 177.5 c 0,51,52
 850 90.3333 850 90.3333 759.5 30 c 0,53,54
 699.5 -10 699.5 -10 624.25 -10 c 0,55,56
 477.245 -10 477.245 -10 358 293 c 1,57,58
 231.603 107.918 231.603 107.918 115 22.5 c 0,0,1
EndSplineSet
EndChar

StartChar: y
Encoding: 121 121 29
Width: 1126
Flags: HW
LayerCount: 2
Fore
SplineSet
70.5 97 m 0,0,1
 58 130 58 130 58 172.5 c 128,-1,2
 58 215 58 215 72.5 267.5 c 128,-1,3
 87 320 87 320 110 377 c 128,-1,4
 133 434 133 434 160.5 494 c 2,5,-1
 214.5 613.5 l 1,6,7
 317.77 845.37 317.77 845.37 291 888.5 c 0,8,9
 279.256 907.42 279.256 907.42 245.5 926.5 c 0,10,11
 234 933 234 933 234 950.5 c 128,-1,12
 234 968 234 968 248.5 984 c 128,-1,13
 263 1000 263 1000 286.5 1011.5 c 0,14,15
 334.522 1035 334.522 1035 383.761 1035 c 128,-1,16
 433 1035 433 1035 458.5 1024.5 c 128,-1,17
 484 1014 484 1014 500.5 997.5 c 0,18,19
 533 965 533 965 533 925 c 128,-1,20
 533 885 533 885 520 835.5 c 128,-1,21
 507 786 507 786 486 728 c 128,-1,22
 465 670 465 670 439.5 608 c 0,23,24
 371.168 446.054 371.168 446.054 346.584 394.027 c 2,25,-1
 310 317 l 1,26,27
 279 247.846 279 247.846 279 219.923 c 128,-1,28
 279 192 279 192 288 180.5 c 128,-1,29
 297 169 297 169 320.5 169 c 128,-1,30
 344 169 344 169 372.5 187 c 128,-1,31
 401 205 401 205 434 235 c 128,-1,32
 467 265 467 265 502.5 304.5 c 128,-1,33
 538 344 538 344 572.5 387 c 0,34,35
 660.951 497.243 660.951 497.243 703.975 576.121 c 0,36,37
 919.723 974.359 919.723 974.359 933.362 992.179 c 0,38,39
 966.133 1035 966.133 1035 999.566 1035 c 128,-1,40
 1033 1035 1033 1035 1058 1027.5 c 128,-1,41
 1083 1020 1083 1020 1101 1006.5 c 0,42,43
 1140.95 976.541 1140.95 976.541 1125.47 940.77 c 128,-1,44
 1110 905 1110 905 1087.5 842 c 0,45,46
 897.857 290.693 897.857 290.693 841.429 154.847 c 128,-1,47
 785 19 785 19 743 -63.5 c 128,-1,48
 701 -146 701 -146 644.5 -230 c 128,-1,49
 588 -314 588 -314 523.5 -383 c 0,50,51
 377.778 -538.889 377.778 -538.889 250 -550 c 0,52,53
 200.955 -553.773 200.955 -553.773 171.977 -536.386 c 0,54,55
 122 -506.4 122 -506.4 122 -479 c 0,56,57
 122 -452.318 122 -452.318 167.5 -441.659 c 128,-1,58
 213 -431 213 -431 261.5 -399.5 c 128,-1,59
 310 -368 310 -368 355 -325.5 c 0,60,61
 487.446 -200.413 487.446 -200.413 559.5 -51.5 c 0,62,63
 621.929 77.5193 621.929 77.5193 660.464 194.26 c 2,64,-1
 738 432 l 1,65,66
 709 397 709 397 674.5 350 c 2,67,-1
 601.5 254 l 1,68,69
 507.861 134.823 507.861 134.823 446.43 85.4114 c 0,70,71
 327.811 -10 327.811 -10 235 -10 c 0,72,73
 111.03 -10 111.03 -10 70.5 97 c 0,0,1
EndSplineSet
EndChar

StartChar: z
Encoding: 122 122 30
Width: 881
Flags: HW
LayerCount: 2
Fore
SplineSet
229 161 m 1,0,1
 397 217 397 217 539 217 c 0,2,3
 633.592 217 633.592 217 686 163.5 c 0,4,5
 733 115.521 733 115.521 733 34 c 0,6,7
 733 15 733 15 721 2.5 c 128,-1,8
 709 -10 709 -10 689 -10 c 256,9,10
 669 -10 669 -10 647 1 c 128,-1,11
 625 12 625 12 596 25 c 0,12,13
 406.899 109.769 406.899 109.769 180.5 10 c 0,14,15
 151 -3 151 -3 130 -8.5 c 128,-1,16
 109 -14 109 -14 83 -2 c 128,-1,17
 57 10 57 10 34 30 c 0,18,19
 -23.3498 79.8694 -23.3498 79.8694 -6.17489 129.435 c 128,-1,20
 11 179 11 179 49.5 237.5 c 128,-1,21
 88 296 88 296 138 354 c 128,-1,22
 188 412 188 412 246.5 468.5 c 1,23,24
 399.309 610.905 399.309 610.905 467.154 668.452 c 0,25,26
 622.932 801.245 622.932 801.245 657.466 833.122 c 128,-1,27
 692 865 692 865 704 884 c 1,28,29
 616.141 844.322 616.141 844.322 472.5 829 c 0,30,31
 435 825 435 825 411 825 c 0,32,33
 308 825 308 825 264.5 862 c 128,-1,34
 221 899 221 899 221 973 c 0,35,36
 221 1002 221 1002 234 1018.5 c 128,-1,37
 247 1035 247 1035 264.5 1035 c 128,-1,38
 282 1035 282 1035 310.5 1024.5 c 128,-1,39
 339 1014 339 1014 380 1001 c 0,40,41
 487.231 967 487.231 967 568.115 967 c 128,-1,42
 649 967 649 967 681 975 c 128,-1,43
 713 983 713 983 738 992.5 c 2,44,-1
 784 1010 l 2,45,46
 805 1018 805 1018 826 1018 c 128,-1,47
 847 1018 847 1018 863.5 1004.5 c 128,-1,48
 880 991 880 991 893.5 972 c 0,49,50
 924 929.074 924 929.074 924 890.037 c 128,-1,51
 924 851 924 851 882 795.5 c 128,-1,52
 840 740 840 740 774 678.5 c 128,-1,53
 708 617 708 617 627.5 552 c 1,54,-1
 469.5 421 l 1,55,56
 285.782 264.543 285.782 264.543 229 161 c 1,0,1
216 134 m 1,57,58
 219 136 219 136 218 136 c 0,59,60
 216 136 216 136 216 134 c 1,57,58
EndSplineSet
EndChar

StartChar: A
Encoding: 65 65 31
Width: 1261
Flags: HW
LayerCount: 2
Fore
SplineSet
744 227 m 2,0,1
 744 362.207 744 362.207 821 641 c 1,2,3
 579.558 635.319 579.558 635.319 452 627 c 1,4,5
 413 556 413 556 381 492 c 2,6,-1
 319 369 l 2,7,8
 195.874 126.852 195.874 126.852 98 49.5 c 0,9,10
 22.7143 -10 22.7143 -10 -61 -10 c 0,11,12
 -125.303 -10 -125.303 -10 -157.5 32.5 c 0,13,14
 -170 49 -170 49 -172 64.5 c 128,-1,15
 -174 80 -174 80 -165 85 c 1,16,17
 -50.3446 127.996 -50.3446 127.996 21.5 216.5 c 0,18,19
 84.9025 294.605 84.9025 294.605 148.451 409.302 c 2,20,-1
 261 611 l 1,21,-1
 198 602 l 1,22,23
 138 590.75 138 590.75 138 621 c 0,24,25
 138 650.844 138 650.844 174.5 678.422 c 0,26,27
 236.753 725.458 236.753 725.458 297 740 c 2,28,-1
 340 750 l 1,29,30
 504.286 1020.77 504.286 1020.77 590.643 1128.88 c 128,-1,31
 677 1237 677 1237 748.5 1309 c 128,-1,32
 820 1381 820 1381 899 1435.5 c 0,33,34
 1072.22 1555 1072.22 1555 1240 1555 c 0,35,36
 1290.92 1555 1290.92 1555 1308.96 1534.5 c 0,37,38
 1338.75 1500.64 1338.75 1500.64 1327.88 1463.32 c 128,-1,39
 1317 1426 1317 1426 1291.5 1356.5 c 0,40,41
 1131.69 920.082 1131.69 920.082 1097 816 c 1,42,43
 1113 817 1113 817 1126 817 c 2,44,-1
 1148 817 l 2,45,46
 1259.64 817 1259.64 817 1267.5 795 c 0,47,48
 1270 788 1270 788 1270 769.5 c 128,-1,49
 1270 751 1270 751 1258.5 727 c 128,-1,50
 1247 703 1247 703 1221 685.5 c 0,51,52
 1168.05 649.862 1168.05 649.862 1043 644 c 1,53,54
 974.804 408.843 974.804 408.843 965.402 318.921 c 128,-1,55
 956 229 956 229 971.5 197.5 c 128,-1,56
 987 166 987 166 1015.5 166 c 128,-1,57
 1044 166 1044 166 1062 171.5 c 128,-1,58
 1080 177 1080 177 1094.5 184 c 2,59,-1
 1119.5 196.5 l 2,60,61
 1130 202 1130 202 1140.5 202 c 128,-1,62
 1151 202 1151 202 1158 188.5 c 128,-1,63
 1165 175 1165 175 1165 153 c 128,-1,64
 1165 131 1165 131 1146.5 100.5 c 128,-1,65
 1128 70 1128 70 1097.5 45.5 c 0,66,67
 1028.41 -9.99997 1028.41 -9.99997 940 -10 c 0,68,69
 804.506 -10 804.506 -10 759.5 110.5 c 0,70,71
 744 152 744 152 744 185 c 2,72,-1
 744 227 l 2,0,1
544 785 m 1,73,74
 721.658 807.991 721.658 807.991 874 812 c 1,75,76
 902 898 902 898 933.5 981.5 c 1,77,-1
 996.5 1141.5 l 1,78,79
 1028 1218 1028 1218 1059 1286 c 2,80,-1
 1117 1409 l 1,81,82
 909.26 1355.39 909.26 1355.39 706 1050.5 c 0,83,84
 663 986 663 986 622.5 918.5 c 2,85,-1
 544 785 l 1,73,74
EndSplineSet
EndChar

StartChar: B
Encoding: 66 66 32
Width: 1130
Flags: HW
LayerCount: 2
Fore
SplineSet
112 148 m 0,0,1
 91 204 91 204 93 283.5 c 128,-1,2
 95 363 95 363 115.5 475 c 128,-1,3
 136 587 136 587 178 715 c 0,4,5
 275.395 1011.82 275.395 1011.82 442 1240 c 0,6,7
 471.25 1279 471.25 1279 502.625 1279 c 128,-1,8
 534 1279 534 1279 564.5 1265 c 128,-1,9
 595 1251 595 1251 618.5 1231.5 c 0,10,11
 675.909 1183.86 675.909 1183.86 656 1154 c 1,12,13
 514.924 927.893 514.924 927.893 425 746 c 1,14,15
 651.531 762.181 651.531 762.181 825 890 c 0,16,17
 1014 1029.26 1014 1029.26 1014 1228 c 0,18,19
 1014 1362.51 1014 1362.51 880.5 1399.5 c 0,20,21
 839 1411 839 1411 782.5 1411 c 128,-1,22
 726 1411 726 1411 665.5 1399.5 c 128,-1,23
 605 1388 605 1388 549 1367.5 c 0,24,25
 437.881 1326.82 437.881 1326.82 346 1260 c 0,26,27
 319.875 1241 319.875 1241 297.938 1241 c 128,-1,28
 276 1241 276 1241 250 1252.5 c 128,-1,29
 224 1264 224 1264 204 1281 c 0,30,31
 125.884 1347.4 125.884 1347.4 226.5 1418.5 c 0,32,33
 370.743 1520.43 370.743 1520.43 653.5 1549.5 c 0,34,35
 707 1555 707 1555 795.5 1555 c 128,-1,36
 884 1555 884 1555 976.5 1526 c 128,-1,37
 1069 1497 1069 1497 1125 1447.5 c 0,38,39
 1228 1356.46 1228 1356.46 1228 1192 c 0,40,41
 1228 1043.58 1228 1043.58 1111 899.5 c 0,42,43
 1003.59 767.229 1003.59 767.229 835 684 c 1,44,45
 916 648 916 648 956.5 583.5 c 128,-1,46
 997 519 997 519 995 444.5 c 128,-1,47
 993 370 993 370 965.5 307.5 c 128,-1,48
 938 245 938 245 891.5 194.5 c 128,-1,49
 845 144 845 144 783.5 105.5 c 128,-1,50
 722 67 722 67 653.5 41.5 c 0,51,52
 515.157 -10 515.157 -10 372 -10 c 0,53,54
 171.25 -10 171.25 -10 112 148 c 0,0,1
354 584 m 1,55,56
 278.125 395.237 278.125 395.237 274 255 c 0,57,58
 272 187 272 187 307.5 150.5 c 128,-1,59
 343 114 343 114 405 114 c 128,-1,60
 467 114 467 114 533 141 c 128,-1,61
 599 168 599 168 654.5 214.5 c 0,62,63
 780.165 319.787 780.165 319.787 784 454 c 0,64,65
 786.838 576.019 786.838 576.019 673.5 620 c 0,66,67
 640 633 640 633 601 637 c 1,68,69
 554.338 634.544 554.338 634.544 469.669 612.772 c 128,-1,70
 385 591 385 591 354 584 c 1,55,56
EndSplineSet
EndChar

StartChar: C
Encoding: 67 67 33
Width: 1093
Flags: HW
LayerCount: 2
Fore
SplineSet
98 420 m 1,0,-1
 99 449 l 1,1,2
 110.484 747.578 110.484 747.578 250.5 1013.5 c 0,3,4
 378.837 1257.24 378.837 1257.24 575 1407 c 0,5,6
 768.859 1555 768.859 1555 953 1555 c 0,7,8
 1093.42 1555 1093.42 1555 1173.5 1458 c 0,9,10
 1243 1373.82 1243 1373.82 1243 1252 c 0,11,12
 1243 1105.52 1243 1105.52 1136 964 c 0,13,14
 1073.76 881.679 1073.76 881.679 1004.5 845.5 c 0,15,16
 971 828 971 828 942.5 828 c 128,-1,17
 914 828 914 828 890 840 c 128,-1,18
 866 852 866 852 848.5 870 c 0,19,20
 811 908.571 811 908.571 811 939.786 c 128,-1,21
 811 971 811 971 827 983 c 0,22,23
 991.247 1101.41 991.247 1101.41 1050.5 1226.5 c 0,24,25
 1073 1274 1073 1274 1073 1320 c 0,26,27
 1073 1417 1073 1417 981 1417 c 0,28,29
 837.229 1417 837.229 1417 683.5 1260 c 0,30,31
 541.332 1114.81 541.332 1114.81 443.5 896 c 0,32,33
 342.873 670.942 342.873 670.942 337 483 c 2,34,-1
 336 445 l 1,35,36
 336 219.853 336 219.853 431 150 c 0,37,38
 465 125 465 125 512.5 125 c 128,-1,39
 560 125 560 125 602 137 c 128,-1,40
 644 149 644 149 686 170.5 c 0,41,42
 754.039 205.33 754.039 205.33 860 291 c 0,43,44
 892.049 315.927 892.049 315.927 913 284.5 c 0,45,46
 931 257.5 931 257.5 931 224.25 c 0,47,48
 931 166.714 931 166.714 915.5 146.357 c 128,-1,49
 900 126 900 126 862.5 98 c 128,-1,50
 825 70 825 70 771 46 c 0,51,52
 645 -10 645 -10 524 -10 c 128,-1,53
 403 -10 403 -10 329 19.5 c 128,-1,54
 255 49 255 49 204 104.5 c 0,55,56
 98 219.853 98 219.853 98 420 c 1,0,-1
EndSplineSet
EndChar

StartChar: D
Encoding: 68 68 34
Width: 1291
Flags: HW
LayerCount: 2
Fore
SplineSet
83 235.5 m 0,0,1
 92 301 92 301 121.5 415.5 c 128,-1,2
 151 530 151 530 197 660.5 c 0,3,4
 302.003 958.39 302.003 958.39 446 1191 c 0,5,6
 466.063 1223.41 466.063 1223.41 496.531 1227.7 c 0,7,8
 541.187 1234 541.187 1234 574.594 1234 c 128,-1,9
 608 1234 608 1234 634.5 1226.5 c 128,-1,10
 661 1219 661 1219 675.5 1207 c 0,11,12
 705.503 1182.17 705.503 1182.17 686 1154 c 0,13,14
 505.194 881.019 505.194 881.019 370.5 487.5 c 0,15,16
 319.474 338.425 319.474 338.425 309.237 279.713 c 128,-1,17
 299 221 299 221 294.5 199.5 c 128,-1,18
 290 178 290 178 290 161.5 c 0,19,20
 290 129 290 129 332 129 c 128,-1,21
 374 129 374 129 426 148.5 c 128,-1,22
 478 168 478 168 538 203.5 c 128,-1,23
 598 239 598 239 662.5 290 c 128,-1,24
 727 341 727 341 789 404.5 c 128,-1,25
 851 468 851 468 906 542 c 128,-1,26
 961 616 961 616 1002.5 698.5 c 0,27,28
 1093 878.41 1093 878.41 1093 1053 c 0,29,30
 1093 1292.64 1093 1292.64 898 1371.5 c 0,31,32
 830 1399 830 1399 756.5 1399 c 128,-1,33
 683 1399 683 1399 632 1389.5 c 128,-1,34
 581 1380 581 1380 534 1363 c 0,35,36
 439.05 1328.66 439.05 1328.66 374 1272 c 1,37,38
 357 1262 357 1262 333 1262 c 128,-1,39
 309 1262 309 1262 281.5 1276 c 128,-1,40
 254 1290 254 1290 232.5 1311 c 0,41,42
 182.238 1360.09 182.238 1360.09 192 1405 c 1,43,44
 202.7 1469.2 202.7 1469.2 384.5 1516 c 0,45,46
 536 1555 536 1555 690 1555 c 128,-1,47
 844 1555 844 1555 967.5 1513 c 128,-1,48
 1091 1471 1091 1471 1167.5 1400 c 0,49,50
 1312 1265.89 1312 1265.89 1312 1041 c 0,51,52
 1312 743.336 1312 743.336 1106.5 465.5 c 0,53,54
 916.823 209.057 916.823 209.057 656.5 76.5 c 0,55,56
 486.626 -10 486.626 -10 345 -10 c 0,57,58
 234.226 -10 234.226 -10 153.5 55 c 0,59,60
 67.692 124.092 67.692 124.092 83 235.5 c 0,0,1
EndSplineSet
EndChar

StartChar: E
Encoding: 69 69 35
Width: 1044
Flags: HW
LayerCount: 2
Fore
SplineSet
1043 1333 m 0,0,1
 1043 1417 1043 1417 943 1417 c 0,2,3
 752.437 1417 752.437 1417 596.5 1240.5 c 0,4,5
 503.778 1135.55 503.778 1135.55 467 1015 c 0,6,7
 449 956 449 956 449 911 c 128,-1,8
 449 866 449 866 459.5 839.5 c 128,-1,9
 470 813 470 813 486.5 795.5 c 0,10,11
 520.433 759.511 520.433 759.511 565 768 c 1,12,13
 614.091 788 614.091 788 651.545 788 c 128,-1,14
 689 788 689 788 711.5 778.5 c 128,-1,15
 734 769 734 769 748.5 755 c 0,16,17
 777 727.483 777 727.483 777 700.741 c 0,18,19
 777 650 777 650 743 648 c 1,20,21
 691 643 691 643 634 619 c 128,-1,22
 577 595 577 595 519 556.5 c 128,-1,23
 461 518 461 518 415.5 469.5 c 0,24,25
 313 360.242 313 360.242 313 249 c 0,26,27
 313 195.742 313 195.742 337.5 168.871 c 0,28,29
 380.235 122 380.235 122 438.118 122 c 128,-1,30
 496 122 496 122 551.5 144.5 c 128,-1,31
 607 167 607 167 652 199 c 0,32,33
 720.318 247.582 720.318 247.582 784 324 c 0,34,35
 816.3 362 816.3 362 840.15 362 c 128,-1,36
 864 362 864 362 876.5 333.5 c 128,-1,37
 889 305 889 305 889 273 c 0,38,39
 889 206.733 889 206.733 864 175.367 c 128,-1,40
 839 144 839 144 801.5 112.5 c 128,-1,41
 764 81 764 81 711.5 54 c 0,42,43
 587.056 -10 587.056 -10 444 -10 c 0,44,45
 202.556 -10 202.556 -10 114.5 148.5 c 0,46,47
 82 207 82 207 82 269 c 128,-1,48
 82 331 82 331 100.5 384 c 128,-1,49
 119 437 119 437 148 482.5 c 128,-1,50
 177 528 177 528 213 564.5 c 128,-1,51
 249 601 249 601 284 628 c 0,52,53
 353.449 681.575 353.449 681.575 398 689 c 1,54,55
 285.149 734.141 285.149 734.141 246.5 864 c 0,56,57
 234 906 234 906 234 966 c 128,-1,58
 234 1026 234 1026 257 1098.5 c 128,-1,59
 280 1171 280 1171 322 1237.5 c 128,-1,60
 364 1304 364 1304 422 1362 c 128,-1,61
 480 1420 480 1420 550.5 1463 c 0,62,63
 701.337 1555 701.337 1555 868 1555 c 0,64,65
 1042.64 1555 1042.64 1555 1129 1467.5 c 0,66,67
 1198 1397.59 1198 1397.59 1198 1289 c 0,68,69
 1198 1164.77 1198 1164.77 1093.5 1038 c 0,70,71
 1031.13 962.339 1031.13 962.339 980.565 935.169 c 128,-1,72
 930 908 930 908 901.5 905.5 c 128,-1,73
 873 903 873 903 848.5 912.5 c 128,-1,74
 824 922 824 922 805.5 938.5 c 0,75,76
 765 974.622 765 974.622 765 1004.81 c 0,77,78
 765 1042.5 765 1042.5 791 1062 c 2,79,-1
 881 1126 l 1,80,81
 1043 1244.8 1043 1244.8 1043 1333 c 0,0,1
EndSplineSet
EndChar

StartChar: F
Encoding: 70 70 36
Width: 1062
Flags: HW
LayerCount: 2
Fore
SplineSet
957 655 m 1,0,1
 928 656 928 656 896.5 658.5 c 128,-1,2
 865 661 865 661 822 662 c 0,3,4
 728.007 664.186 728.007 664.186 618 654 c 1,5,6
 593.494 568.229 593.494 568.229 535.747 442.615 c 128,-1,7
 478 317 478 317 422 230.5 c 0,8,9
 301.51 44.3865 301.51 44.3865 178 0 c 0,10,11
 160 -7 160 -7 141.5 -7 c 128,-1,12
 123 -7 123 -7 108 -0.5 c 128,-1,13
 93 6 93 6 83 15.5 c 0,14,15
 62 35.45 62 35.45 62 58.225 c 128,-1,16
 62 81 62 81 77 92 c 0,17,18
 219.039 194.978 219.039 194.978 369 611 c 1,19,20
 358 608 358 608 347 605 c 128,-1,21
 336 602 336 602 328 599 c 128,-1,22
 320 596 320 596 309.5 596 c 128,-1,23
 299 596 299 596 286.5 602.5 c 128,-1,24
 274 609 274 609 264 618 c 0,25,26
 242 637.8 242 637.8 242 656.9 c 128,-1,27
 242 676 242 676 259.5 692.5 c 128,-1,28
 277 709 277 709 303 724 c 0,29,30
 350.895 751.632 350.895 751.632 424 776 c 1,31,-1
 478 944.5 l 2,32,33
 573.203 1238.92 573.203 1238.92 660 1353 c 1,34,35
 578.333 1360 578.333 1360 538.667 1360 c 0,36,37
 420.562 1360 420.562 1360 369 1327 c 0,38,39
 317.932 1294.32 317.932 1294.32 297.466 1255.66 c 128,-1,40
 277 1217 277 1217 275.5 1201.5 c 0,41,42
 272.818 1173.79 272.818 1173.79 257.909 1166.39 c 128,-1,43
 243 1159 243 1159 221.5 1159 c 128,-1,44
 200 1159 200 1159 177 1174.5 c 128,-1,45
 154 1190 154 1190 139 1213.5 c 0,46,47
 107.42 1262.97 107.42 1262.97 114.21 1324.49 c 128,-1,48
 121 1386 121 1386 154.5 1430.5 c 128,-1,49
 188 1475 188 1475 234 1503 c 0,50,51
 319.429 1555 319.429 1555 413.714 1555 c 128,-1,52
 508 1555 508 1555 592.5 1545.5 c 128,-1,53
 677 1536 677 1536 761 1524.5 c 0,54,55
 983.783 1494 983.783 1494 1044.89 1494 c 128,-1,56
 1106 1494 1106 1494 1135.5 1501 c 128,-1,57
 1165 1508 1165 1508 1186 1522 c 128,-1,58
 1207 1536 1207 1536 1215.5 1540.5 c 128,-1,59
 1224 1545 1224 1545 1243 1545 c 0,60,61
 1272.56 1545 1272.56 1545 1268.78 1499.5 c 128,-1,62
 1265 1454 1265 1454 1247 1421.5 c 128,-1,63
 1229 1389 1229 1389 1199.5 1367.5 c 0,64,65
 1141.19 1325 1141.19 1325 1049.89 1325 c 128,-1,66
 958.6 1325 958.6 1325 829 1337 c 1,67,68
 796.253 1269.87 796.253 1269.87 765.626 1161.43 c 2,69,-1
 674 831 l 1,70,71
 768.286 846 768.286 846 817.643 846 c 128,-1,72
 867 846 867 846 899 836 c 128,-1,73
 931 826 931 826 956.5 808.5 c 0,74,75
 1014 769.039 1014 769.039 1012.85 712.02 c 128,-1,76
 1011.69 655 1011.69 655 957 655 c 1,0,1
EndSplineSet
EndChar

StartChar: G
Encoding: 71 71 37
Width: 1225
Flags: HW
LayerCount: 2
Fore
SplineSet
103 419 m 1,0,-1
 104 449 l 1,1,2
 115.484 747.578 115.484 747.578 255.5 1013.5 c 0,3,4
 382.493 1254.69 382.493 1254.69 582 1407 c 0,5,6
 775.859 1555 775.859 1555 960 1555 c 0,7,8
 1100.42 1555 1100.42 1555 1180.5 1458 c 0,9,10
 1250 1373.82 1250 1373.82 1250 1252 c 0,11,12
 1250 1105.52 1250 1105.52 1143 964 c 0,13,14
 1080.76 881.679 1080.76 881.679 1011.5 845.5 c 0,15,16
 978 828 978 828 949.5 828 c 128,-1,17
 921 828 921 828 897 840 c 128,-1,18
 873 852 873 852 855.5 870 c 0,19,20
 818 908.571 818 908.571 818 939.786 c 128,-1,21
 818 971 818 971 834 983 c 0,22,23
 998.247 1101.41 998.247 1101.41 1057.5 1226.5 c 0,24,25
 1080 1274 1080 1274 1080 1320 c 0,26,27
 1080 1417 1080 1417 988 1417 c 0,28,29
 842.232 1417 842.232 1417 685.5 1251.5 c 0,30,31
 540.79 1098.69 540.79 1098.69 440.5 867.5 c 0,32,33
 337.879 630.932 337.879 630.932 332 433 c 1,34,35
 321.94 221.733 321.94 221.733 432.5 149.5 c 0,36,37
 470 125 470 125 526 125 c 128,-1,38
 582 125 582 125 632.5 152 c 128,-1,39
 683 179 683 179 719.5 220.5 c 0,40,41
 797.883 309.62 797.883 309.62 800 407 c 0,42,43
 801.667 480.326 801.667 480.326 748.5 507.5 c 0,44,45
 726 519 726 519 700.5 525 c 128,-1,46
 675 531 675 531 658.5 539.5 c 128,-1,47
 642 548 642 548 650 571.5 c 128,-1,48
 658 595 658 595 680.5 620 c 0,49,50
 738.1 684 738.1 684 807 684 c 0,51,52
 830.091 684 830.091 684 875.545 674 c 0,53,54
 961.909 655 961.909 655 991.955 655 c 128,-1,55
 1022 655 1022 655 1039.5 656.5 c 128,-1,56
 1057 658 1057 658 1075 662 c 0,57,58
 1115.97 671.103 1115.97 671.103 1151.98 683.552 c 0,59,60
 1211 703.949 1211 703.949 1211 657.475 c 128,-1,61
 1211 611 1211 611 1192 570 c 128,-1,62
 1173 529 1173 529 1140 499.5 c 0,63,64
 1068.95 435.982 1068.95 435.982 964 438 c 1,65,66
 975.193 373.079 975.193 373.079 918.5 270 c 0,67,68
 816.558 84.6512 816.558 84.6512 628.5 15 c 0,69,70
 561 -10 561 -10 477.5 -10 c 128,-1,71
 394 -10 394 -10 324 19.5 c 128,-1,72
 254 49 254 49 204.5 104.5 c 0,73,74
 103 218.303 103 218.303 103 419 c 1,0,-1
EndSplineSet
EndChar

StartChar: H
Encoding: 72 72 38
Width: 1370
Flags: HW
LayerCount: 2
Fore
SplineSet
1005 735 m 1,0,1
 881.8 746 881.8 746 764.4 746 c 128,-1,2
 647 746 647 746 521 731 c 1,3,4
 362.223 287.145 362.223 287.145 180.5 96 c 0,5,6
 113 25 113 25 41 0 c 0,7,8
 23 -7 23 -7 4.5 -7 c 128,-1,9
 -14 -7 -14 -7 -28.5 -0.5 c 128,-1,10
 -43 6 -43 6 -52.5 15.5 c 0,11,12
 -73 36 -73 36 -73 58.5 c 128,-1,13
 -73 81 -73 81 -58 92 c 0,14,15
 101.342 206.311 101.342 206.311 279 685 c 1,16,17
 271 683 271 683 264 681 c 128,-1,18
 257 679 257 679 247 676 c 128,-1,19
 237 673 237 673 223 682 c 128,-1,20
 209 691 209 691 198.5 705.5 c 0,21,22
 172.04 742.04 172.04 742.04 190.52 758.52 c 0,23,24
 225.773 789.958 225.773 789.958 325 818 c 1,25,26
 458.902 1232.66 458.902 1232.66 464 1406 c 1,27,28
 423 1404 423 1404 388.5 1384 c 2,29,-1
 312 1341 l 2,30,31
 280.982 1323.55 280.982 1323.55 229.5 1367.5 c 0,32,33
 179.673 1410.04 179.673 1410.04 186 1448 c 1,34,35
 192.731 1505.22 192.731 1505.22 346 1542 c 0,36,37
 400.167 1555 400.167 1555 431.083 1555 c 128,-1,38
 462 1555 462 1555 492.5 1553.5 c 128,-1,39
 523 1552 523 1552 548 1546 c 0,40,41
 648.299 1521.93 648.299 1521.93 671 1459.5 c 0,42,43
 681 1432 681 1432 681 1392.5 c 128,-1,44
 681 1353 681 1353 673 1299.5 c 128,-1,45
 665 1246 665 1246 650 1177.5 c 0,46,47
 617.601 1029.54 617.601 1029.54 565 862 c 1,48,49
 783 888 783 888 1016 888 c 2,50,-1
 1059 888 l 1,51,-1
 1114 1051.5 l 1,52,53
 1205.99 1329.17 1205.99 1329.17 1227 1471 c 0,54,55
 1240.07 1555 1240.07 1555 1311 1555 c 0,56,57
 1357 1555 1357 1555 1387 1532.5 c 0,58,59
 1442.89 1490.59 1442.89 1490.59 1440.94 1443.29 c 128,-1,60
 1439 1396 1439 1396 1424 1337 c 128,-1,61
 1409 1278 1409 1278 1385 1205 c 128,-1,62
 1361 1132 1361 1132 1330.5 1048.5 c 2,63,-1
 1267 879 l 1,64,-1
 1291 877 l 2,65,66
 1306 875 1306 875 1319.5 873.5 c 128,-1,67
 1333 872 1333 872 1343 868 c 0,68,69
 1364 859.6 1364 859.6 1364 840.3 c 128,-1,70
 1364 821 1364 821 1352.5 799.5 c 128,-1,71
 1341 778 1341 778 1320 759 c 0,72,73
 1268.95 712.809 1268.95 712.809 1202 711 c 1,74,75
 1079.81 389.512 1079.81 389.512 1059.91 317.256 c 128,-1,76
 1040 245 1040 245 1040 219 c 0,77,78
 1040 165 1040 165 1083 165 c 0,79,80
 1123 165 1123 165 1148 177.5 c 2,81,-1
 1184 195.5 l 2,82,83
 1195 201 1195 201 1205 201 c 0,84,85
 1226 201 1226 201 1226 179.5 c 0,86,87
 1226 91.3793 1226 91.3793 1123 31 c 0,88,89
 1054.76 -9.00003 1054.76 -9.00003 982 -9 c 0,90,91
 880.222 -9 880.222 -9 840 81.5 c 0,92,93
 826 113 826 113 826 141 c 0,94,95
 826 206.5 826 206.5 846 272.75 c 128,-1,96
 866 339 866 339 890 408.5 c 2,97,-1
 1005 735 l 1,0,1
EndSplineSet
EndChar

StartChar: I
Encoding: 73 73 39
Width: 671
Flags: HW
LayerCount: 2
Fore
SplineSet
-8 92 m 0,0,1
 165.486 219.459 165.486 219.459 341 746 c 0,2,3
 443.183 1052.55 443.183 1052.55 483 1300.5 c 0,4,5
 494 1369 494 1369 494 1406 c 1,6,7
 453 1404 453 1404 418.5 1384 c 2,8,-1
 343 1341 l 2,9,10
 311.982 1323.55 311.982 1323.55 260.5 1367.5 c 128,-1,11
 208.922 1411.53 208.922 1411.53 213.461 1442.27 c 128,-1,12
 218 1473 218 1473 247.5 1492.5 c 128,-1,13
 277 1512 277 1512 316.5 1526 c 0,14,15
 398.321 1555 398.321 1555 453.661 1555 c 128,-1,16
 509 1555 509 1555 551.5 1546.5 c 128,-1,17
 594 1538 594 1538 629 1518 c 0,18,19
 709.166 1472.19 709.166 1472.19 711 1386 c 0,20,21
 714.55 1236.92 714.55 1236.92 610 880.5 c 0,22,23
 444.151 315.106 444.151 315.106 220.5 86 c 0,24,25
 159 23 159 23 93 0 c 0,26,27
 75 -7 75 -7 56.5 -7 c 128,-1,28
 38 -7 38 -7 23 -0.5 c 128,-1,29
 8 6 8 6 -2 15.5 c 0,30,31
 -23 35.45 -23 35.45 -23 58.225 c 128,-1,32
 -23 81 -23 81 -8 92 c 0,0,1
EndSplineSet
EndChar

StartChar: J
Encoding: 74 74 40
Width: 805
Flags: HW
LayerCount: 2
Fore
SplineSet
-351 -512 m 0,0,1
 -351 -481.65 -351 -481.65 -312 -468 c 1,2,3
 -34.2511 -359.786 -34.2511 -359.786 244 192 c 0,4,5
 461.851 624.01 461.851 624.01 586 1102.5 c 0,6,7
 635 1291.35 635 1291.35 635 1375 c 0,8,9
 635 1406 635 1406 621 1406 c 0,10,11
 489 1406 489 1406 287 1204 c 0,12,13
 267 1184 267 1184 242.5 1184 c 128,-1,14
 218 1184 218 1184 194.5 1194 c 128,-1,15
 171 1204 171 1204 151.5 1219.5 c 0,16,17
 107 1254.87 107 1254.87 107 1291.44 c 128,-1,18
 107 1328 107 1328 130 1359 c 128,-1,19
 153 1390 153 1390 192 1419 c 128,-1,20
 231 1448 231 1448 281 1472.5 c 128,-1,21
 331 1497 331 1497 385.5 1515.5 c 0,22,23
 501.865 1555 501.865 1555 564.432 1555 c 128,-1,24
 627 1555 627 1555 674 1547.5 c 128,-1,25
 721 1540 721 1540 764 1521.5 c 0,26,27
 868 1476.76 868 1476.76 868 1393 c 0,28,29
 868 1243.48 868 1243.48 773.5 913.5 c 0,30,31
 673.841 565.509 673.841 565.509 512 233 c 1,32,33
 278.058 -234.884 278.058 -234.884 18 -440 c 0,34,35
 -134.143 -560 -134.143 -560 -270 -560 c 0,36,37
 -321 -560 -321 -560 -343.5 -533 c 0,38,39
 -351 -524 -351 -524 -351 -512 c 0,0,1
EndSplineSet
EndChar

StartChar: K
Encoding: 75 75 41
Width: 1262
Flags: HW
LayerCount: 2
Fore
SplineSet
1231 147 m 0,0,1
 1249 147 1249 147 1249 125 c 128,-1,2
 1249 103 1249 103 1234.5 81 c 128,-1,3
 1220 59 1220 59 1191.5 39 c 0,4,5
 1123.1 -9.00002 1123.1 -9.00002 1045.55 -9.00001 c 128,-1,6
 968 -9 968 -9 920 14 c 128,-1,7
 872 37 872 37 831 75.5 c 128,-1,8
 790 114 790 114 756 164 c 128,-1,9
 722 214 722 214 691.5 268 c 2,10,-1
 633 375.5 l 1,11,12
 530.406 571.529 530.406 571.529 459 605 c 1,13,14
 255.749 59.693 255.749 59.693 24 0 c 0,15,16
 9 -4 9 -4 -9.5 -4 c 128,-1,17
 -28 -4 -28 -4 -43.5 2 c 128,-1,18
 -59 8 -59 8 -70 17.5 c 0,19,20
 -93 37.3636 -93 37.3636 -93 58.6818 c 128,-1,21
 -93 80 -93 80 -77 92 c 0,22,23
 96.4865 219.459 96.4865 219.459 272 746 c 0,24,25
 374.183 1052.55 374.183 1052.55 414 1300.5 c 0,26,27
 425 1369 425 1369 425 1406 c 1,28,29
 384 1404 384 1404 348.5 1385 c 128,-1,30
 313 1366 313 1366 288 1350 c 128,-1,31
 263 1334 263 1334 247 1334 c 128,-1,32
 231 1334 231 1334 212.5 1344 c 128,-1,33
 194 1354 194 1354 179 1369 c 0,34,35
 144 1404 144 1404 144 1431 c 128,-1,36
 144 1458 144 1458 160.5 1476 c 128,-1,37
 177 1494 177 1494 202 1507 c 128,-1,38
 227 1520 227 1520 257.5 1529.5 c 128,-1,39
 288 1539 288 1539 317 1544.5 c 0,40,41
 372.364 1555 372.364 1555 412.182 1555 c 128,-1,42
 452 1555 452 1555 496 1542.5 c 128,-1,43
 540 1530 540 1530 572 1506.5 c 0,44,45
 642 1455.09 642 1455.09 642 1380 c 0,46,47
 642 1220.79 642 1220.79 546 875.5 c 0,48,49
 515 764 515 764 476 652 c 1,50,51
 717.933 838.988 717.933 838.988 769.466 881.494 c 128,-1,52
 821 924 821 924 883 984 c 128,-1,53
 945 1044 945 1044 992 1108.5 c 0,54,55
 1094 1248.48 1094 1248.48 1094 1389 c 0,56,57
 1094 1441.43 1094 1441.43 1067 1480 c 1,58,59
 1059 1493.33 1059 1493.33 1059 1505.17 c 128,-1,60
 1059 1517 1059 1517 1068.5 1527 c 128,-1,61
 1078 1537 1078 1537 1092.5 1543.5 c 0,62,63
 1118.15 1555 1118.15 1555 1158.58 1555 c 128,-1,64
 1199 1555 1199 1555 1231.5 1537.5 c 128,-1,65
 1264 1520 1264 1520 1285.5 1493 c 0,66,67
 1329 1438.37 1329 1438.37 1329 1361.69 c 128,-1,68
 1329 1285 1329 1285 1298 1213.5 c 128,-1,69
 1267 1142 1267 1142 1215.5 1079 c 128,-1,70
 1164 1016 1164 1016 1097 959 c 128,-1,71
 1030 902 1030 902 957.5 849.5 c 2,72,-1
 812.5 746.5 l 2,73,74
 740 696 740 696 678 646 c 1,75,76
 750.747 589.067 750.747 589.067 847.5 447 c 1,77,-1
 925 331.5 l 1,78,79
 1008.36 205.362 1008.36 205.362 1059.18 165.681 c 128,-1,80
 1110 126 1110 126 1143.5 126 c 128,-1,81
 1177 126 1177 126 1198 136.5 c 128,-1,82
 1219 147 1219 147 1231 147 c 0,0,1
EndSplineSet
EndChar

StartChar: L
Encoding: 76 76 42
Width: 1060
Flags: HW
LayerCount: 2
Fore
SplineSet
899 1420 m 0,0,1
 765.368 1420 765.368 1420 627.5 1091.5 c 1,2,-1
 462 672.5 l 2,3,4
 304.496 271.415 304.496 271.415 159 145 c 1,5,6
 366.748 217.712 366.748 217.712 646.5 242.5 c 0,7,8
 686 246 686 246 724 246 c 128,-1,9
 762 246 762 246 805.5 233.5 c 128,-1,10
 849 221 849 221 881 196 c 0,11,12
 950 142.094 950 142.094 950 44 c 0,13,14
 950 -10 950 -10 910 -10 c 0,15,16
 887.5 -10 887.5 -10 866.75 1 c 128,-1,17
 846 12 846 12 819.5 22 c 128,-1,18
 793 32 793 32 758.5 41 c 0,19,20
 678 62 678 62 593.5 62 c 128,-1,21
 509 62 509 62 431 50.5 c 128,-1,22
 353 39 353 39 283.5 25.5 c 2,23,-1
 155 1 l 2,24,25
 96 -10 96 -10 65.5 -10 c 128,-1,26
 35 -10 35 -10 18.5 3.5 c 128,-1,27
 2 17 2 17 -11.5 37.5 c 0,28,29
 -42 83.8148 -42 83.8148 -42 112.907 c 0,30,31
 -42 160.167 -42 160.167 -20 173 c 1,32,33
 66.2947 218.544 66.2947 218.544 174 529.5 c 0,34,35
 273.617 818.311 273.617 818.311 310.308 916.156 c 128,-1,36
 347 1014 347 1014 391 1107.5 c 128,-1,37
 435 1201 435 1201 486.5 1283 c 128,-1,38
 538 1365 538 1365 599.5 1426 c 0,39,40
 732.582 1558 732.582 1558 893 1558 c 0,41,42
 1006.3 1558 1006.3 1558 1083 1461 c 0,43,44
 1153 1372.47 1153 1372.47 1153 1255 c 0,45,46
 1153 1096.06 1153 1096.06 1035 926 c 0,47,48
 966.049 826.63 966.049 826.63 886 782.5 c 0,49,50
 847 761 847 761 815.5 761 c 128,-1,51
 784 761 784 761 760 773.5 c 128,-1,52
 736 786 736 786 718.5 804 c 0,53,54
 681 842.571 681 842.571 681 874.286 c 128,-1,55
 681 906 681 906 697 916 c 0,56,57
 817.587 991.367 817.587 991.367 901.5 1095.5 c 0,58,59
 993 1209.05 993 1209.05 993 1314.52 c 128,-1,60
 993 1420 993 1420 899 1420 c 0,0,1
EndSplineSet
EndChar

StartChar: M
Encoding: 77 77 43
Width: 1908
Flags: HW
LayerCount: 2
Fore
SplineSet
1798 202 m 0,0,1
 1823 202 1823 202 1823 166.5 c 128,-1,2
 1823 131 1823 131 1810 108 c 128,-1,3
 1797 85 1797 85 1780 66 c 128,-1,4
 1763 47 1763 47 1737 30 c 0,5,6
 1675.82 -10 1675.82 -10 1608.41 -10 c 128,-1,7
 1541 -10 1541 -10 1501.5 6.5 c 128,-1,8
 1462 23 1462 23 1433 55.5 c 0,9,10
 1371 124.983 1371 124.983 1371 247 c 0,11,12
 1371 376.675 1371 376.675 1421 564.338 c 128,-1,13
 1471 752 1471 752 1517.5 885.5 c 128,-1,14
 1564 1019 1564 1019 1613 1140.5 c 1,15,-1
 1703 1369 l 1,16,17
 1554.71 1235.79 1554.71 1235.79 1327.5 810 c 1,18,-1
 1086.5 352.5 l 1,19,20
 892.365 -10 892.365 -10 809 -10 c 0,21,22
 727.64 -10 727.64 -10 698.5 60.5 c 0,23,24
 671 127.032 671 127.032 671 287.516 c 128,-1,25
 671 448 671 448 696.5 595.5 c 128,-1,26
 722 743 722 743 761 884.5 c 0,27,28
 829.476 1132.95 829.476 1132.95 937 1378 c 1,29,30
 831.777 1318.64 831.777 1318.64 704.5 1115 c 1,31,32
 606.219 951.641 606.219 951.641 566.109 877.32 c 2,33,-1
 308 401.5 l 1,34,35
 147.312 108.818 147.312 108.818 49 40 c 0,36,37
 -22.4286 -10 -22.4286 -10 -104 -10 c 0,38,39
 -174.486 -10 -174.486 -10 -205 34.5 c 0,40,41
 -217 52 -217 52 -217 67 c 128,-1,42
 -217 82 -217 82 -208 85 c 0,43,44
 -145.818 102.411 -145.818 102.411 -120.409 120.705 c 128,-1,45
 -95 139 -95 139 -70 158.5 c 128,-1,46
 -45 178 -45 178 3 241.5 c 128,-1,47
 51 305 51 305 107 394.5 c 128,-1,48
 163 484 163 484 224.5 595 c 1,49,-1
 351 829 l 1,50,51
 526.507 1169.27 526.507 1169.27 719 1374.5 c 0,52,53
 787 1447 787 1447 853 1487 c 1,54,55
 918.99 1533.74 918.99 1533.74 1006.5 1550.5 c 0,56,57
 1030 1555 1030 1555 1050.5 1555 c 128,-1,58
 1071 1555 1071 1555 1096.5 1549 c 128,-1,59
 1122 1543 1122 1543 1141 1530 c 0,60,61
 1184.85 1499.99 1184.85 1499.99 1167 1450 c 1,62,63
 1159 1420 1159 1420 1136 1360.5 c 2,64,-1
 1082.5 1217 l 1,65,66
 893.1 695.375 893.1 695.375 875 267 c 1,67,68
 928 358 928 358 982.5 466.5 c 2,69,-1
 1095 689 l 1,70,-1
 1214 916 l 1,71,72
 1489.27 1425.93 1489.27 1425.93 1725 1500.5 c 0,73,74
 1774 1516 1774 1516 1807 1516 c 128,-1,75
 1840 1516 1840 1516 1859 1507.5 c 128,-1,76
 1878 1499 1878 1499 1893 1485.5 c 0,77,78
 1928 1454 1928 1454 1917 1420.5 c 128,-1,79
 1906 1387 1906 1387 1887.5 1335 c 2,80,-1
 1743 912.5 l 1,81,-1
 1691 746 l 1,82,83
 1605.17 457.609 1605.17 457.609 1589 304 c 0,84,85
 1583 239 1583 239 1603.5 202.5 c 128,-1,86
 1624 166 1624 166 1660 166 c 128,-1,87
 1696 166 1696 166 1716.5 171.5 c 128,-1,88
 1737 177 1737 177 1752 184 c 2,89,-1
 1778 196.5 l 2,90,91
 1789 202 1789 202 1798 202 c 0,0,1
EndSplineSet
EndChar

StartChar: N
Encoding: 78 78 44
Width: 1450
Flags: HW
LayerCount: 2
Fore
SplineSet
1071 103 m 2,0,-1
 1072 70 l 1,1,2
 1072 36 1072 36 1053 17 c 128,-1,3
 1034 -2 1034 -2 1001.5 -2 c 128,-1,4
 969 -2 969 -2 929 25 c 128,-1,5
 889 52 889 52 844 116 c 128,-1,6
 799 180 799 180 755 290.5 c 128,-1,7
 711 401 711 401 682 525.5 c 0,8,9
 624 774.5 624 774.5 624 1045 c 0,10,11
 624 1180 624 1180 639 1302 c 1,12,-1
 626 1284 l 1,13,14
 440.386 1018.23 440.386 1018.23 295.5 485.5 c 0,15,16
 228.065 237.548 228.065 237.548 202 19 c 0,17,18
 197.714 -11 197.714 -11 153 -11 c 0,19,20
 81.7059 -11 81.7059 -11 50 62.5 c 0,21,22
 39 88 39 88 39 135 c 128,-1,23
 39 182 39 182 56.5 272.5 c 128,-1,24
 74 363 74 363 105 472.5 c 128,-1,25
 136 582 136 582 180 703.5 c 128,-1,26
 224 825 224 825 276.5 944 c 128,-1,27
 329 1063 329 1063 389.5 1171 c 128,-1,28
 450 1279 450 1279 514.5 1362 c 0,29,30
 656.292 1544.46 656.292 1544.46 780 1550 c 0,31,32
 848.12 1553.59 848.12 1553.59 866 1529 c 0,33,34
 886.489 1500.83 886.489 1500.83 869.744 1432.91 c 0,35,36
 841 1316.33 841 1316.33 841 1201.16 c 128,-1,37
 841 1086 841 1086 846.5 1007 c 128,-1,38
 852 928 852 928 862 848.5 c 128,-1,39
 872 769 872 769 886.5 691 c 128,-1,40
 901 613 901 613 918.5 541.5 c 0,41,42
 956.521 386.159 956.521 386.159 997 296 c 1,43,44
 1029 379 1029 379 1067 462.5 c 2,45,-1
 1216.5 790 l 1,46,47
 1340 1068.31 1340 1068.31 1340 1236 c 0,48,49
 1340 1394.5 1340 1394.5 1275 1427 c 1,50,51
 1258.59 1434.03 1258.59 1434.03 1255.3 1453.02 c 128,-1,52
 1252 1472 1252 1472 1262.5 1491 c 128,-1,53
 1273 1510 1273 1510 1290.5 1524.5 c 0,54,55
 1329.72 1557 1329.72 1557 1378.36 1557 c 128,-1,56
 1427 1557 1427 1557 1468 1536.5 c 128,-1,57
 1509 1516 1509 1516 1535.5 1482.5 c 0,58,59
 1587 1417.4 1587 1417.4 1587 1328.7 c 128,-1,60
 1587 1240 1587 1240 1556.5 1145.5 c 128,-1,61
 1526 1051 1526 1051 1478 948.5 c 128,-1,62
 1430 846 1430 846 1371 739.5 c 2,63,-1
 1255.5 529.5 l 2,64,65
 1119.11 279.65 1119.11 279.65 1078 150 c 0,66,67
 1071 130.4 1071 130.4 1071 103 c 2,0,-1
EndSplineSet
EndChar

StartChar: O
Encoding: 79 79 45
Width: 1342
Flags: HW
LayerCount: 2
Fore
SplineSet
118.5 456.5 m 0,0,1
 122 576 122 576 155.5 708.5 c 128,-1,2
 189 841 189 841 247 964 c 128,-1,3
 305 1087 305 1087 384.5 1195 c 128,-1,4
 464 1303 464 1303 559 1383 c 0,5,6
 763.25 1555 763.25 1555 987 1555 c 0,7,8
 1259.39 1555 1259.39 1555 1342.5 1308.5 c 0,9,10
 1372 1221 1372 1221 1368.5 1093.5 c 128,-1,11
 1365 966 1365 966 1329.5 834 c 128,-1,12
 1294 702 1294 702 1233.5 579 c 128,-1,13
 1173 456 1173 456 1092 348.5 c 128,-1,14
 1011 241 1011 241 916.5 161.5 c 0,15,16
 712.642 -9.99998 712.642 -9.99998 510 -10 c 0,17,18
 327.69 -10 327.69 -10 221 109 c 0,19,20
 111.887 230.703 111.887 230.703 118.5 456.5 c 0,0,1
361.5 603 m 128,-1,22
 330 482 330 482 327.5 397.5 c 128,-1,23
 325 313 325 313 337.5 266.5 c 128,-1,24
 350 220 350 220 373 187.5 c 0,25,26
 420.769 120 420.769 120 496.385 120 c 128,-1,27
 572 120 572 120 648 169 c 128,-1,28
 724 218 724 218 795.5 300 c 128,-1,29
 867 382 867 382 931.5 489 c 128,-1,30
 996 596 996 596 1045 712.5 c 0,31,32
 1186.7 1049.39 1186.7 1049.39 1149 1268.5 c 0,33,34
 1122.94 1420 1122.94 1420 983 1420 c 0,35,36
 855.132 1420 855.132 1420 698 1246.5 c 0,37,38
 550.378 1083.5 550.378 1083.5 444 840.5 c 0,39,21
 393 724 393 724 361.5 603 c 128,-1,22
EndSplineSet
EndChar

StartChar: P
Encoding: 80 80 46
Width: 1134
Flags: HW
LayerCount: 2
Fore
SplineSet
146.622 62.5 m 128,-1,1
 75.2432 -7 75.2432 -7 7.5 -7 c 0,2,3
 -25.6316 -7 -25.6316 -7 -43.3158 9 c 0,4,5
 -72 34.9524 -72 34.9524 -72 57.9762 c 128,-1,6
 -72 81 -72 81 -57 92 c 0,7,8
 94.095 201.303 94.095 201.303 278 732 c 1,9,-1
 337 900 l 2,10,11
 439.018 1188.47 439.018 1188.47 510 1257 c 1,12,13
 535 1276 535 1276 562 1276 c 128,-1,14
 589 1276 589 1276 609 1267.5 c 128,-1,15
 629 1259 629 1259 644.5 1245.5 c 0,16,17
 678 1216.32 678 1216.32 678 1176 c 0,18,19
 678 1161.4 678 1161.4 664 1133.2 c 128,-1,20
 650 1105 650 1105 632.5 1060 c 1,21,-1
 505 707 l 1,22,23
 747.685 751.3 747.685 751.3 906 908.5 c 0,24,25
 1054 1055.46 1054 1055.46 1054 1210 c 0,26,27
 1054 1356.76 1054 1356.76 922.5 1403 c 0,28,29
 877 1419 877 1419 817.5 1419 c 128,-1,30
 758 1419 758 1419 696 1404 c 128,-1,31
 634 1389 634 1389 574.5 1365 c 0,32,33
 452.981 1315.98 452.981 1315.98 376 1250 c 1,34,35
 356 1231 356 1231 332 1231 c 128,-1,36
 308 1231 308 1231 287 1241 c 128,-1,37
 266 1251 266 1251 249.5 1267 c 0,38,39
 213 1302.39 213 1302.39 213 1338.7 c 128,-1,40
 213 1375 213 1375 239 1404 c 128,-1,41
 265 1433 265 1433 308 1456.5 c 128,-1,42
 351 1480 351 1480 407 1498.5 c 128,-1,43
 463 1517 463 1517 522 1529.5 c 0,44,45
 642.36 1555 642.36 1555 760.68 1555 c 128,-1,46
 879 1555 879 1555 977.5 1525.5 c 128,-1,47
 1076 1496 1076 1496 1140.5 1446 c 0,48,49
 1269 1346.39 1269 1346.39 1269 1192 c 2,50,-1
 1269 1176 l 1,51,52
 1259.54 986.85 1259.54 986.85 1125.5 843 c 0,53,54
 1008.95 717.919 1008.95 717.919 824 645.5 c 0,55,56
 656.723 580 656.723 580 508 580 c 2,57,-1
 481.5 580 l 2,58,59
 469 580 469 580 457 582 c 1,60,61
 366.602 354.904 366.602 354.904 292.301 243.452 c 128,-1,0
 218 132 218 132 146.622 62.5 c 128,-1,1
EndSplineSet
EndChar

StartChar: Q
Encoding: 81 81 47
Width: 1342
Flags: HW
LayerCount: 2
Fore
SplineSet
455 -10 m 1,0,-1
 334 -21 l 1,1,2
 291.5 -21 291.5 -21 276.75 9 c 128,-1,3
 262 39 262 39 276 55.5 c 128,-1,4
 290 72 290 72 324.5 86 c 128,-1,5
 359 100 359 100 409 116 c 128,-1,6
 459 132 459 132 522 162 c 128,-1,7
 585 192 585 192 658 252.5 c 128,-1,8
 731 313 731 313 801 393.5 c 128,-1,9
 871 474 871 474 934 571 c 128,-1,10
 997 668 997 668 1044 773 c 0,11,12
 1147 1003.11 1147 1003.11 1147 1203 c 0,13,14
 1147 1425 1147 1425 977 1425 c 0,15,16
 850.298 1425 850.298 1425 705.5 1290 c 0,17,18
 571.359 1164.94 571.359 1164.94 477.5 973 c 0,19,20
 382 777.708 382 777.708 382 607 c 0,21,22
 382 516.714 382 516.714 404 470.357 c 0,23,24
 432.849 409.569 432.849 409.569 487 346 c 1,25,26
 490 340 490 340 490 328.5 c 128,-1,27
 490 317 490 317 479.5 299 c 128,-1,28
 469 281 469 281 451.5 265.5 c 0,29,30
 409.161 228 409.161 228 366.081 228 c 128,-1,31
 323 228 323 228 285.5 254.5 c 128,-1,32
 248 281 248 281 219.5 325.5 c 0,33,34
 157 423.088 157 423.088 157 547.044 c 128,-1,35
 157 671 157 671 187 794 c 128,-1,36
 217 917 217 917 270.5 1029 c 128,-1,37
 324 1141 324 1141 399.5 1237.5 c 128,-1,38
 475 1334 475 1334 566 1404.5 c 0,39,40
 760.262 1555 760.262 1555 977 1555 c 0,41,42
 1240.43 1555 1240.43 1555 1326 1304 c 0,43,44
 1356 1216 1356 1216 1356 1102.5 c 128,-1,45
 1356 989 1356 989 1326.5 886 c 128,-1,46
 1297 783 1297 783 1247 685 c 128,-1,47
 1197 587 1197 587 1131.5 497 c 128,-1,48
 1066 407 1066 407 994.5 332 c 0,49,50
 849.326 179.719 849.326 179.719 712 110 c 1,51,52
 798.485 84.2063 798.485 84.2063 894.242 27.1031 c 1,53,-1
 1043 -63.5 l 1,54,55
 1164.8 -140.488 1164.8 -140.488 1232.4 -163.244 c 128,-1,56
 1300 -186 1300 -186 1335.5 -186 c 128,-1,57
 1371 -186 1371 -186 1386 -179 c 128,-1,58
 1401 -172 1401 -172 1412 -163.5 c 2,59,-1
 1432 -148 l 2,60,61
 1441 -141 1441 -141 1451 -141 c 0,62,63
 1478 -141 1478 -141 1478 -180 c 128,-1,64
 1478 -219 1478 -219 1463.5 -248 c 128,-1,65
 1449 -277 1449 -277 1422 -300.5 c 0,66,67
 1360.53 -354 1360.53 -354 1267.77 -354 c 128,-1,68
 1175 -354 1175 -354 1103 -328.5 c 128,-1,69
 1031 -303 1031 -303 970 -265 c 128,-1,70
 909 -227 909 -227 853.5 -182 c 128,-1,71
 798 -137 798 -137 738.5 -99 c 0,72,73
 599.145 -9.99998 599.145 -9.99998 455 -10 c 1,0,-1
EndSplineSet
EndChar

StartChar: R
Encoding: 82 82 48
Width: 1276
Flags: HW
LayerCount: 2
Fore
SplineSet
1071 1210 m 0,0,1
 1071 1409 1071 1409 808 1409 c 0,2,3
 642.966 1409 642.966 1409 474 1309 c 0,4,5
 425 1280 425 1280 397.5 1255.5 c 128,-1,6
 370 1231 370 1231 345 1231 c 128,-1,7
 320 1231 320 1231 297 1243.5 c 128,-1,8
 274 1256 274 1256 256.5 1275 c 0,9,10
 189.53 1347.71 189.53 1347.71 270 1416.5 c 0,11,12
 389.747 1518.86 389.747 1518.86 668.5 1549 c 0,13,14
 724 1555 724 1555 810 1555 c 128,-1,15
 896 1555 896 1555 991.5 1524 c 128,-1,16
 1087 1493 1087 1493 1151.5 1440 c 0,17,18
 1282 1332.77 1282 1332.77 1282 1167 c 0,19,20
 1282 970.224 1282 970.224 1102.5 807.5 c 0,21,22
 946.372 665.963 946.372 665.963 733 605 c 1,23,24
 790.818 556.818 790.818 556.818 841.909 467.409 c 1,25,-1
 922 324 l 1,26,27
 1026.93 128.614 1026.93 128.614 1110 112 c 0,28,29
 1139.47 106.642 1139.47 106.642 1170.23 113.821 c 128,-1,30
 1201 121 1201 121 1210.5 120.5 c 128,-1,31
 1220 120 1220 120 1223.5 104 c 128,-1,32
 1227 88 1227 88 1215 64 c 128,-1,33
 1203 40 1203 40 1176.5 19 c 0,34,35
 1112.88 -31.4185 1112.88 -31.4185 1037.94 -25.7092 c 128,-1,36
 963 -20 963 -20 916.5 5.5 c 128,-1,37
 870 31 870 31 833.5 70 c 128,-1,38
 797 109 797 109 768.5 157 c 128,-1,39
 740 205 740 205 716 255 c 2,40,-1
 671 353 l 2,41,42
 650 401 650 401 632 435.5 c 128,-1,43
 614 470 614 470 601 498.5 c 128,-1,44
 588 527 588 527 572.5 550.5 c 0,45,46
 538.385 602.223 538.385 602.223 485 616 c 1,47,48
 274.9 75.7428 274.9 75.7428 58 0 c 0,49,50
 40 -7 40 -7 21.5 -7 c 128,-1,51
 3 -7 3 -7 -12 -0.5 c 128,-1,52
 -27 6 -27 6 -37 15.5 c 0,53,54
 -58 35.45 -58 35.45 -58 58.225 c 128,-1,55
 -58 81 -58 81 -43 92 c 0,56,57
 107.276 200.71 107.276 200.71 290 728 c 1,58,-1
 349.5 897 l 2,59,60
 453.133 1188.58 453.133 1188.58 524 1257 c 1,61,62
 549 1276 549 1276 576 1276 c 128,-1,63
 603 1276 603 1276 623 1267.5 c 128,-1,64
 643 1259 643 1259 658.5 1245.5 c 0,65,66
 692 1216.32 692 1216.32 692 1185.16 c 128,-1,67
 692 1154 692 1154 678.5 1129.5 c 128,-1,68
 665 1105 665 1105 647.5 1061 c 0,69,70
 598.93 932.775 598.93 932.775 572.465 856.387 c 2,71,-1
 521 712 l 1,72,73
 733.945 740.184 733.945 740.184 898 879 c 0,74,75
 1071 1025.38 1071 1025.38 1071 1210 c 0,0,1
EndSplineSet
EndChar

StartChar: S
Encoding: 83 83 49
Width: 971
Flags: HW
LayerCount: 2
Fore
SplineSet
252 389 m 1,0,-1
 243 312 l 1,1,2
 243 191.455 243 191.455 324.5 147 c 0,3,4
 352 132 352 132 391 132 c 128,-1,5
 430 132 430 132 461 145.5 c 128,-1,6
 492 159 492 159 512.5 181 c 0,7,8
 554 225.537 554 225.537 554 284.768 c 128,-1,9
 554 344 554 344 530 392 c 128,-1,10
 506 440 506 440 469.5 487.5 c 1,11,-1
 390.5 585.5 l 1,12,13
 292.507 701.939 292.507 701.939 259.753 797.47 c 128,-1,14
 227 893 227 893 227 973 c 128,-1,15
 227 1053 227 1053 246.5 1124.5 c 128,-1,16
 266 1196 266 1196 301 1260.5 c 128,-1,17
 336 1325 336 1325 385 1379 c 128,-1,18
 434 1433 434 1433 493.5 1472.5 c 0,19,20
 619.279 1556 619.279 1556 742.139 1556 c 128,-1,21
 865 1556 865 1556 934 1522 c 128,-1,22
 1003 1488 1003 1488 1045 1435.5 c 0,23,24
 1123 1338 1123 1338 1123 1199 c 0,25,26
 1123 1070.06 1123 1070.06 1050 956 c 0,27,28
 983.288 851.763 983.288 851.763 900 824 c 1,29,30
 882 815 882 815 850.5 815 c 128,-1,31
 819 815 819 815 797.5 824.5 c 128,-1,32
 776 834 776 834 760 850 c 0,33,34
 725 885 725 885 725 926 c 0,35,36
 725 953.727 725 953.727 742 963 c 0,37,38
 818.303 1004.42 818.303 1004.42 874 1082 c 0,39,40
 935.168 1167.2 935.168 1167.2 938.084 1251.6 c 128,-1,41
 941 1336 941 1336 897.5 1376.5 c 128,-1,42
 854 1417 854 1417 782 1417 c 128,-1,43
 710 1417 710 1417 652 1384.5 c 128,-1,44
 594 1352 594 1352 552 1297 c 0,45,46
 462 1179.14 462 1179.14 462 1018 c 0,47,48
 462 911 462 911 535.5 792 c 0,49,50
 567 741 567 741 603.5 691.5 c 128,-1,51
 640 642 640 642 671.5 590 c 0,52,53
 745 468.667 745 468.667 745 372.833 c 128,-1,54
 745 277 745 277 710.5 211 c 128,-1,55
 676 145 676 145 619 96 c 0,56,57
 495.694 -10 495.694 -10 339 -10 c 0,58,59
 191.24 -10 191.24 -10 111 78.5 c 0,60,61
 47 149.088 47 149.088 47 232 c 0,62,63
 47 321.571 47 321.571 98 383.5 c 0,64,65
 136.94 430.784 136.94 430.784 173.47 440.392 c 0,66,67
 252 461.047 252 461.047 252 389 c 1,0,-1
EndSplineSet
EndChar

StartChar: T
Encoding: 84 84 50
Width: 966
Flags: HW
LayerCount: 2
Fore
SplineSet
1151.5 1335.5 m 128,-1,1
 1113 1325 1113 1325 1048.75 1325 c 128,-1,2
 984.5 1325 984.5 1325 881 1334 c 1,3,4
 857 1269 857 1269 831.5 1181.5 c 2,5,-1
 717 790 l 1,6,7
 504.365 85.6455 504.365 85.6455 263 0 c 0,8,9
 245.5 -7 245.5 -7 219.25 -7 c 128,-1,10
 193 -7 193 -7 176.5 -0.5 c 128,-1,11
 160 6 160 6 149 15.5 c 0,12,13
 127 34.5 127 34.5 127 52.25 c 128,-1,14
 127 70 127 70 136 75.5 c 2,15,-1
 162 92 l 1,16,17
 306.397 185.858 306.397 185.858 425.5 591.5 c 2,18,-1
 497.5 836 l 2,19,20
 594.691 1165.15 594.691 1165.15 679 1353 c 1,21,22
 599.667 1360 599.667 1360 559.333 1360 c 0,23,24
 440.562 1360 440.562 1360 389 1327 c 0,25,26
 337.932 1294.32 337.932 1294.32 317.466 1255.66 c 128,-1,27
 297 1217 297 1217 295.5 1201.5 c 0,28,29
 292.818 1173.79 292.818 1173.79 277.909 1166.39 c 128,-1,30
 263 1159 263 1159 241.5 1159 c 128,-1,31
 220 1159 220 1159 197 1174.5 c 128,-1,32
 174 1190 174 1190 159 1213.5 c 0,33,34
 127.42 1262.97 127.42 1262.97 134.21 1324.49 c 128,-1,35
 141 1386 141 1386 174.5 1430.5 c 128,-1,36
 208 1475 208 1475 254 1503 c 0,37,38
 339.429 1555 339.429 1555 433.714 1555 c 128,-1,39
 528 1555 528 1555 612.5 1545.5 c 128,-1,40
 697 1536 697 1536 781 1524.5 c 0,41,42
 1003.78 1494 1003.78 1494 1064.89 1494 c 128,-1,43
 1126 1494 1126 1494 1155.5 1501 c 128,-1,44
 1185 1508 1185 1508 1206 1522 c 128,-1,45
 1227 1536 1227 1536 1235.5 1540.5 c 128,-1,46
 1244 1545 1244 1545 1263 1545 c 0,47,48
 1292.56 1545 1292.56 1545 1288.78 1499.5 c 128,-1,49
 1285 1454 1285 1454 1267 1421.5 c 128,-1,50
 1249 1389 1249 1389 1219.5 1367.5 c 128,-1,0
 1190 1346 1190 1346 1151.5 1335.5 c 128,-1,1
EndSplineSet
EndChar

StartChar: U
Encoding: 85 85 51
Width: 1279
Flags: HW
LayerCount: 2
Fore
SplineSet
1031 262 m 0,0,1
 1031 166 1031 166 1102 166 c 0,2,3
 1144.27 166 1144.27 166 1178.64 184 c 128,-1,4
 1213 202 1213 202 1223 202 c 0,5,6
 1244 202 1244 202 1244 180.5 c 0,7,8
 1244 92.4259 1244 92.4259 1150 31.5 c 0,9,10
 1085.97 -9.99999 1085.97 -9.99999 1027.99 -10 c 128,-1,11
 970 -10 970 -10 934.5 3.5 c 128,-1,12
 899 17 899 17 873 45.5 c 0,13,14
 818 105.788 818 105.788 818 225 c 0,15,16
 818 318.613 818 318.613 853 442.806 c 128,-1,17
 888 567 888 567 904 619 c 1,18,-1
 800.5 461 l 1,19,20
 477.442 -10 477.442 -10 255 -10 c 0,21,22
 104.134 -10 104.134 -10 56.5 116 c 0,23,24
 41 157 41 157 41 187.5 c 2,25,-1
 41 226.5 l 2,26,27
 41 351.685 41 351.685 181.5 688.5 c 1,28,-1
 389.5 1171.5 l 1,29,30
 450 1315.6 450 1315.6 450 1349.8 c 128,-1,31
 450 1384 450 1384 438 1401 c 128,-1,32
 426 1418 426 1418 411 1428.5 c 2,33,-1
 384 1447.5 l 2,34,35
 372 1456 372 1456 372 1472 c 128,-1,36
 372 1488 372 1488 388 1504 c 128,-1,37
 404 1520 404 1520 429.5 1531.5 c 0,38,39
 481.609 1555 481.609 1555 532.304 1555 c 128,-1,40
 583 1555 583 1555 610.5 1544.5 c 128,-1,41
 638 1534 638 1534 656 1517.5 c 0,42,43
 691 1485.42 691 1485.42 691 1438.71 c 128,-1,44
 691 1392 691 1392 673.5 1329 c 128,-1,45
 656 1266 656 1266 627.5 1191.5 c 128,-1,46
 599 1117 599 1117 562 1034.5 c 2,47,-1
 410 699.5 l 2,48,49
 265 380.882 265 380.882 265 277.5 c 2,50,-1
 265 263 l 2,51,52
 265 168 265 168 337 168 c 0,53,54
 469.403 168 469.403 168 680.5 499 c 0,55,56
 743 597 743 597 805.5 706 c 1,57,-1
 928 929.5 l 1,58,59
 1190.34 1437.26 1190.34 1437.26 1230 1508 c 0,60,61
 1249.8 1544 1249.8 1544 1286.9 1544 c 128,-1,62
 1324 1544 1324 1544 1349 1533.5 c 128,-1,63
 1374 1523 1374 1523 1392 1506 c 0,64,65
 1434.08 1466.25 1434.08 1466.25 1413 1426 c 0,66,67
 1318.29 1244.94 1318.29 1244.94 1181.5 847 c 0,68,69
 1031 409.182 1031 409.182 1031 262 c 0,0,1
EndSplineSet
EndChar

StartChar: V
Encoding: 86 86 52
Width: 1203
Flags: HW
LayerCount: 2
Fore
SplineSet
129 186.5 m 128,-1,1
 118 235 118 235 118 288.5 c 128,-1,2
 118 342 118 342 136.5 430 c 128,-1,3
 155 518 155 518 187 615.5 c 128,-1,4
 219 713 219 713 261.5 815 c 128,-1,5
 304 917 304 917 351.5 1014.5 c 0,6,7
 449.614 1215.89 449.614 1215.89 547 1364 c 1,8,-1
 536 1364 l 2,9,10
 416.769 1364 416.769 1364 315 1310 c 1,11,12
 290 1291 290 1291 267 1291 c 256,13,14
 218.683 1291 218.683 1291 173.5 1338.5 c 0,15,16
 69.7785 1447.54 69.7785 1447.54 297.5 1520.5 c 0,17,18
 405.182 1555 405.182 1555 470.591 1555 c 128,-1,19
 536 1555 536 1555 576 1534.5 c 128,-1,20
 616 1514 616 1514 644.5 1485.5 c 0,21,22
 687.545 1442.45 687.545 1442.45 706.273 1399.23 c 128,-1,23
 725 1356 725 1356 725 1323.5 c 128,-1,24
 725 1291 725 1291 705.5 1236.5 c 128,-1,25
 686 1182 686 1182 655.5 1119.5 c 1,26,-1
 588.5 988 l 1,27,28
 552 919 552 919 516 843 c 128,-1,29
 480 767 480 767 444 691 c 128,-1,30
 408 615 408 615 380.5 543 c 0,31,32
 319 381.982 319 381.982 319 270 c 0,33,34
 319 201.875 319 201.875 332 158 c 1,35,36
 376 228 376 228 440.5 304 c 1,37,-1
 579.5 461 l 1,38,39
 822.567 722.885 822.567 722.885 896.283 809.442 c 0,40,41
 1067.42 1010.39 1067.42 1010.39 1158 1188 c 0,42,43
 1195 1259 1195 1259 1195 1317 c 0,44,45
 1195 1423.92 1195 1423.92 1136 1478 c 1,46,47
 1114.56 1499.44 1114.56 1499.44 1130.28 1529.22 c 128,-1,48
 1146 1559 1146 1559 1162.5 1574 c 0,49,50
 1201 1609 1201 1609 1250 1609 c 128,-1,51
 1299 1609 1299 1609 1333 1589 c 128,-1,52
 1367 1569 1367 1569 1388.5 1538 c 0,53,54
 1431 1476.72 1431 1476.72 1431 1386.36 c 128,-1,55
 1431 1296 1431 1296 1392.5 1195 c 128,-1,56
 1354 1094 1354 1094 1291.5 997.5 c 128,-1,57
 1229 901 1229 901 1149.5 810.5 c 128,-1,58
 1070 720 1070 720 987 638 c 1,59,-1
 685 353 l 1,60,61
 548.268 214.996 548.268 214.996 502.134 164.498 c 0,62,63
 414.493 65.7873 414.493 65.7873 389.247 34.8936 c 128,-1,64
 364 4 364 4 344 -2 c 128,-1,65
 324 -8 324 -8 290 -8 c 128,-1,66
 256 -8 256 -8 220.5 22 c 128,-1,67
 185 52 185 52 162.5 95 c 128,-1,0
 140 138 140 138 129 186.5 c 128,-1,1
EndSplineSet
EndChar

StartChar: W
Encoding: 87 87 53
Width: 1928
Flags: HW
LayerCount: 2
Fore
SplineSet
354 21 m 2,0,1
 333.529 -7.99999 333.529 -7.99999 283.265 -7.99999 c 128,-1,2
 233 -8 233 -8 198 20 c 128,-1,3
 163 48 163 48 140 90 c 0,4,5
 94 174 94 174 94 258 c 128,-1,6
 94 342 94 342 112.5 430 c 128,-1,7
 131 518 131 518 163 615.5 c 128,-1,8
 195 713 195 713 237.5 815 c 128,-1,9
 280 917 280 917 327.5 1014.5 c 0,10,11
 425.614 1215.89 425.614 1215.89 523 1364 c 1,12,-1
 512 1364 l 2,13,14
 392.769 1364 392.769 1364 291 1310 c 1,15,16
 266 1291 266 1291 243 1291 c 256,17,18
 194.683 1291 194.683 1291 149.5 1338.5 c 0,19,20
 45.7784 1447.54 45.7784 1447.54 273.5 1520.5 c 0,21,22
 381.182 1555 381.182 1555 446.591 1555 c 128,-1,23
 512 1555 512 1555 552 1534.5 c 128,-1,24
 592 1514 592 1514 620.5 1485.5 c 0,25,26
 663.545 1442.45 663.545 1442.45 682.273 1399.23 c 128,-1,27
 701 1356 701 1356 701 1323.5 c 128,-1,28
 701 1291 701 1291 681.5 1236.5 c 128,-1,29
 662 1182 662 1182 631.5 1119.5 c 1,30,-1
 564.5 988 l 1,31,32
 528 919 528 919 492 843 c 128,-1,33
 456 767 456 767 420 691 c 128,-1,34
 384 615 384 615 356.5 543 c 0,35,36
 295 381.982 295 381.982 295 270 c 0,37,38
 295 207.571 295 207.571 307 163 c 1,39,-1
 412.5 338.5 l 1,40,41
 732.181 853.688 732.181 853.688 1043.5 1114 c 0,42,43
 1132 1188 1132 1188 1218 1230 c 0,44,45
 1232 1237 1232 1237 1251 1237 c 128,-1,46
 1270 1237 1270 1237 1291.5 1232.5 c 128,-1,47
 1313 1228 1313 1228 1332 1219 c 0,48,49
 1376 1198.16 1376 1198.16 1376 1168 c 0,50,51
 1376 1154 1376 1154 1365.5 1142 c 2,52,-1
 1331 1104 l 1,53,54
 1130.86 891.54 1130.86 891.54 1061.5 512.5 c 0,55,56
 1040 395 1040 395 1040 326.5 c 128,-1,57
 1040 258 1040 258 1044 233 c 128,-1,58
 1048 208 1048 208 1059.5 186.5 c 0,59,60
 1086.51 136 1086.51 136 1140.76 136 c 128,-1,61
 1195 136 1195 136 1261 176 c 128,-1,62
 1327 216 1327 216 1394.5 286 c 128,-1,63
 1462 356 1462 356 1525.5 450.5 c 128,-1,64
 1589 545 1589 545 1638.5 653 c 0,65,66
 1748 891.909 1748 891.909 1748 1109 c 0,67,68
 1748 1275.71 1748 1275.71 1674 1392 c 0,69,70
 1654.42 1422.46 1654.42 1422.46 1713 1470.5 c 0,71,72
 1773.37 1520 1773.37 1520 1848 1520 c 0,73,74
 1947.2 1520 1947.2 1520 1982.5 1343.5 c 0,75,76
 1994 1286 1994 1286 1994 1192 c 128,-1,77
 1994 1098 1994 1098 1971 985 c 128,-1,78
 1948 872 1948 872 1906.5 764.5 c 128,-1,79
 1865 657 1865 657 1808.5 558 c 128,-1,80
 1752 459 1752 459 1685 373 c 128,-1,81
 1618 287 1618 287 1543 216.5 c 128,-1,82
 1468 146 1468 146 1390.5 95.5 c 0,83,84
 1228.59 -9.99996 1228.59 -9.99996 1085 -10 c 0,85,86
 953.368 -10 953.368 -10 888 93.5 c 0,87,88
 831 183.75 831 183.75 831 323.375 c 0,89,90
 831 553.205 831 553.205 920 770 c 1,91,92
 837 677 837 677 758.5 578 c 1,93,94
 562.495 322.086 562.495 322.086 485.247 211.043 c 2,95,-1
 354 21 l 2,0,1
EndSplineSet
EndChar

StartChar: X
Encoding: 88 88 54
Width: 1132
Flags: HW
LayerCount: 2
Fore
SplineSet
859 -10 m 0,0,1
 589.367 -10 589.367 -10 478 504 c 1,2,3
 365.186 332.959 365.186 332.959 217.5 176.5 c 0,4,5
 42.4019 -9 42.4019 -9 -60 -9 c 0,6,7
 -117.826 -9 -117.826 -9 -142.413 10.5 c 0,8,9
 -206.372 61.2263 -206.372 61.2263 -141.5 91.5 c 0,10,11
 -105.658 108.226 -105.658 108.226 -26.8288 174.113 c 128,-1,12
 52 240 52 240 128.5 319 c 0,13,14
 311.925 508.419 311.925 508.419 430 707 c 1,15,16
 391.5 883.46 391.5 883.46 379.25 1052.73 c 128,-1,17
 367 1222 367 1222 367 1262.5 c 0,18,19
 367 1327 367 1327 372 1362.5 c 128,-1,20
 377 1398 377 1398 398.5 1434.5 c 128,-1,21
 420 1471 420 1471 451.5 1498 c 0,22,23
 518 1555 518 1555 600 1555 c 0,24,25
 617 1555 617 1555 622.5 1546 c 128,-1,26
 628 1537 628 1537 628 1520 c 0,27,28
 628 1493.5 628 1493.5 618 1425.25 c 0,29,30
 598 1288.75 598 1288.75 598 1189.38 c 0,31,32
 598 1043.17 598 1043.17 611 911 c 1,33,-1
 795.5 1167.5 l 1,34,35
 1042.13 1505.66 1042.13 1505.66 1219 1546 c 0,36,37
 1230 1548 1230 1548 1243.5 1551.5 c 128,-1,38
 1257 1555 1257 1555 1277 1555 c 128,-1,39
 1297 1555 1297 1555 1323.5 1549 c 128,-1,40
 1350 1543 1350 1543 1369.5 1533 c 0,41,42
 1415.63 1509.34 1415.63 1509.34 1398 1478 c 0,43,44
 1395 1472 1395 1472 1382 1465.5 c 128,-1,45
 1369 1459 1369 1459 1347 1447 c 0,46,47
 1280.62 1410.79 1280.62 1410.79 1220 1362 c 1,48,49
 1057.1 1244.04 1057.1 1244.04 794 898.5 c 1,50,-1
 653 706 l 1,51,52
 741.661 302.994 741.661 302.994 874 192 c 0,53,54
 905 166 905 166 934 166 c 128,-1,55
 963 166 963 166 981 171.5 c 128,-1,56
 999 177 999 177 1013.5 184 c 2,57,-1
 1038.5 196.5 l 2,58,59
 1049 202 1049 202 1059 202 c 0,60,61
 1080 202 1080 202 1080 180.5 c 0,62,63
 1080 93.6078 1080 93.6078 989.5 31.5 c 0,64,65
 929.029 -10 929.029 -10 859 -10 c 0,0,1
EndSplineSet
EndChar

StartChar: Y
Encoding: 89 89 55
Width: 1189
Flags: HW
LayerCount: 2
Fore
SplineSet
259 263 m 2,0,1
 259 168 259 168 331 168 c 0,2,3
 463.403 168 463.403 168 674.5 499 c 0,4,5
 737 597 737 597 799.5 706 c 1,6,-1
 922 929.5 l 1,7,8
 1184.34 1437.26 1184.34 1437.26 1224 1508 c 0,9,10
 1243.8 1544 1243.8 1544 1280.9 1544 c 128,-1,11
 1318 1544 1318 1544 1343 1533.5 c 128,-1,12
 1368 1523 1368 1523 1386 1506 c 0,13,14
 1428.08 1466.25 1428.08 1466.25 1407 1426 c 0,15,16
 1336.76 1296.05 1336.76 1296.05 1276.88 1135.03 c 1,17,-1
 1027 438.5 l 1,18,19
 987 332 987 332 944 233.5 c 128,-1,20
 901 135 901 135 847.5 38 c 128,-1,21
 794 -59 794 -59 733 -147 c 128,-1,22
 672 -235 672 -235 605 -310.5 c 128,-1,23
 538 -386 538 -386 468 -441.5 c 0,24,25
 318.541 -560 318.541 -560 183 -560 c 0,26,27
 157 -560 157 -560 132 -548 c 128,-1,28
 107 -536 107 -536 102 -514 c 128,-1,29
 97 -492 97 -492 109 -484 c 128,-1,30
 121 -476 121 -476 141 -468 c 0,31,32
 417.341 -364.721 417.341 -364.721 661.5 81.5 c 0,33,34
 734 214 734 214 795 357 c 1,35,36
 865.158 542.309 865.158 542.309 885 599 c 1,37,-1
 783.5 445 l 1,38,39
 469.191 -9.99998 469.191 -9.99998 249 -10 c 0,40,41
 99.6463 -10 99.6463 -10 50.5 120 c 0,42,43
 35 161 35 161 35 190.5 c 2,44,-1
 35 227.5 l 2,45,46
 35 349.288 35 349.288 176.5 688.5 c 1,47,-1
 384 1171.5 l 1,48,49
 444 1317.06 444 1317.06 444 1350.53 c 128,-1,50
 444 1384 444 1384 432 1401 c 128,-1,51
 420 1418 420 1418 405 1428.5 c 2,52,-1
 378 1447.5 l 2,53,54
 366 1456 366 1456 366 1472 c 128,-1,55
 366 1488 366 1488 382 1504 c 128,-1,56
 398 1520 398 1520 423.5 1531.5 c 0,57,58
 475.609 1555 475.609 1555 526.304 1555 c 128,-1,59
 577 1555 577 1555 604.5 1544.5 c 128,-1,60
 632 1534 632 1534 650 1517.5 c 0,61,62
 685 1485.42 685 1485.42 685 1438.71 c 128,-1,63
 685 1392 685 1392 667.5 1329 c 128,-1,64
 650 1266 650 1266 621.5 1191.5 c 128,-1,65
 593 1117 593 1117 556 1034.5 c 2,66,-1
 404 699.5 l 2,67,68
 259 380.882 259 380.882 259 277.5 c 2,69,-1
 259 263 l 2,0,1
EndSplineSet
EndChar

StartChar: Z
Encoding: 90 90 56
Width: 1027
Flags: HW
LayerCount: 2
Fore
SplineSet
959 34 m 0,0,1
 959 -10 959 -10 922 -10 c 0,2,3
 899.5 -10 899.5 -10 875 4 c 1,4,5
 797.759 74 797.759 74 624 74 c 0,6,7
 450.727 74 450.727 74 298 32 c 1,8,-1
 221 11.5 l 2,9,10
 137.263 -10 137.263 -10 94.6316 -10 c 128,-1,11
 52 -10 52 -10 34.5 4.5 c 128,-1,12
 17 19 17 19 4 41 c 0,13,14
 -25 90.0769 -25 90.0769 -25 125.038 c 128,-1,15
 -25 160 -25 160 -13.5 190.5 c 128,-1,16
 -2 221 -2 221 43 290.5 c 128,-1,17
 88 360 88 360 151.5 443.5 c 128,-1,18
 215 527 215 527 293 620 c 1,19,-1
 454 807 l 1,20,-1
 778 1166 l 1,21,-1
 1016 1423 l 1,22,-1
 882.5 1372.5 l 2,23,24
 621.547 1273 621.547 1273 523.274 1273 c 128,-1,25
 425 1273 425 1273 371.5 1292 c 128,-1,26
 318 1311 318 1311 288 1358 c 1,27,28
 260 1395.33 260 1395.33 260 1507 c 0,29,30
 260 1553 260 1553 286 1554.5 c 128,-1,31
 312 1556 312 1556 333 1545.5 c 128,-1,32
 354 1535 354 1535 383 1522 c 0,33,34
 461.077 1487 461.077 1487 560.538 1487 c 128,-1,35
 660 1487 660 1487 735.5 1497.5 c 128,-1,36
 811 1508 811 1508 871.5 1521 c 2,37,-1
 978 1544.5 l 2,38,39
 1024 1555 1024 1555 1054 1555 c 128,-1,40
 1084 1555 1084 1555 1114 1535.5 c 128,-1,41
 1144 1516 1144 1516 1168.5 1489.5 c 0,42,43
 1225 1428.39 1225 1428.39 1225 1392.19 c 128,-1,44
 1225 1356 1225 1356 1188 1299 c 128,-1,45
 1151 1242 1151 1242 1088 1169 c 128,-1,46
 1025 1096 1025 1096 943 1011 c 0,47,48
 498.061 555.963 498.061 555.963 417.031 466.482 c 0,49,50
 233.584 263.903 233.584 263.903 167 143 c 1,51,52
 355.932 226.97 355.932 226.97 614 261.5 c 0,53,54
 685 271 685 271 725.5 271 c 128,-1,55
 766 271 766 271 793.5 266.5 c 128,-1,56
 821 262 821 262 845 249 c 0,57,58
 893.39 222.789 893.39 222.789 933 153 c 0,59,60
 959 105.333 959 105.333 959 34 c 0,0,1
EndSplineSet
EndChar

StartChar: ampersand
Encoding: 38 38 57
Width: 1154
Flags: HW
LayerCount: 2
Fore
SplineSet
1011 1313 m 0,0,1
 1011 1417 1011 1417 870 1417 c 0,2,3
 707.538 1417 707.538 1417 564 1261.5 c 0,4,5
 479.217 1169.65 479.217 1169.65 443.5 1062.5 c 0,6,7
 426 1010 426 1010 426 968 c 128,-1,8
 426 926 426 926 435.5 899.5 c 128,-1,9
 445 873 445 873 460 855.5 c 0,10,11
 490.975 819.363 490.975 819.363 532 828 c 1,12,13
 581.091 848 581.091 848 618.545 848 c 128,-1,14
 656 848 656 848 678.5 838.5 c 128,-1,15
 701 829 701 829 715.5 815 c 0,16,17
 744 787.483 744 787.483 744 760.741 c 0,18,19
 744 710 744 710 710 708 c 0,20,21
 667.231 704.578 667.231 704.578 606.616 678.789 c 128,-1,22
 546 653 546 653 490 612.5 c 128,-1,23
 434 572 434 572 389.5 521 c 0,24,25
 290 406.966 290 406.966 290 289 c 0,26,27
 290 166.422 290 166.422 387 125.5 c 0,28,29
 419 112 419 112 466 112 c 128,-1,30
 513 112 513 112 557.5 132.5 c 128,-1,31
 602 153 602 153 635 184.5 c 0,32,33
 705.861 252.14 705.861 252.14 708 327 c 0,34,35
 710.168 422.391 710.168 422.391 629.5 446 c 0,36,37
 609 452 609 452 596.5 459.5 c 128,-1,38
 584 467 584 467 589.5 484 c 128,-1,39
 595 501 595 501 611.5 518.5 c 0,40,41
 654.4 564 654.4 564 705 564 c 0,42,43
 728.091 564 728.091 564 773.545 554 c 0,44,45
 859.909 535 859.909 535 899 535 c 256,46,47
 981.231 535 981.231 535 1028.12 546.5 c 128,-1,48
 1075 558 1075 558 1105.5 566.5 c 0,49,50
 1159 581.41 1159 581.41 1159 541.205 c 128,-1,51
 1159 501 1159 501 1137 467.5 c 128,-1,52
 1115 434 1115 434 1077.5 409 c 0,53,54
 997.949 355.966 997.949 355.966 882 358 c 1,55,56
 885 343 885 343 885 328 c 0,57,58
 885 272 885 272 848 212 c 128,-1,59
 811 152 811 152 748 102.5 c 0,60,61
 604.818 -10 604.818 -10 421 -10 c 0,62,63
 239 -10 239 -10 144.5 91.5 c 0,64,65
 69 172.593 69 172.593 69 282 c 0,66,67
 69 499.909 69 499.909 249 669 c 0,68,69
 310.371 726.652 310.371 726.652 365 749 c 1,70,71
 257.986 794.4 257.986 794.4 222.5 924 c 0,72,73
 211 966 211 966 211 1022 c 128,-1,74
 211 1078 211 1078 233 1143.5 c 128,-1,75
 255 1209 255 1209 295.5 1269 c 128,-1,76
 336 1329 336 1329 392.5 1381.5 c 128,-1,77
 449 1434 449 1434 518.5 1472.5 c 0,78,79
 669.234 1556 669.234 1556 835 1556 c 0,80,81
 1002.79 1556 1002.79 1556 1092 1456.5 c 0,82,83
 1165 1375.08 1165 1375.08 1165 1259 c 0,84,85
 1165 1136.78 1165 1136.78 1062.5 1017 c 0,86,87
 961.519 899 961.519 899 870 899 c 0,88,89
 817.684 899 817.684 899 776 943 c 0,90,91
 738 983.111 738 983.111 738 1014.06 c 128,-1,92
 738 1045 738 1045 755 1054 c 0,93,94
 929.672 1148.61 929.672 1148.61 989 1243 c 0,95,96
 1011 1278 1011 1278 1011 1313 c 0,0,1
EndSplineSet
EndChar

StartChar: zero
Encoding: 48 48 58
Width: 1273
Flags: HW
LayerCount: 2
Fore
SplineSet
451 -10 m 0,0,1
 296 -10 296 -10 215.5 86.5 c 128,-1,2
 135 183 135 183 135 369 c 2,3,4
 135 402 l 2,5,6
 135 523.366 135 523.366 176.5 681.183 c 128,-1,7
 218 839 218 839 274.5 963.5 c 128,-1,8
 331 1088 331 1088 406.5 1196 c 128,-1,9
 482 1304 482 1304 572 1383.5 c 0,10,11
 766.151 1555 766.151 1555 973 1555 c 0,12,13
 1191.61 1555 1191.61 1555 1257 1341 c 0,14,15
 1279 1269 1279 1269 1279 1204 c 128,-1,16
 1279 1139 1279 1139 1272.5 1055.5 c 128,-1,17
 1266 972 1266 972 1231 837.5 c 128,-1,18
 1196 703 1196 703 1139 579.5 c 128,-1,19
 1082 456 1082 456 1007.5 348 c 128,-1,20
 933 240 933 240 844 160.5 c 0,21,22
 653.126 -10 653.126 -10 451 -10 c 0,0,1
1080 1258 m 2,23,24
 1080 1425 1080 1425 953 1425 c 0,25,26
 833.375 1425 833.375 1425 688.5 1242 c 0,27,28
 552.552 1070.28 552.552 1070.28 451.5 814 c 0,29,30
 346.664 548.127 346.664 548.127 331 321 c 0,31,32
 325 227 325 227 358 173.5 c 128,-1,33
 391 120 391 120 448.5 120 c 128,-1,34
 506 120 506 120 557 149.5 c 128,-1,35
 608 179 608 179 659.5 231 c 128,-1,36
 711 283 711 283 760 353.5 c 128,-1,37
 809 424 809 424 854 506.5 c 128,-1,38
 899 589 899 589 937.5 680 c 128,-1,39
 976 771 976 771 1005.5 863.5 c 0,40,41
 1080 1097.1 1080 1097.1 1080 1238.5 c 2,42,-1
 1080 1258 l 2,23,24
EndSplineSet
EndChar

StartChar: one
Encoding: 49 49 59
Width: 831
Flags: HW
LayerCount: 2
Fore
SplineSet
229 16 m 0,0,1
 197 -9 197 -9 169.5 -9 c 128,-1,2
 142 -9 142 -9 142 18 c 0,3,4
 142 38 142 38 154 65.5 c 0,5,6
 316.25 443.03 316.25 443.03 368.625 580.515 c 1,7,8
 568.236 1120.18 568.236 1120.18 600 1279 c 1,9,10
 520.273 1193.96 520.273 1193.96 390.5 1170 c 0,11,12
 358 1164 358 1164 336 1164 c 128,-1,13
 314 1164 314 1164 298.5 1171 c 128,-1,14
 283 1178 283 1178 273 1189 c 0,15,16
 254 1209.9 254 1209.9 254 1234.95 c 128,-1,17
 254 1260 254 1260 270 1274.5 c 128,-1,18
 286 1289 286 1289 322.5 1305 c 128,-1,19
 359 1321 359 1321 394.5 1346 c 128,-1,20
 430 1371 430 1371 464.5 1399 c 2,21,-1
 531.5 1455.5 l 1,22,23
 648.386 1558 648.386 1558 683.693 1558 c 128,-1,24
 719 1558 719 1558 746 1546 c 128,-1,25
 773 1534 773 1534 793 1515 c 0,26,27
 838.011 1472.24 838.011 1472.24 836.005 1422.62 c 128,-1,28
 834 1373 834 1373 817.5 1296 c 128,-1,29
 801 1219 801 1219 772.5 1126.5 c 128,-1,30
 744 1034 744 1034 706 929.5 c 128,-1,31
 668 825 668 825 622.5 715.5 c 0,32,33
 381.272 134.963 381.272 134.963 229 16 c 0,0,1
EndSplineSet
EndChar

StartChar: two
Encoding: 50 50 60
Width: 1074
Flags: HW
LayerCount: 2
Fore
SplineSet
885 252 m 0,0,1
 915 252 915 252 915 195 c 128,-1,2
 915 138 915 138 898 102 c 128,-1,3
 881 66 881 66 851 41 c 0,4,5
 789.8 -10 789.8 -10 689 -10 c 0,6,7
 619.355 -10 619.355 -10 530.177 18.5 c 128,-1,8
 441 47 441 47 393.5 60 c 128,-1,9
 346 73 346 73 306.5 73 c 128,-1,10
 267 73 267 73 242.5 65 c 128,-1,11
 218 57 218 57 197.5 45 c 128,-1,12
 177 33 177 33 157.5 19.5 c 0,13,14
 117.778 -8 117.778 -8 103.389 -8 c 128,-1,15
 89 -8 89 -8 75 0 c 128,-1,16
 61 8 61 8 49 21 c 0,17,18
 21 51.3333 21 51.3333 21 68.1667 c 128,-1,19
 21 85 21 85 39.5 129 c 128,-1,20
 58 173 58 173 114 250.5 c 128,-1,21
 170 328 170 328 238 403.5 c 128,-1,22
 306 479 306 479 381.5 553 c 0,23,24
 604.277 771.291 604.277 771.291 670.638 841.146 c 128,-1,25
 737 911 737 911 788 979.5 c 0,26,27
 899 1128.59 899 1128.59 899 1249 c 0,28,29
 899 1376.4 899 1376.4 807.5 1413 c 0,30,31
 780 1424 780 1424 735.5 1424 c 128,-1,32
 691 1424 691 1424 646 1398.5 c 128,-1,33
 601 1373 601 1373 570 1334.5 c 0,34,35
 506 1255.02 506 1255.02 506 1163 c 0,36,37
 506 1079.31 506 1079.31 554 1059 c 0,38,39
 574 1050 574 1050 574 1033 c 256,40,41
 574 997.233 574 997.233 539 967.116 c 0,42,43
 473.784 911 473.784 911 427.892 911 c 128,-1,44
 382 911 382 911 354 928 c 128,-1,45
 326 945 326 945 307 973 c 0,46,47
 269 1029 269 1029 269 1094.5 c 128,-1,48
 269 1160 269 1160 285 1212 c 128,-1,49
 301 1264 301 1264 331.5 1313.5 c 128,-1,50
 362 1363 362 1363 404.5 1407 c 128,-1,51
 447 1451 447 1451 500.5 1484 c 0,52,53
 617.227 1556 617.227 1556 729.614 1556 c 128,-1,54
 842 1556 842 1556 907.5 1526 c 128,-1,55
 973 1496 973 1496 1013.5 1447.5 c 0,56,57
 1090 1355.89 1090 1355.89 1090 1214 c 0,58,59
 1090 981.421 1090 981.421 863.5 743 c 0,60,61
 744.75 618 744.75 618 622.875 520.5 c 2,62,-1
 433 367 l 1,63,64
 277.571 239 277.571 239 219 157 c 1,65,66
 295.909 191.182 295.909 191.182 345.955 194.591 c 128,-1,67
 396 198 396 198 427.5 196.5 c 128,-1,68
 459 195 459 195 493.5 192 c 0,69,70
 585.5 184 585.5 184 640.75 184 c 128,-1,71
 696 184 696 184 736.5 194.5 c 128,-1,72
 777 205 777 205 802.5 218 c 128,-1,73
 828 231 828 231 845 241.5 c 128,-1,74
 862 252 862 252 885 252 c 0,0,1
EndSplineSet
EndChar

StartChar: three
Encoding: 51 51 61
Width: 1100
Flags: HW
LayerCount: 2
Fore
SplineSet
464 595 m 1,0,1
 425 595 425 595 425 625 c 0,2,3
 425 695 425 695 473.5 743.5 c 0,4,5
 490 760 490 760 536.5 773.5 c 128,-1,6
 583 787 583 787 656.5 830.5 c 128,-1,7
 730 874 730 874 790 936.5 c 0,8,9
 925 1077.12 925 1077.12 925 1257 c 0,10,11
 925 1335 925 1335 886 1379.5 c 128,-1,12
 847 1424 847 1424 787 1424 c 128,-1,13
 727 1424 727 1424 677.5 1398.5 c 128,-1,14
 628 1373 628 1373 591 1334.5 c 0,15,16
 512 1252.3 512 1252.3 512 1163 c 0,17,18
 512 1079.31 512 1079.31 560 1059 c 0,19,20
 580 1050 580 1050 580 1033 c 256,21,22
 580 997.233 580 997.233 545 967.116 c 0,23,24
 479.784 911 479.784 911 434.892 911 c 128,-1,25
 390 911 390 911 362 925 c 128,-1,26
 334 939 334 939 314.5 964.5 c 0,27,28
 275 1016.15 275 1016.15 275 1083.08 c 128,-1,29
 275 1150 275 1150 293 1203 c 128,-1,30
 311 1256 311 1256 343.5 1306.5 c 128,-1,31
 376 1357 376 1357 422.5 1402 c 128,-1,32
 469 1447 469 1447 525.5 1481.5 c 0,33,34
 647.507 1556 647.507 1556 764.254 1556 c 128,-1,35
 881 1556 881 1556 946.5 1526 c 128,-1,36
 1012 1496 1012 1496 1052 1448 c 0,37,38
 1126 1359.2 1126 1359.2 1126 1214 c 0,39,40
 1126 978.463 1126 978.463 910 773 c 0,41,42
 830.216 697.108 830.216 697.108 756 660 c 1,43,44
 842.233 634.449 842.233 634.449 874 518.5 c 0,45,46
 884 482 884 482 884 435.5 c 128,-1,47
 884 389 884 389 867 335 c 128,-1,48
 850 281 850 281 819 230.5 c 128,-1,49
 788 180 788 180 743 136.5 c 128,-1,50
 698 93 698 93 642 60.5 c 0,51,52
 520.523 -10 520.523 -10 380 -10 c 0,53,54
 235.134 -10 235.134 -10 154 65.5 c 0,55,56
 84 130.639 84 130.639 84 224 c 0,57,58
 84 297.149 84 297.149 130.5 357.5 c 0,59,60
 184.82 428 184.82 428 273 428 c 0,61,62
 322 428 322 428 343 407 c 0,63,64
 380.421 369.579 380.421 369.579 361.711 348.289 c 128,-1,65
 343 327 343 327 329.5 309.5 c 128,-1,66
 316 292 316 292 307 274.5 c 0,67,68
 289 239.5 289 239.5 289 211.75 c 128,-1,69
 289 184 289 184 294 167.5 c 128,-1,70
 299 151 299 151 310.5 138 c 0,71,72
 336.154 109 336.154 109 390.077 109 c 128,-1,73
 444 109 444 109 495.5 143 c 128,-1,74
 547 177 547 177 585.5 229.5 c 0,75,76
 669 343.364 669 343.364 669 473.682 c 128,-1,77
 669 604 669 604 560 604 c 1,78,-1
 464 595 l 1,0,1
EndSplineSet
EndChar

StartChar: four
Encoding: 52 52 62
Width: 1084
Flags: HW
LayerCount: 2
Fore
SplineSet
1038 1016 m 0,0,1
 1038 907.467 1038 907.467 904 635 c 1,2,3
 943 638 943 638 963 638 c 128,-1,4
 983 638 983 638 1001 626.5 c 128,-1,5
 1019 615 1019 615 1034 597.5 c 0,6,7
 1068 557.833 1068 557.833 1068 534.917 c 128,-1,8
 1068 512 1068 512 1058 504 c 128,-1,9
 1048 496 1048 496 1020.5 500 c 0,10,11
 972.375 507 972.375 507 925.688 507 c 2,12,-1
 866 507 l 2,13,14
 853 507 853 507 839 506 c 1,15,16
 723.451 293.109 723.451 293.109 665.225 196.054 c 0,17,18
 542.208 -8.99996 542.208 -8.99996 460 -9 c 0,19,20
 419 -9 419 -9 419 28 c 0,21,22
 419 66.8571 419 66.8571 455 126 c 1,23,24
 496 202 496 202 540 297 c 1,25,-1
 627 491 l 1,26,27
 443 475 443 475 387 475 c 0,28,29
 280.333 475 280.333 475 242.667 486 c 128,-1,30
 205 497 205 497 184.5 516 c 128,-1,31
 164 535 164 535 148.5 559.5 c 0,32,33
 114.892 612.622 114.892 612.622 116.446 645.311 c 128,-1,34
 118 678 118 678 140.5 721.5 c 2,35,-1
 272.5 966 l 1,36,37
 431.063 1271.38 431.063 1271.38 453 1520 c 0,38,39
 457 1556 457 1556 509 1556 c 0,40,41
 565 1556 565 1556 601 1527.5 c 0,42,43
 669 1473.67 669 1473.67 669 1415.33 c 128,-1,44
 669 1357 669 1357 651 1293.5 c 128,-1,45
 633 1230 633 1230 603 1160.5 c 128,-1,46
 573 1091 573 1091 534 1017.5 c 128,-1,47
 495 944 495 944 453.5 874.5 c 1,48,49
 345.192 699.894 345.192 699.894 296 629 c 1,50,51
 334.923 607 334.923 607 424.462 607 c 0,52,53
 555.25 607 555.25 607 679 616 c 1,54,-1
 724.5 731.5 l 1,55,56
 789.656 899.693 789.656 899.693 804 975 c 1,57,58
 827 1059 827 1059 836 1102.5 c 128,-1,59
 845 1146 845 1146 862 1146 c 0,60,61
 926.421 1146 926.421 1146 983 1103 c 0,62,63
 1038 1061.2 1038 1061.2 1038 1016 c 0,0,1
EndSplineSet
EndChar

StartChar: five
Encoding: 53 53 63
Width: 1107
Flags: HW
LayerCount: 2
Fore
SplineSet
484 972 m 1,0,1
 593.379 1033 593.379 1033 674.69 1033 c 128,-1,2
 756 1033 756 1033 813.5 1015 c 128,-1,3
 871 997 871 997 914 956.5 c 0,4,5
 1007 868.907 1007 868.907 1007 694 c 0,6,7
 1007 535.35 1007 535.35 923 370.5 c 0,8,9
 839.287 206.213 839.287 206.213 699 102 c 0,10,11
 548.231 -10 548.231 -10 378 -10 c 0,12,13
 235.816 -10 235.816 -10 148.5 74 c 0,14,15
 69 150.481 69 150.481 69 263 c 0,16,17
 69 341.75 69 341.75 121 403.5 c 0,18,19
 174.474 467 174.474 467 248 467 c 0,20,21
 297.882 467 297.882 467 316.941 453.5 c 0,22,23
 349.622 430.351 349.622 430.351 335.311 406.176 c 2,24,-1
 308 362 l 1,25,26
 264 294.308 264 294.308 264 232.654 c 0,27,28
 264 109 264 109 383 109 c 0,29,30
 482.348 109 482.348 109 578 209 c 0,31,32
 664.673 299.612 664.673 299.612 721.5 439 c 0,33,34
 777 575.132 777 575.132 777 694 c 0,35,36
 777 842.509 777 842.509 675.5 871 c 0,37,38
 647 879 647 879 615 879 c 128,-1,39
 583 879 583 879 548.5 861.5 c 128,-1,40
 514 844 514 844 481.5 818.5 c 128,-1,41
 449 793 449 793 420 763 c 2,42,-1
 366 709 l 1,43,44
 351 697 351 697 333 697 c 256,45,46
 297.375 697 297.375 697 274.188 723.5 c 0,47,48
 232.07 771.634 232.07 771.634 236 807 c 1,49,50
 237.651 833.411 237.651 833.411 274.325 909.206 c 0,51,52
 401.741 1171.87 401.741 1171.87 435.87 1258.93 c 128,-1,53
 470 1346 470 1346 481 1386 c 128,-1,54
 492 1426 492 1426 500.5 1448.5 c 128,-1,55
 509 1471 509 1471 521.5 1490.5 c 0,56,57
 550.026 1535 550.026 1535 581.513 1535 c 128,-1,58
 613 1535 613 1535 645.5 1527.5 c 128,-1,59
 678 1520 678 1520 721 1511 c 0,60,61
 835.667 1487 835.667 1487 906.833 1487 c 128,-1,62
 978 1487 978 1487 1012 1492 c 128,-1,63
 1046 1497 1046 1497 1072 1505 c 128,-1,64
 1098 1513 1098 1513 1117 1522 c 2,65,-1
 1152 1538.5 l 2,66,67
 1187.2 1555 1187.2 1555 1210 1555 c 1,68,69
 1240 1553 1240 1553 1240 1487 c 0,70,71
 1240 1436.12 1240 1436.12 1213 1395.56 c 128,-1,72
 1186 1355 1186 1355 1169.5 1339 c 128,-1,73
 1153 1323 1153 1323 1132 1312.5 c 0,74,75
 1093 1293 1093 1293 1037.5 1293 c 128,-1,76
 982 1293 982 1293 940 1299.5 c 128,-1,77
 898 1306 898 1306 851.5 1317.5 c 0,78,79
 751.385 1342.26 751.385 1342.26 662 1380 c 1,80,81
 640.314 1263.44 640.314 1263.44 543.5 1080 c 1,82,-1
 484 972 l 1,0,1
EndSplineSet
EndChar

StartChar: six
Encoding: 54 54 64
Width: 1136
Flags: HW
LayerCount: 2
Fore
SplineSet
157 273 m 128,-1,1
 139 351 139 351 139 466.5 c 128,-1,2
 139 582 139 582 171 725 c 128,-1,3
 203 868 203 868 259 993 c 128,-1,4
 315 1118 315 1118 390 1221.5 c 128,-1,5
 465 1325 465 1325 551 1399 c 0,6,7
 732.297 1555 732.297 1555 914 1555 c 0,8,9
 1041.74 1555 1041.74 1555 1112.5 1477.5 c 0,10,11
 1174 1410.14 1174 1410.14 1174 1309 c 128,-1,12
 1174 1207.8 1174 1207.8 1120.5 1127 c 0,13,14
 1067.59 1047.09 1067.59 1047.09 991 1035 c 0,15,16
 930.227 1025.79 930.227 1025.79 888 1064.5 c 0,17,18
 851 1098.42 851 1098.42 851 1143 c 0,19,20
 851 1178.46 851 1178.46 876 1190 c 0,21,22
 1014 1257.97 1014 1257.97 1014 1349 c 0,23,24
 1014 1381 1014 1381 993.5 1404 c 128,-1,25
 973 1427 973 1427 924.5 1427 c 128,-1,26
 876 1427 876 1427 824 1400.5 c 128,-1,27
 772 1374 772 1374 721.5 1327.5 c 128,-1,28
 671 1281 671 1281 623 1217.5 c 128,-1,29
 575 1154 575 1154 533.5 1080 c 0,30,31
 449.172 929.632 449.172 929.632 406 759 c 1,32,33
 500.688 873.979 500.688 873.979 644 912 c 0,34,35
 693 925 693 925 748 925 c 128,-1,36
 803 925 803 925 854.5 903.5 c 128,-1,37
 906 882 906 882 945.5 839.5 c 0,38,39
 1032 746.43 1032 746.43 1032 582 c 0,40,41
 1032 414.337 1032 414.337 942.5 272 c 0,42,43
 862.512 144.79 862.512 144.79 730 65.5 c 0,44,45
 603.822 -10 603.822 -10 495.411 -10 c 128,-1,46
 387 -10 387 -10 321.5 29.5 c 128,-1,47
 256 69 256 69 215.5 132 c 128,-1,0
 175 195 175 195 157 273 c 128,-1,1
386.5 478.5 m 128,-1,49
 358 385 358 385 358 320 c 128,-1,50
 358 255 358 255 364 225.5 c 128,-1,51
 370 196 370 196 383.5 170 c 0,52,53
 414.654 110 414.654 110 478 110 c 0,54,55
 554.753 110 554.753 110 636.5 187.5 c 0,56,57
 762.922 307.355 762.922 307.355 807.5 499.5 c 0,58,59
 822 562 822 562 822 611 c 128,-1,60
 822 660 822 660 814.5 691 c 128,-1,61
 807 722 807 722 792 745 c 0,62,63
 759.391 795 759.391 795 696.196 795 c 128,-1,64
 633 795 633 795 571.5 754 c 128,-1,65
 510 713 510 713 462.5 642.5 c 128,-1,48
 415 572 415 572 386.5 478.5 c 128,-1,49
EndSplineSet
EndChar

StartChar: seven
Encoding: 55 55 65
Width: 970
Flags: HW
LayerCount: 2
Fore
SplineSet
226.5 90.5 m 0,0,1
 213 125 213 125 221.5 205 c 128,-1,2
 230 285 230 285 277.5 404.5 c 128,-1,3
 325 524 325 524 392.5 641.5 c 128,-1,4
 460 759 460 759 539.5 870.5 c 1,5,-1
 695 1079.5 l 1,6,-1
 834.5 1257 l 2,7,8
 898 1337 898 1337 935 1392 c 1,9,10
 748.895 1311.24 748.895 1311.24 570 1274.5 c 0,11,12
 514 1263 514 1263 476 1263 c 128,-1,13
 438 1263 438 1263 407 1269.5 c 128,-1,14
 376 1276 376 1276 351.5 1288.5 c 0,15,16
 306.735 1311.34 306.735 1311.34 275 1360 c 1,17,18
 251 1390.86 251 1390.86 251 1457 c 0,19,20
 251 1532.87 251 1532.87 283 1535 c 0,21,22
 305 1536 305 1536 330.5 1525.5 c 128,-1,23
 356 1515 356 1515 391 1502 c 0,24,25
 485.231 1467 485.231 1467 574.115 1467 c 128,-1,26
 663 1467 663 1467 723.5 1477.5 c 128,-1,27
 784 1488 784 1488 832.5 1501 c 2,28,-1
 918.5 1524.5 l 2,29,30
 956 1535 956 1535 982 1535 c 128,-1,31
 1008 1535 1008 1535 1035 1519 c 128,-1,32
 1062 1503 1062 1503 1082 1480.5 c 0,33,34
 1129.72 1426.81 1129.72 1426.81 1116.86 1392.91 c 128,-1,35
 1104 1359 1104 1359 1068 1304 c 128,-1,36
 1032 1249 1032 1249 981.5 1179.5 c 0,37,38
 810.718 944.578 810.718 944.578 750.359 854.289 c 128,-1,39
 690 764 690 764 632.5 666.5 c 128,-1,40
 575 569 575 569 530.5 469 c 0,41,42
 432.695 249.214 432.695 249.214 429 70 c 0,43,44
 429 27.8182 429 27.8182 422.5 15.4091 c 0,45,46
 399.117 -29.2319 399.117 -29.2319 317 0.5 c 0,47,48
 252.592 23.8201 252.592 23.8201 226.5 90.5 c 0,0,1
EndSplineSet
EndChar

StartChar: eight
Encoding: 56 56 66
Width: 1074
Flags: HW
LayerCount: 2
Fore
SplineSet
734 689 m 1,0,1
 846 503.957 846 503.957 846 362 c 0,2,3
 846 197.034 846 197.034 717.5 90.5 c 0,4,5
 596.278 -9.99998 596.278 -9.99998 430 -10 c 0,6,7
 255.511 -10 255.511 -10 166 96 c 0,8,9
 98 176.526 98 176.526 98 282 c 0,10,11
 98 472.438 98 472.438 313 609.5 c 0,12,13
 380.78 652.71 380.78 652.71 458 682 c 1,14,15
 318 882 318 882 318 1079 c 0,16,17
 318 1279.89 318 1279.89 449.5 1419 c 0,18,19
 577.087 1553.97 577.087 1553.97 764 1556 c 0,20,21
 937.428 1557.93 937.428 1557.93 1036.5 1454.5 c 0,22,23
 1128 1358.98 1128 1358.98 1128 1208 c 0,24,25
 1128 872.86 1128 872.86 737 691 c 1,26,-1
 734 689 l 1,0,1
661 803 m 1,27,28
 907 932.709 907 932.709 907 1182 c 256,29,30
 907 1314.67 907 1314.67 847.5 1378.5 c 0,31,32
 794.147 1435.73 794.147 1435.73 709 1427 c 1,33,34
 630.784 1420.66 630.784 1420.66 573.5 1354 c 0,35,36
 512 1282.44 512 1282.44 512 1182 c 256,37,38
 512 1088.71 512 1088.71 545 1013.85 c 128,-1,39
 578 939 578 939 605 893.5 c 2,40,-1
 661 803 l 1,27,28
535 579 m 1,41,42
 304 500.122 304 500.122 304 302 c 0,43,44
 304 167.057 304 167.057 407 118.5 c 0,45,46
 442 102 442 102 482.5 102 c 128,-1,47
 523 102 523 102 556 116 c 128,-1,48
 589 130 589 130 615.5 155.5 c 0,49,50
 675 212.755 675 212.755 675 290 c 0,51,52
 675 358.632 675 358.632 644.5 414.816 c 128,-1,53
 614 471 614 471 588.5 506.5 c 2,54,-1
 535 579 l 1,41,42
EndSplineSet
EndChar

StartChar: nine
Encoding: 57 57 67
Width: 1136
Flags: HW
LayerCount: 2
Fore
SplineSet
116.5 107.5 m 128,-1,1
 102 145 102 145 102 182 c 128,-1,2
 102 219 102 219 115 251.5 c 128,-1,3
 128 284 128 284 150.5 308.5 c 0,4,5
 199.633 362 199.633 362 269 362 c 0,6,7
 316.652 362 316.652 362 334.826 343 c 0,8,9
 365.819 310.598 365.819 310.598 349.409 287.799 c 0,10,11
 305.455 226.729 305.455 226.729 303.227 185.864 c 128,-1,12
 301 145 301 145 307 130 c 128,-1,13
 313 115 313 115 323.5 106 c 0,14,15
 343.333 89 343.333 89 371 89 c 0,16,17
 506.968 89 506.968 89 632 250.5 c 0,18,19
 756.553 411.381 756.553 411.381 831 681 c 1,20,21
 766 620 766 620 679.5 583 c 128,-1,22
 593 546 593 546 522.5 546 c 128,-1,23
 452 546 452 546 402.5 562.5 c 128,-1,24
 353 579 353 579 313 617.5 c 0,25,26
 223 704.125 223 704.125 223 874 c 0,27,28
 223 1163.8 223 1163.8 409.5 1363.5 c 0,29,30
 523.638 1485.72 523.638 1485.72 665.5 1532 c 0,31,32
 736 1555 736 1555 815.5 1555 c 128,-1,33
 895 1555 895 1555 957 1523.5 c 128,-1,34
 1019 1492 1019 1492 1058 1440.5 c 0,35,36
 1132 1342.78 1132 1342.78 1132 1188 c 0,37,38
 1132 1179 1132 1179 1132 1170 c 128,-1,39
 1132 1161 1132 1161 1131 1152 c 0,40,41
 1100.99 653.893 1100.99 653.893 874 315 c 0,42,43
 729.779 99.6837 729.779 99.6837 543.5 18 c 0,44,45
 450 -23 450 -23 368 -23 c 128,-1,46
 286 -23 286 -23 239 -5.5 c 128,-1,47
 192 12 192 12 161.5 41 c 128,-1,0
 131 70 131 70 116.5 107.5 c 128,-1,1
790 1415 m 0,48,49
 707.72 1415 707.72 1415 624 1334.5 c 0,50,51
 500.893 1216.13 500.893 1216.13 457 1004.5 c 0,52,53
 443 937 443 937 443 885 c 128,-1,54
 443 833 443 833 449.5 800 c 128,-1,55
 456 767 456 767 469.5 741.5 c 0,56,57
 498.882 686 498.882 686 551.941 686 c 128,-1,58
 605 686 605 686 650 707 c 128,-1,59
 695 728 695 728 735.5 766 c 128,-1,60
 776 804 776 804 810 856.5 c 128,-1,61
 844 909 844 909 869 971.5 c 0,62,63
 922 1104 922 1104 922 1259.5 c 128,-1,64
 922 1415 922 1415 790 1415 c 0,48,49
EndSplineSet
EndChar

StartChar: period
Encoding: 46 46 68
Width: 553
Flags: HW
LayerCount: 2
Fore
SplineSet
62 84.5 m 128,-1,1
 49 113 49 113 49 150.5 c 128,-1,2
 49 188 49 188 63.5 217.5 c 128,-1,3
 78 247 78 247 100 265 c 0,4,5
 139.111 297 139.111 297 182.556 297 c 128,-1,6
 226 297 226 297 256.5 291 c 128,-1,7
 287 285 287 285 313.5 271.5 c 0,8,9
 376 239.66 376 239.66 376 180 c 0,10,11
 376 104.682 376 104.682 327 49 c 0,12,13
 281.456 -2.75438 281.456 -2.75438 231.728 -7.87719 c 128,-1,14
 182 -13 182 -13 151 -0.5 c 128,-1,15
 120 12 120 12 97.5 34 c 128,-1,0
 75 56 75 56 62 84.5 c 128,-1,1
EndSplineSet
EndChar

StartChar: periodcentered
Encoding: 183 183 69
Width: 724
Flags: HW
LayerCount: 2
Fore
SplineSet
412.5 530.5 m 0,0,1
 379 527 379 527 348 539.5 c 128,-1,2
 317 552 317 552 294.5 574 c 0,3,4
 246 621.422 246 621.422 246 674.711 c 128,-1,5
 246 728 246 728 260.5 757.5 c 128,-1,6
 275 787 275 787 297 805 c 0,7,8
 336.111 837 336.111 837 379.556 837 c 128,-1,9
 423 837 423 837 453.5 831 c 128,-1,10
 484 825 484 825 510.5 811.5 c 0,11,12
 573 779.66 573 779.66 573 720 c 0,13,14
 573 644.682 573 644.682 524 589 c 0,15,16
 478.597 537.406 478.597 537.406 412.5 530.5 c 0,0,1
EndSplineSet
EndChar

StartChar: bullet
Encoding: 8226 8226 70
Width: 895
Flags: HW
LayerCount: 2
Fore
SplineSet
563 482.5 m 128,-1,1
 519 461 519 461 469 456 c 128,-1,2
 419 451 419 451 374 469.5 c 128,-1,3
 329 488 329 488 296.5 521 c 0,4,5
 229 589.538 229 589.538 229 670.269 c 128,-1,6
 229 751 229 751 255 798.5 c 128,-1,7
 281 846 281 846 321 876.5 c 0,8,9
 399.033 936 399.033 936 496 936 c 256,10,11
 645.805 936 645.805 936 700.5 821 c 0,12,13
 720 780 720 780 720 723 c 128,-1,14
 720 666 720 666 698.5 619.5 c 128,-1,15
 677 573 677 573 642 538.5 c 128,-1,0
 607 504 607 504 563 482.5 c 128,-1,1
EndSplineSet
EndChar

StartChar: comma
Encoding: 44 44 71
Width: 641
Flags: HW
LayerCount: 2
Fore
SplineSet
94 -274.5 m 128,-1,1
 56 -291 56 -291 26.5 -291 c 128,-1,2
 -3 -291 -3 -291 -3 -269 c 128,-1,3
 -3 -247 -3 -247 18.5 -223.5 c 2,4,-1
 65.5 -174 l 1,5,6
 158 -79.6863 158 -79.6863 158 -7 c 0,7,8
 158 55.6786 158 55.6786 117 124.5 c 0,9,10
 103 148 103 148 93.5 166.5 c 128,-1,11
 84 185 84 185 97 216.5 c 128,-1,12
 110 248 110 248 149.5 271 c 128,-1,13
 189 294 189 294 231.5 294 c 128,-1,14
 274 294 274 294 302 282 c 128,-1,15
 330 270 330 270 348.5 248 c 0,16,17
 385 204.595 385 204.595 385 140.297 c 128,-1,18
 385 76 385 76 366.5 24.5 c 128,-1,19
 348 -27 348 -27 318 -73.5 c 128,-1,20
 288 -120 288 -120 250 -160 c 128,-1,21
 212 -200 212 -200 172 -229 c 128,-1,0
 132 -258 132 -258 94 -274.5 c 128,-1,1
EndSplineSet
EndChar

StartChar: colon
Encoding: 58 58 72
Width: 641
Flags: HW
LayerCount: 2
Fore
SplineSet
390.5 642.5 m 0,0,1
 357 639 357 639 326 651.5 c 128,-1,2
 295 664 295 664 272.5 686 c 0,3,4
 224 733.422 224 733.422 224 786.711 c 128,-1,5
 224 840 224 840 238.5 869.5 c 128,-1,6
 253 899 253 899 275 917 c 0,7,8
 314.111 949 314.111 949 357.556 949 c 128,-1,9
 401 949 401 949 431.5 943 c 128,-1,10
 462 937 462 937 488.5 923.5 c 0,11,12
 551 891.66 551 891.66 551 832 c 0,13,14
 551 756.682 551 756.682 502 701 c 0,15,16
 456.597 649.406 456.597 649.406 390.5 642.5 c 0,0,1
77 84.5 m 128,-1,18
 64 113 64 113 64 150.5 c 128,-1,19
 64 188 64 188 78.5 217.5 c 128,-1,20
 93 247 93 247 115 265 c 0,21,22
 154.111 297 154.111 297 197.556 297 c 128,-1,23
 241 297 241 297 271.5 291 c 128,-1,24
 302 285 302 285 328.5 271.5 c 0,25,26
 391 239.66 391 239.66 391 180 c 0,27,28
 391 104.682 391 104.682 342 49 c 0,29,30
 296.456 -2.75438 296.456 -2.75438 246.728 -7.87719 c 128,-1,31
 197 -13 197 -13 166 -0.5 c 128,-1,32
 135 12 135 12 112.5 34 c 128,-1,17
 90 56 90 56 77 84.5 c 128,-1,18
EndSplineSet
EndChar

StartChar: semicolon
Encoding: 59 59 73
Width: 641
Flags: HW
LayerCount: 2
Fore
SplineSet
395.5 642.5 m 0,0,1
 362 639 362 639 331 651.5 c 128,-1,2
 300 664 300 664 277.5 686 c 0,3,4
 229 733.422 229 733.422 229 786.711 c 128,-1,5
 229 840 229 840 243.5 869.5 c 128,-1,6
 258 899 258 899 280 917 c 0,7,8
 319.111 949 319.111 949 362.556 949 c 128,-1,9
 406 949 406 949 436.5 943 c 128,-1,10
 467 937 467 937 493.5 923.5 c 0,11,12
 556 891.66 556 891.66 556 832 c 0,13,14
 556 756.682 556 756.682 507 701 c 0,15,16
 461.597 649.406 461.597 649.406 395.5 642.5 c 0,0,1
94 -274.5 m 128,-1,18
 56 -291 56 -291 26.5 -291 c 128,-1,19
 -3 -291 -3 -291 -3 -269 c 128,-1,20
 -3 -247 -3 -247 18.5 -223.5 c 2,21,-1
 65.5 -174 l 1,22,23
 158 -79.6863 158 -79.6863 158 -7 c 0,24,25
 158 55.6786 158 55.6786 117 124.5 c 0,26,27
 103 148 103 148 93.5 166.5 c 128,-1,28
 84 185 84 185 97 216.5 c 128,-1,29
 110 248 110 248 149.5 271 c 128,-1,30
 189 294 189 294 231.5 294 c 128,-1,31
 274 294 274 294 302 282 c 128,-1,32
 330 270 330 270 348.5 248 c 0,33,34
 385 204.595 385 204.595 385 140.297 c 128,-1,35
 385 76 385 76 366.5 24.5 c 128,-1,36
 348 -27 348 -27 318 -73.5 c 128,-1,37
 288 -120 288 -120 250 -160 c 128,-1,38
 212 -200 212 -200 172 -229 c 128,-1,17
 132 -258 132 -258 94 -274.5 c 128,-1,18
EndSplineSet
EndChar

StartChar: exclam
Encoding: 33 33 74
Width: 855
Flags: HW
LayerCount: 2
Fore
SplineSet
377 386 m 0,0,1
 328 386 328 386 328 525 c 0,2,3
 328 717.241 328 717.241 429 1018.5 c 0,4,5
 518.877 1286.58 518.877 1286.58 633 1443.5 c 0,6,7
 695.493 1529.43 695.493 1529.43 756 1545.5 c 0,8,9
 788 1554 788 1554 815.5 1554 c 128,-1,10
 843 1554 843 1554 864 1550 c 128,-1,11
 885 1546 885 1546 901 1538.5 c 0,12,13
 936 1522.09 936 1522.09 936 1497.05 c 128,-1,14
 936 1472 936 1472 916 1444 c 128,-1,15
 896 1416 896 1416 852 1348 c 128,-1,16
 808 1280 808 1280 749 1170.5 c 0,17,18
 606.742 906.479 606.742 906.479 472 546 c 0,19,20
 458 510 458 510 448.5 480.5 c 128,-1,21
 439 451 439 451 429 430 c 0,22,23
 408.048 386 408.048 386 377 386 c 0,0,1
175 84.5 m 128,-1,25
 162 113 162 113 162 150.5 c 128,-1,26
 162 188 162 188 176.5 217.5 c 128,-1,27
 191 247 191 247 213 265 c 0,28,29
 252.111 297 252.111 297 295.556 297 c 128,-1,30
 339 297 339 297 369.5 291 c 128,-1,31
 400 285 400 285 426.5 271.5 c 0,32,33
 489 239.66 489 239.66 489 180 c 0,34,35
 489 104.682 489 104.682 440 49 c 0,36,37
 394.456 -2.75438 394.456 -2.75438 344.728 -7.87719 c 128,-1,38
 295 -13 295 -13 264 -0.5 c 128,-1,39
 233 12 233 12 210.5 34 c 128,-1,24
 188 56 188 56 175 84.5 c 128,-1,25
EndSplineSet
EndChar

StartChar: exclamdown
Encoding: 161 161 75
Width: 855
Flags: HW
LayerCount: 2
Fore
SplineSet
470.5 1062.5 m 0,0,1
 514.953 1172.81 514.953 1172.81 630 1180 c 1,2,3
 694.256 1180 694.256 1180 740.5 1131.5 c 0,4,5
 784 1085.88 784 1085.88 784 1033.94 c 128,-1,6
 784 982 784 982 769.5 952.5 c 128,-1,7
 755 923 755 923 733 905 c 0,8,9
 693.889 873 693.889 873 650.444 873 c 128,-1,10
 607 873 607 873 576.5 879 c 128,-1,11
 546 885 546 885 519.5 898.5 c 0,12,13
 457 930.34 457 930.34 457 990 c 0,14,15
 457 1029 457 1029 470.5 1062.5 c 0,0,1
335 571 m 0,16,17
 389 662 389 662 440 713 c 128,-1,18
 491 764 491 764 515 764 c 128,-1,19
 539 764 539 764 548 750.5 c 128,-1,20
 557 737 557 737 557 717.5 c 128,-1,21
 557 698 557 698 542.5 661.5 c 128,-1,22
 528 625 528 625 482.5 496 c 128,-1,23
 437 367 437 367 392 203.5 c 128,-1,24
 347 40 347 40 322 -81.5 c 0,25,26
 288.837 -242.673 288.837 -242.673 273 -405 c 0,27,28
 267.562 -463 267.562 -463 222 -463 c 0,29,30
 151.435 -463 151.435 -463 101.5 -391 c 0,31,32
 56 -325.395 56 -325.395 56 -252.198 c 0,33,34
 56 -101.892 56 -101.892 134.553 131.643 c 128,-1,35
 213.105 365.178 213.105 365.178 335 571 c 0,16,17
EndSplineSet
EndChar

StartChar: question
Encoding: 63 63 76
Width: 1058
Flags: HW
LayerCount: 2
Fore
SplineSet
421 401 m 128,-1,1
 407 388 407 388 387.5 388 c 128,-1,2
 368 388 368 388 351.5 417.5 c 128,-1,3
 335 447 335 447 335 506.5 c 128,-1,4
 335 566 335 566 361 625 c 128,-1,5
 387 684 387 684 429 735.5 c 128,-1,6
 471 787 471 787 525 833.5 c 1,7,-1
 745 1011 l 1,8,9
 935 1162.3 935 1162.3 935 1296 c 0,10,11
 935 1364 935 1364 898 1401 c 128,-1,12
 861 1438 861 1438 809 1438 c 128,-1,13
 757 1438 757 1438 722 1419.5 c 128,-1,14
 687 1401 687 1401 664 1373 c 0,15,16
 619 1318.22 619 1318.22 619 1256 c 0,17,18
 619 1214.22 619 1214.22 633.5 1183.61 c 128,-1,19
 648 1153 648 1153 648 1142.5 c 128,-1,20
 648 1132 648 1132 638 1114 c 128,-1,21
 628 1096 628 1096 609 1080.5 c 0,22,23
 564.258 1044 564.258 1044 520.629 1044 c 128,-1,24
 477 1044 477 1044 456.5 1058.5 c 128,-1,25
 436 1073 436 1073 422.5 1095.5 c 0,26,27
 397 1138 397 1138 397 1199 c 128,-1,28
 397 1260 397 1260 424 1324 c 128,-1,29
 451 1388 451 1388 502 1439.5 c 0,30,31
 616.379 1555 616.379 1555 797 1555 c 0,32,33
 933.889 1555 933.889 1555 1021.5 1469.5 c 0,34,35
 1108 1385.08 1108 1385.08 1108 1255 c 0,36,37
 1108 1027.93 1108 1027.93 902 870 c 1,38,-1
 777 776 l 1,39,40
 607.369 650.734 607.369 650.734 523 546 c 1,41,42
 500 515 500 515 482.5 486.5 c 128,-1,43
 465 458 465 458 450 436 c 128,-1,0
 435 414 435 414 421 401 c 128,-1,1
294.556 297 m 128,-1,45
 338 297 338 297 368.5 291 c 128,-1,46
 399 285 399 285 425.5 271.5 c 0,47,48
 488 239.66 488 239.66 488 180 c 0,49,50
 488 104.682 488 104.682 439 49 c 0,51,52
 387.08 -10 387.08 -10 322.5 -10 c 2,53,-1
 315 -10 l 2,54,55
 250.744 -10 250.744 -10 204.5 38.5 c 0,56,57
 161 84.1219 161 84.1219 161 136.061 c 0,58,59
 161 223.273 161 223.273 206.056 260.136 c 128,-1,44
 251.111 297 251.111 297 294.556 297 c 128,-1,45
EndSplineSet
EndChar

StartChar: quoteleft
Encoding: 8216 8216 78
Width: 549
Flags: HW
LayerCount: 2
Fore
SplineSet
547 1246 m 0,0,1
 513.316 1166 513.316 1166 404 1166 c 0,2,3
 348 1166 348 1166 315 1215.5 c 128,-1,4
 282 1265 282 1265 282 1324.5 c 128,-1,5
 282 1384 282 1384 296.5 1426 c 128,-1,6
 311 1468 311 1468 334.5 1507 c 128,-1,7
 358 1546 358 1546 389.5 1580 c 128,-1,8
 421 1614 421 1614 454.5 1639.5 c 0,9,10
 526.098 1694 526.098 1694 585 1694 c 0,11,12
 628.462 1694 628.462 1694 632 1671 c 0,13,14
 634 1658 634 1658 614.5 1636.5 c 2,15,16
 572 1591.5 l 1,17,18
 488 1505.67 488 1505.67 488 1440 c 0,19,20
 488 1379.77 488 1379.77 513 1339.38 c 128,-1,21
 538 1299 538 1299 546.5 1282 c 128,-1,22
 555 1265 555 1265 547 1246 c 0,0,1
EndSplineSet
EndChar

StartChar: quoteright
Encoding: 8217 8217 79
Width: 549
Flags: HW
LayerCount: 2
Fore
SplineSet
407 1172.5 m 128,-1,1
 373 1158 373 1158 336.769 1158 c 128,-1,2
 300.538 1158 300.538 1158 297 1181 c 0,3,4
 295 1194 295 1194 314.5 1215.5 c 2,5,-1
 357 1260.5 l 1,6,7
 441 1346.33 441 1346.33 441 1412 c 0,8,9
 441 1472.23 441 1472.23 416 1512.62 c 128,-1,10
 391 1553 391 1553 382.5 1570 c 128,-1,11
 374 1587 374 1587 386 1615.5 c 128,-1,12
 398 1644 398 1644 433.5 1665 c 128,-1,13
 469 1686 469 1686 525 1686 c 128,-1,14
 581 1686 581 1686 614 1636.5 c 128,-1,15
 647 1587 647 1587 647 1527 c 128,-1,16
 647 1467 647 1467 632.5 1425.5 c 128,-1,17
 618 1384 618 1384 594.5 1345 c 128,-1,18
 571 1306 571 1306 539.5 1272 c 128,-1,19
 508 1238 508 1238 474.5 1212.5 c 128,-1,0
 441 1187 441 1187 407 1172.5 c 128,-1,1
EndSplineSet
EndChar

StartChar: quotedblleft
Encoding: 8220 8220 80
Width: 995
Flags: HW
LayerCount: 2
Fore
SplineSet
809 1166 m 0,0,1
 692 1166 692 1166 692 1309 c 0,2,3
 692 1449.83 692 1449.83 826 1580 c 0,4,5
 943.353 1694 943.353 1694 1034 1694 c 0,6,7
 1076.23 1694 1076.23 1694 1078 1671 c 0,8,9
 1079 1658 1079 1658 1057 1636.5 c 2,10,-1
 1009.5 1591.5 l 1,11,12
 880.215 1472.35 880.215 1472.35 914.5 1369.5 c 0,13,14
 924 1341 924 1341 934.5 1320 c 128,-1,15
 945 1299 945 1299 951.5 1282 c 128,-1,16
 958 1265 958 1265 943 1236.5 c 128,-1,17
 928 1208 928 1208 890.5 1187 c 128,-1,18
 853 1166 853 1166 809 1166 c 0,0,1
409 1166 m 0,19,20
 292 1166 292 1166 292 1309 c 0,21,22
 292 1449.83 292 1449.83 426 1580 c 0,23,24
 543.353 1694 543.353 1694 634 1694 c 0,25,26
 676.231 1694 676.231 1694 678 1671 c 0,27,28
 679 1658 679 1658 657 1636.5 c 2,29,-1
 609.5 1591.5 l 1,30,31
 480.215 1472.35 480.215 1472.35 514.5 1369.5 c 0,32,33
 524 1341 524 1341 534.5 1320 c 128,-1,34
 545 1299 545 1299 551.5 1282 c 128,-1,35
 558 1265 558 1265 543 1236.5 c 128,-1,36
 528 1208 528 1208 490.5 1187 c 128,-1,37
 453 1166 453 1166 409 1166 c 0,19,20
EndSplineSet
EndChar

StartChar: quotedblright
Encoding: 8221 8221 81
Width: 985
Flags: HW
LayerCount: 2
Fore
SplineSet
966 1719 m 0,0,1
 1083 1719 1083 1719 1083 1576 c 0,2,3
 1083 1435.17 1083 1435.17 949 1305 c 0,4,5
 831.647 1191 831.647 1191 741 1191 c 0,6,7
 698.769 1191 698.769 1191 697 1214 c 0,8,9
 696 1227 696 1227 718 1248.5 c 2,10,-1
 765.5 1294 l 1,11,12
 858.166 1381.21 858.166 1381.21 863.583 1434.11 c 128,-1,13
 869 1487 869 1487 860 1515.5 c 128,-1,14
 851 1544 851 1544 840.5 1565 c 128,-1,15
 830 1586 830 1586 823.5 1603 c 128,-1,16
 817 1620 817 1620 832 1648.5 c 128,-1,17
 847 1677 847 1677 884.5 1698 c 128,-1,18
 922 1719 922 1719 966 1719 c 0,0,1
566 1719 m 0,19,20
 683 1719 683 1719 683 1576 c 0,21,22
 683 1435.17 683 1435.17 549 1305 c 0,23,24
 431.647 1191 431.647 1191 341 1191 c 0,25,26
 298.769 1191 298.769 1191 297 1214 c 0,27,28
 296 1227 296 1227 318 1248.5 c 2,29,-1
 365.5 1293.5 l 1,30,31
 493 1411 493 1411 460 1515.5 c 0,32,33
 451 1544 451 1544 440.5 1565 c 128,-1,34
 430 1586 430 1586 423.5 1603 c 128,-1,35
 417 1620 417 1620 432 1648.5 c 128,-1,36
 447 1677 447 1677 484.5 1698 c 128,-1,37
 522 1719 522 1719 566 1719 c 0,19,20
EndSplineSet
EndChar

StartChar: quotesingle
Encoding: 39 39 82
Width: 475
Flags: HW
LayerCount: 2
Fore
SplineSet
335 1156 m 0,0,1
 322 1156 322 1156 312.5 1167.5 c 128,-1,2
 303 1179 303 1179 296.5 1198.5 c 0,3,4
 283 1239 283 1239 283 1291 c 128,-1,5
 283 1343 283 1343 290.5 1392 c 128,-1,6
 298 1441 298 1441 312.5 1489 c 0,7,8
 361.128 1649.97 361.128 1649.97 449.5 1677.5 c 0,9,10
 480 1687 480 1687 508 1687 c 128,-1,11
 536 1687 536 1687 558 1682.5 c 128,-1,12
 580 1678 580 1678 597.5 1670 c 0,13,14
 636 1652.4 636 1652.4 636 1622 c 0,15,16
 636 1598 636 1598 622 1584 c 128,-1,17
 608 1570 608 1570 592.5 1552 c 128,-1,18
 577 1534 577 1534 555 1504 c 0,19,20
 504.379 1434.97 504.379 1434.97 466.689 1360.99 c 2,21,-1
 414 1255.5 l 1,22,23
 366.619 1156 366.619 1156 335 1156 c 0,0,1
EndSplineSet
EndChar

StartChar: quotesinglbase
Encoding: 8218 8218 83
Width: 549
Flags: HW
LayerCount: 2
Fore
SplineSet
153 9 m 0,0,1
 153 44 153 44 141 72.5 c 128,-1,2
 129 101 129 101 116 122 c 128,-1,3
 103 143 103 143 94.5 160 c 128,-1,4
 86 177 86 177 98 205.5 c 128,-1,5
 110 234 110 234 145.5 255 c 128,-1,6
 181 276 181 276 237 276 c 128,-1,7
 293 276 293 276 326 226.5 c 128,-1,8
 359 177 359 177 359 117.5 c 128,-1,9
 359 58 359 58 344.5 16 c 128,-1,10
 330 -26 330 -26 306.5 -65 c 128,-1,11
 283 -104 283 -104 251.5 -138 c 128,-1,12
 220 -172 220 -172 186.5 -197.5 c 0,13,14
 114.902 -252 114.902 -252 56 -252 c 0,15,16
 12.5385 -252 12.5385 -252 9 -229 c 0,17,18
 7 -216 7 -216 26.5 -194.5 c 2,19,-1
 69 -149.5 l 1,20,21
 153 -63.6739 153 -63.6739 153 9 c 0,0,1
EndSplineSet
EndChar

StartChar: quotedbl
Encoding: 34 34 84
Width: 895
Flags: HW
LayerCount: 2
Fore
SplineSet
755 1156 m 0,0,1
 742 1156 742 1156 732.5 1167.5 c 128,-1,2
 723 1179 723 1179 716.5 1198.5 c 0,3,4
 703 1239 703 1239 703 1291 c 128,-1,5
 703 1343 703 1343 710.5 1392 c 128,-1,6
 718 1441 718 1441 732.5 1489 c 0,7,8
 781.128 1649.97 781.128 1649.97 869.5 1677.5 c 0,9,10
 900 1687 900 1687 928 1687 c 128,-1,11
 956 1687 956 1687 978 1682.5 c 128,-1,12
 1000 1678 1000 1678 1017.5 1670 c 0,13,14
 1056 1652.4 1056 1652.4 1056 1622 c 0,15,16
 1056 1598 1056 1598 1042 1584 c 128,-1,17
 1028 1570 1028 1570 1012.5 1552 c 128,-1,18
 997 1534 997 1534 975 1504 c 0,19,20
 924.379 1434.97 924.379 1434.97 886.689 1360.99 c 2,21,-1
 834 1255.5 l 1,22,23
 786.619 1156 786.619 1156 755 1156 c 0,0,1
335 1156 m 0,24,25
 322 1156 322 1156 312.5 1167.5 c 128,-1,26
 303 1179 303 1179 296.5 1198.5 c 0,27,28
 283 1239 283 1239 283 1291 c 128,-1,29
 283 1343 283 1343 290.5 1392 c 128,-1,30
 298 1441 298 1441 312.5 1489 c 0,31,32
 361.128 1649.97 361.128 1649.97 449.5 1677.5 c 0,33,34
 480 1687 480 1687 508 1687 c 128,-1,35
 536 1687 536 1687 558 1682.5 c 128,-1,36
 580 1678 580 1678 597.5 1670 c 0,37,38
 636 1652.4 636 1652.4 636 1622 c 0,39,40
 636 1598 636 1598 622 1584 c 128,-1,41
 608 1570 608 1570 592.5 1552 c 128,-1,42
 577 1534 577 1534 555 1504 c 0,43,44
 504.379 1434.97 504.379 1434.97 466.689 1360.99 c 2,45,-1
 414 1255.5 l 1,46,47
 366.619 1156 366.619 1156 335 1156 c 0,24,25
EndSplineSet
EndChar

StartChar: quotedblbase
Encoding: 8222 8222 85
Width: 949
Flags: HW
LayerCount: 2
Fore
SplineSet
425 -247 m 0,0,1
 390.167 -234.56 390.167 -234.56 426.5 -194.5 c 1,2,-1
 469 -149.5 l 1,3,4
 553 -63.6739 553 -63.6739 553 2 c 0,5,6
 553 62.2308 553 62.2308 528 102.615 c 128,-1,7
 503 143 503 143 494.5 160 c 128,-1,8
 486 177 486 177 498 205.5 c 128,-1,9
 510 234 510 234 545.5 255 c 128,-1,10
 581 276 581 276 637 276 c 128,-1,11
 693 276 693 276 726 226.5 c 128,-1,12
 759 177 759 177 759 117.5 c 128,-1,13
 759 58 759 58 744.5 16 c 128,-1,14
 730 -26 730 -26 706.5 -65 c 128,-1,15
 683 -104 683 -104 651.5 -138 c 128,-1,16
 620 -172 620 -172 586.5 -197.5 c 0,17,18
 514.902 -252 514.902 -252 456 -252 c 0,19,20
 440 -252 440 -252 425 -247 c 0,0,1
153 9 m 0,21,22
 153 44 153 44 141 72.5 c 128,-1,23
 129 101 129 101 116 122 c 128,-1,24
 103 143 103 143 94.5 160 c 128,-1,25
 86 177 86 177 98 205.5 c 128,-1,26
 110 234 110 234 145.5 255 c 128,-1,27
 181 276 181 276 237 276 c 128,-1,28
 293 276 293 276 326 226.5 c 128,-1,29
 359 177 359 177 359 117.5 c 128,-1,30
 359 58 359 58 344.5 16 c 128,-1,31
 330 -26 330 -26 306.5 -65 c 128,-1,32
 283 -104 283 -104 251.5 -138 c 128,-1,33
 220 -172 220 -172 186.5 -197.5 c 0,34,35
 114.902 -252 114.902 -252 56 -252 c 0,36,37
 12.5385 -252 12.5385 -252 9 -229 c 0,38,39
 7 -216 7 -216 26.5 -194.5 c 2,40,-1
 69 -149.5 l 1,41,42
 153 -63.6739 153 -63.6739 153 9 c 0,21,22
EndSplineSet
EndChar

StartChar: guilsinglleft
Encoding: 8249 8249 86
Width: 846
Flags: HW
LayerCount: 2
Fore
SplineSet
727 1057 m 0,0,1
 752 1057 752 1057 752 1026.5 c 0,2,3
 752 951.75 752 951.75 687 903 c 1,4,-1
 358 648 l 1,5,-1
 625 350 l 2,6,7
 642 332 642 332 642 315 c 128,-1,8
 642 298 642 298 633.5 286 c 128,-1,9
 625 274 625 274 611.5 265 c 0,10,11
 583 246 583 246 552.5 246 c 0,12,13
 496 246 496 246 463 279 c 1,14,-1
 185 571 l 2,15,16
 140 619 140 619 140 651.5 c 128,-1,17
 140 684 140 684 166 711.5 c 128,-1,18
 192 739 192 739 243 770 c 2,19,-1
 692 1044 l 2,20,21
 712 1057 712 1057 727 1057 c 0,0,1
EndSplineSet
EndChar

StartChar: guilsinglright
Encoding: 8250 8250 87
Width: 853
Flags: HW
LayerCount: 2
Fore
SplineSet
141 234 m 0,0,1
 116 234 116 234 116 264.5 c 0,2,3
 116 339.25 116 339.25 181 388 c 1,4,-1
 509 642 l 1,5,-1
 243 941 l 2,6,7
 226 959 226 959 226 976 c 128,-1,8
 226 993 226 993 234.5 1005 c 128,-1,9
 243 1017 243 1017 256.5 1026 c 0,10,11
 285 1045 285 1045 315.5 1045 c 0,12,13
 372 1045 372 1045 405 1012 c 1,14,-1
 683 720 l 2,15,16
 728 672 728 672 728 639.5 c 128,-1,17
 728 607 728 607 702 579.5 c 128,-1,18
 676 552 676 552 625 521 c 2,19,-1
 176 247 l 2,20,21
 156 234 156 234 141 234 c 0,0,1
EndSplineSet
EndChar

StartChar: guillemotleft
Encoding: 171 171 88
Width: 1356
Flags: HW
LayerCount: 2
Fore
SplineSet
1237 1057 m 0,0,1
 1262 1057 1262 1057 1262 1026.5 c 0,2,3
 1262 951.75 1262 951.75 1197 903 c 1,4,-1
 868 648 l 1,5,-1
 1135 350 l 2,6,7
 1152 332 1152 332 1152 315 c 128,-1,8
 1152 298 1152 298 1143.5 286 c 128,-1,9
 1135 274 1135 274 1121.5 265 c 0,10,11
 1093 246 1093 246 1062.5 246 c 0,12,13
 1006 246 1006 246 973 279 c 1,14,-1
 695 571 l 2,15,16
 650 619 650 619 650 651.5 c 128,-1,17
 650 684 650 684 676 711.5 c 128,-1,18
 702 739 702 739 753 770 c 2,19,-1
 1202 1044 l 2,20,21
 1222 1057 1222 1057 1237 1057 c 0,0,1
727 1057 m 0,22,23
 752 1057 752 1057 752 1026.5 c 0,24,25
 752 951.75 752 951.75 687 903 c 1,26,-1
 358 648 l 1,27,-1
 625 350 l 2,28,29
 642 332 642 332 642 315 c 128,-1,30
 642 298 642 298 633.5 286 c 128,-1,31
 625 274 625 274 611.5 265 c 0,32,33
 583 246 583 246 552.5 246 c 0,34,35
 496 246 496 246 463 279 c 1,36,-1
 185 571 l 2,37,38
 140 619 140 619 140 651.5 c 128,-1,39
 140 684 140 684 166 711.5 c 128,-1,40
 192 739 192 739 243 770 c 2,41,-1
 692 1044 l 2,42,43
 712 1057 712 1057 727 1057 c 0,22,23
EndSplineSet
EndChar

StartChar: guillemotright
Encoding: 187 187 89
Width: 1363
Flags: HW
LayerCount: 2
Fore
SplineSet
651 234 m 0,0,1
 626 234 626 234 626 264.5 c 0,2,3
 626 339.25 626 339.25 691 388 c 1,4,-1
 1019 642 l 1,5,-1
 753 941 l 2,6,7
 736 959 736 959 736 976 c 128,-1,8
 736 993 736 993 744.5 1005 c 128,-1,9
 753 1017 753 1017 766.5 1026 c 0,10,11
 795 1045 795 1045 825.5 1045 c 0,12,13
 882 1045 882 1045 915 1012 c 1,14,-1
 1193 720 l 2,15,16
 1238 672 1238 672 1238 639.5 c 128,-1,17
 1238 607 1238 607 1212 579.5 c 128,-1,18
 1186 552 1186 552 1135 521 c 2,19,-1
 686 247 l 2,20,21
 666 234 666 234 651 234 c 0,0,1
141 234 m 0,22,23
 116 234 116 234 116 264.5 c 0,24,25
 116 339.25 116 339.25 181 388 c 1,26,-1
 509 642 l 1,27,-1
 243 941 l 2,28,29
 226 959 226 959 226 976 c 128,-1,30
 226 993 226 993 234.5 1005 c 128,-1,31
 243 1017 243 1017 256.5 1026 c 0,32,33
 285 1045 285 1045 315.5 1045 c 0,34,35
 372 1045 372 1045 405 1012 c 1,36,-1
 683 720 l 2,37,38
 728 672 728 672 728 639.5 c 128,-1,39
 728 607 728 607 702 579.5 c 128,-1,40
 676 552 676 552 625 521 c 2,41,-1
 176 247 l 2,42,43
 156 234 156 234 141 234 c 0,22,23
EndSplineSet
EndChar

StartChar: onesuperior
Encoding: 185 185 90
Width: 827
Flags: HW
LayerCount: 2
Fore
SplineSet
384 503 m 0,0,1
 349 475 349 475 318.5 475 c 128,-1,2
 288 475 288 475 274 487 c 128,-1,3
 260 499 260 499 260 515.5 c 0,4,5
 260 541 260 541 306 621 c 128,-1,6
 352 701 352 701 396 794.5 c 128,-1,7
 440 888 440 888 473.5 974 c 0,8,9
 536.855 1136.64 536.855 1136.64 576 1278 c 1,10,11
 483.645 1198.84 483.645 1198.84 378.5 1179 c 0,12,13
 352 1174 352 1174 324.5 1174 c 128,-1,14
 297 1174 297 1174 274.5 1192.5 c 128,-1,15
 252 1211 252 1211 252 1230.5 c 128,-1,16
 252 1250 252 1250 256 1255.5 c 128,-1,17
 260 1261 260 1261 268 1265 c 128,-1,18
 276 1269 276 1269 289.5 1273.5 c 128,-1,19
 303 1278 303 1278 329 1289 c 128,-1,20
 355 1300 355 1300 391 1325.5 c 128,-1,21
 427 1351 427 1351 462 1380 c 128,-1,22
 497 1409 497 1409 529.5 1439 c 2,23,-1
 589.5 1493 l 1,24,25
 652.521 1548 652.521 1548 668 1548 c 0,26,27
 773.86 1548 773.86 1548 813 1471.5 c 0,28,29
 824 1450 824 1450 824 1423.5 c 128,-1,30
 824 1397 824 1397 812.5 1348.5 c 128,-1,31
 801 1300 801 1300 782 1242 c 128,-1,32
 763 1184 763 1184 738.5 1120 c 128,-1,33
 714 1056 714 1056 688 995 c 1,34,-1
 636.5 879.5 l 1,35,36
 506.009 600.607 506.009 600.607 384 503 c 0,0,1
EndSplineSet
EndChar

StartChar: twosuperior
Encoding: 178 178 91
Width: 938
Flags: HW
LayerCount: 2
Fore
SplineSet
372 626 m 1,0,1
 427.929 655 427.929 655 479 655 c 2,2,-1
 619 655 l 2,3,4
 718.913 655 718.913 655 787 713 c 0,5,6
 798 723 798 723 812.5 712.5 c 128,-1,7
 827 702 827 702 827 675 c 0,8,9
 827 585 827 585 779.5 535 c 128,-1,10
 732 485 732 485 651 485 c 0,11,12
 608.412 485 608.412 485 553.706 500 c 0,13,14
 451.588 528 451.588 528 418.794 528 c 128,-1,15
 386 528 386 528 362 523 c 128,-1,16
 338 518 338 518 317 510.5 c 0,17,18
 280.303 497.394 280.303 497.394 262.652 488.197 c 0,19,20
 241.161 477 241.161 477 231.081 477 c 128,-1,21
 221 477 221 477 206 487 c 128,-1,22
 191 497 191 497 178.5 511.5 c 0,23,24
 149.088 545.618 149.088 545.618 154.044 577.809 c 128,-1,25
 159 610 159 610 188.5 651 c 128,-1,26
 218 692 218 692 263 735 c 128,-1,27
 308 778 308 778 364 824 c 0,28,29
 525.589 959.134 525.589 959.134 583.795 1013.57 c 128,-1,30
 642 1068 642 1068 684.5 1120.5 c 0,31,32
 778 1236 778 1236 778 1337 c 0,33,34
 778 1415.07 778 1415.07 709 1437.5 c 0,35,36
 689 1444 689 1444 662.5 1444 c 128,-1,37
 636 1444 636 1444 610 1430.5 c 128,-1,38
 584 1417 584 1417 565 1396.5 c 0,39,40
 525 1353.34 525 1353.34 525 1310.17 c 0,41,42
 525 1223.27 525 1223.27 553 1199 c 1,43,44
 573 1189 573 1189 573 1175.5 c 128,-1,45
 573 1162 573 1162 563 1148 c 128,-1,46
 553 1134 553 1134 537 1121.5 c 0,47,48
 497.96 1091 497.96 1091 472.98 1091 c 0,49,50
 444.667 1091 444.667 1091 418 1099 c 1,51,52
 328 1140.4 328 1140.4 328 1261 c 0,53,54
 328 1369.64 328 1369.64 420 1458.5 c 0,55,56
 520.941 1556 520.941 1556 667 1556 c 0,57,58
 827 1556 827 1556 907.5 1468.5 c 0,59,60
 969 1401.65 969 1401.65 969 1304.83 c 128,-1,61
 969 1208 969 1208 933 1134.5 c 128,-1,62
 897 1061 897 1061 840.5 1002.5 c 128,-1,63
 784 944 784 944 715 897 c 2,64,-1
 579.5 806.5 l 2,65,66
 513 763 513 763 457.5 719.5 c 128,-1,67
 402 676 402 676 372 626 c 1,0,1
EndSplineSet
EndChar

StartChar: threesuperior
Encoding: 179 179 92
Width: 882
Flags: HW
LayerCount: 2
Fore
SplineSet
704 984 m 1,0,1
 806 922 806 922 806 812 c 0,2,3
 806 690.832 806 690.832 692.5 589 c 0,4,5
 571.01 480 571.01 480 402 480 c 0,6,7
 290.508 480 290.508 480 219.5 546.5 c 0,8,9
 156 605.968 156 605.968 156 684 c 0,10,11
 156 739.657 156 739.657 182 773.829 c 0,12,13
 230.826 838 230.826 838 284.913 838 c 128,-1,14
 339 838 339 838 361.5 819.5 c 128,-1,15
 384 801 384 801 373.5 779 c 128,-1,16
 363 757 363 757 352 730.5 c 128,-1,17
 341 704 341 704 341 660 c 0,18,19
 341 579 341 579 407 579 c 0,20,21
 481.5 579 481.5 579 543 661 c 0,22,23
 601 738.333 601 738.333 601 824 c 0,24,25
 601 894.667 601 894.667 555 910 c 0,26,27
 543 914 543 914 532 914 c 1,28,-1
 455 905 l 1,29,30
 427 905 427 905 427 935 c 0,31,32
 427 994.849 427 994.849 475.5 1036 c 0,33,34
 492 1050 492 1050 523.5 1059.5 c 128,-1,35
 555 1069 555 1069 600 1093.5 c 128,-1,36
 645 1118 645 1118 682 1153 c 0,37,38
 767 1233.41 767 1233.41 767 1337 c 0,39,40
 767 1397 767 1397 739 1425.5 c 128,-1,41
 711 1454 711 1454 675 1454 c 128,-1,42
 639 1454 639 1454 615 1441.5 c 128,-1,43
 591 1429 591 1429 573 1409.5 c 0,44,45
 534 1367.25 534 1367.25 534 1323 c 256,46,47
 534 1270.25 534 1270.25 553 1258.62 c 128,-1,48
 572 1247 572 1247 572 1234.5 c 128,-1,49
 572 1222 572 1222 562 1208 c 128,-1,50
 552 1194 552 1194 536 1181.5 c 0,51,52
 496.96 1151 496.96 1151 464.48 1151 c 128,-1,53
 432 1151 432 1151 413 1162 c 128,-1,54
 394 1173 394 1173 381.5 1190.5 c 0,55,56
 357 1224.8 357 1224.8 357 1274.9 c 128,-1,57
 357 1325 357 1325 382 1376 c 128,-1,58
 407 1427 407 1427 450 1467 c 0,59,60
 545.675 1556 545.675 1556 676 1556 c 0,61,62
 827.412 1556 827.412 1556 902.5 1482 c 0,63,64
 968 1417.45 968 1417.45 968 1314 c 0,65,66
 968 1194.68 968 1194.68 875.5 1097.5 c 0,67,68
 804.123 1022.51 804.123 1022.51 704 984 c 1,0,1
EndSplineSet
EndChar

StartChar: onequarter
Encoding: 188 188 93
Width: 2024
Flags: HW
LayerCount: 2
Fore
SplineSet
551 15.5 m 128,-1,1
 513 -10 513 -10 460.5 -10 c 128,-1,2
 408 -10 408 -10 408 26 c 0,3,4
 408 55.8 408 55.8 431.5 93.4 c 0,5,6
 471.353 157.9 471.353 157.9 500.176 209.45 c 2,7,-1
 1128.5 1317 l 1,8,-1
 1260 1539 l 1,9,10
 1330.36 1652 1330.36 1652 1429 1652 c 0,11,12
 1477 1652 1477 1652 1477 1613 c 0,13,14
 1477 1563.57 1477 1563.57 1402 1450 c 0,15,16
 1381 1418 1381 1418 1344 1355 c 2,17,-1
 626 104 l 2,18,0
 589 41 589 41 551 15.5 c 128,-1,1
1497 308 m 1,19,20
 1419 300 1419 300 1369.5 300 c 0,21,22
 1283.5 300 1283.5 300 1251.75 308.5 c 128,-1,23
 1220 317 1220 317 1196.5 334.5 c 128,-1,24
 1173 352 1173 352 1155.5 375 c 0,25,26
 1115.95 426.981 1115.95 426.981 1118 468 c 0,27,28
 1118 482 1118 482 1134 512.5 c 2,29,-1
 1226.5 683.5 l 1,30,31
 1338.32 897.34 1338.32 897.34 1353 1071 c 0,32,33
 1354.86 1097 1354.86 1097 1385.43 1097 c 128,-1,34
 1416 1097 1416 1097 1441.5 1088.5 c 128,-1,35
 1467 1080 1467 1080 1489.5 1063.5 c 0,36,37
 1543 1024.27 1543 1024.27 1543 971.633 c 128,-1,38
 1543 919 1543 919 1519 849 c 128,-1,39
 1495 779 1495 779 1459 704.5 c 0,40,41
 1391.53 564.881 1391.53 564.881 1303 437 c 1,42,-1
 1313 447 l 1,43,44
 1341.12 432 1341.12 432 1395.56 432 c 128,-1,45
 1450 432 1450 432 1483 434 c 2,46,-1
 1550 438 l 1,47,48
 1616.17 612.26 1616.17 612.26 1635.09 689.63 c 128,-1,49
 1654 767 1654 767 1659 781 c 0,50,51
 1668.64 808 1668.64 808 1690.32 808 c 128,-1,52
 1712 808 1712 808 1739 798.5 c 128,-1,53
 1766 789 1766 789 1788 775 c 0,54,55
 1838 743.182 1838 743.182 1838 709 c 0,56,57
 1838 629.886 1838 629.886 1762 454 c 1,58,59
 1794.51 450.175 1794.51 450.175 1818.76 422.587 c 0,60,61
 1861 374.517 1861 374.517 1861 352.259 c 0,62,63
 1861 311.391 1861 311.391 1818 317 c 0,64,65
 1767.74 324.18 1767.74 324.18 1698 322 c 1,66,67
 1557.46 57.7822 1557.46 57.7822 1440 1.5 c 0,68,69
 1416 -10 1416 -10 1397.5 -10 c 128,-1,70
 1379 -10 1379 -10 1368 2.5 c 128,-1,71
 1357 15 1357 15 1357 39 c 128,-1,72
 1357 63 1357 63 1384 100 c 0,73,74
 1437.21 172.915 1437.21 172.915 1497 308 c 1,19,20
344 503 m 0,75,76
 309 475 309 475 278.5 475 c 128,-1,77
 248 475 248 475 234 487 c 128,-1,78
 220 499 220 499 220 515.5 c 0,79,80
 220 541 220 541 266 621 c 128,-1,81
 312 701 312 701 356 794.5 c 128,-1,82
 400 888 400 888 433.5 974 c 0,83,84
 496.855 1136.64 496.855 1136.64 536 1278 c 1,85,86
 443.645 1198.84 443.645 1198.84 338.5 1179 c 0,87,88
 312 1174 312 1174 284.5 1174 c 128,-1,89
 257 1174 257 1174 234.5 1192.5 c 128,-1,90
 212 1211 212 1211 212 1230.5 c 128,-1,91
 212 1250 212 1250 216 1255.5 c 128,-1,92
 220 1261 220 1261 228 1265 c 128,-1,93
 236 1269 236 1269 249.5 1273.5 c 128,-1,94
 263 1278 263 1278 289 1289 c 128,-1,95
 315 1300 315 1300 351 1325.5 c 128,-1,96
 387 1351 387 1351 422 1380 c 128,-1,97
 457 1409 457 1409 489.5 1439 c 2,98,-1
 549.5 1493 l 1,99,100
 612.521 1548 612.521 1548 628 1548 c 0,101,102
 733.86 1548 733.86 1548 773 1471.5 c 0,103,104
 784 1450 784 1450 784 1423.5 c 128,-1,105
 784 1397 784 1397 772.5 1348.5 c 128,-1,106
 761 1300 761 1300 742 1242 c 128,-1,107
 723 1184 723 1184 698.5 1120 c 128,-1,108
 674 1056 674 1056 648 995 c 1,109,-1
 596.5 879.5 l 1,110,111
 466.009 600.607 466.009 600.607 344 503 c 0,75,76
EndSplineSet
EndChar

StartChar: onehalf
Encoding: 189 189 94
Width: 2024
Flags: HW
LayerCount: 2
Fore
SplineSet
551 15.5 m 128,-1,1
 513 -10 513 -10 460.5 -10 c 128,-1,2
 408 -10 408 -10 408 26 c 0,3,4
 408 55.8 408 55.8 431.5 93.4 c 0,5,6
 471.353 157.9 471.353 157.9 500.176 209.45 c 2,7,-1
 1128.5 1317 l 1,8,-1
 1260 1539 l 1,9,10
 1330.36 1652 1330.36 1652 1429 1652 c 0,11,12
 1477 1652 1477 1652 1477 1613 c 0,13,14
 1477 1563.57 1477 1563.57 1402 1450 c 0,15,16
 1381 1418 1381 1418 1344 1355 c 2,17,-1
 626 104 l 2,18,0
 589 41 589 41 551 15.5 c 128,-1,1
1302 136 m 1,19,20
 1357.93 165 1357.93 165 1409 165 c 2,21,-1
 1549 165 l 2,22,23
 1648.91 165 1648.91 165 1717 223 c 0,24,25
 1728 233 1728 233 1742.5 222.5 c 128,-1,26
 1757 212 1757 212 1757 185 c 0,27,28
 1757 95 1757 95 1709.5 45 c 128,-1,29
 1662 -5 1662 -5 1581 -5 c 0,30,31
 1538.41 -5 1538.41 -5 1483.71 10 c 0,32,33
 1381.59 38 1381.59 38 1348.79 38 c 128,-1,34
 1316 38 1316 38 1292 33 c 128,-1,35
 1268 28 1268 28 1247 20.5 c 0,36,37
 1210.3 7.39392 1210.3 7.39392 1192.65 -1.80304 c 0,38,39
 1171.16 -13 1171.16 -13 1161.08 -13 c 128,-1,40
 1151 -13 1151 -13 1136 -3 c 128,-1,41
 1121 7 1121 7 1108.5 21.5 c 0,42,43
 1079.09 55.6176 1079.09 55.6176 1084.04 87.8088 c 128,-1,44
 1089 120 1089 120 1118.5 161 c 128,-1,45
 1148 202 1148 202 1193 245 c 128,-1,46
 1238 288 1238 288 1294 334 c 0,47,48
 1455.59 469.134 1455.59 469.134 1513.79 523.567 c 128,-1,49
 1572 578 1572 578 1614.5 630.5 c 0,50,51
 1708 746 1708 746 1708 847 c 0,52,53
 1708 925.075 1708 925.075 1639 947.5 c 0,54,55
 1619 954 1619 954 1592.5 954 c 128,-1,56
 1566 954 1566 954 1540 940.5 c 128,-1,57
 1514 927 1514 927 1495 906.5 c 0,58,59
 1455 863.342 1455 863.342 1455 820.171 c 0,60,61
 1455 733.267 1455 733.267 1483 709 c 1,62,63
 1503 699 1503 699 1503 685.5 c 128,-1,64
 1503 672 1503 672 1493 658 c 128,-1,65
 1483 644 1483 644 1467 631.5 c 0,66,67
 1427.96 601 1427.96 601 1402.98 601 c 0,68,69
 1374.67 601 1374.67 601 1348 609 c 1,70,71
 1258 650.4 1258 650.4 1258 771 c 0,72,73
 1258 879.636 1258 879.636 1350 968.5 c 0,74,75
 1450.94 1066 1450.94 1066 1597 1066 c 0,76,77
 1757 1066 1757 1066 1837.5 978.5 c 0,78,79
 1899 911.652 1899 911.652 1899 814.826 c 128,-1,80
 1899 718 1899 718 1863 644.5 c 128,-1,81
 1827 571 1827 571 1770.5 512.5 c 128,-1,82
 1714 454 1714 454 1645 407 c 2,83,-1
 1509.5 316.5 l 2,84,85
 1443 273 1443 273 1387.5 229.5 c 128,-1,86
 1332 186 1332 186 1302 136 c 1,19,20
344 503 m 0,87,88
 309 475 309 475 278.5 475 c 128,-1,89
 248 475 248 475 234 487 c 128,-1,90
 220 499 220 499 220 515.5 c 0,91,92
 220 541 220 541 266 621 c 128,-1,93
 312 701 312 701 356 794.5 c 128,-1,94
 400 888 400 888 433.5 974 c 0,95,96
 496.855 1136.64 496.855 1136.64 536 1278 c 1,97,98
 443.645 1198.84 443.645 1198.84 338.5 1179 c 0,99,100
 312 1174 312 1174 284.5 1174 c 128,-1,101
 257 1174 257 1174 234.5 1192.5 c 128,-1,102
 212 1211 212 1211 212 1230.5 c 128,-1,103
 212 1250 212 1250 216 1255.5 c 128,-1,104
 220 1261 220 1261 228 1265 c 128,-1,105
 236 1269 236 1269 249.5 1273.5 c 128,-1,106
 263 1278 263 1278 289 1289 c 128,-1,107
 315 1300 315 1300 351 1325.5 c 128,-1,108
 387 1351 387 1351 422 1380 c 128,-1,109
 457 1409 457 1409 489.5 1439 c 2,110,-1
 549.5 1493 l 1,111,112
 612.521 1548 612.521 1548 628 1548 c 0,113,114
 733.86 1548 733.86 1548 773 1471.5 c 0,115,116
 784 1450 784 1450 784 1423.5 c 128,-1,117
 784 1397 784 1397 772.5 1348.5 c 128,-1,118
 761 1300 761 1300 742 1242 c 128,-1,119
 723 1184 723 1184 698.5 1120 c 128,-1,120
 674 1056 674 1056 648 995 c 1,121,-1
 596.5 879.5 l 1,122,123
 466.009 600.607 466.009 600.607 344 503 c 0,87,88
EndSplineSet
EndChar

StartChar: threequarters
Encoding: 190 190 95
Width: 2064
Flags: HW
LayerCount: 2
Fore
SplineSet
651 15.5 m 128,-1,1
 613 -10 613 -10 560.5 -10 c 128,-1,2
 508 -10 508 -10 508 26 c 0,3,4
 508 55.8 508 55.8 531.5 93.4 c 0,5,6
 571.353 157.9 571.353 157.9 600.177 209.45 c 2,7,-1
 1228.5 1317 l 1,8,-1
 1360 1539 l 1,9,10
 1430.36 1652 1430.36 1652 1529 1652 c 0,11,12
 1577 1652 1577 1652 1577 1613 c 0,13,14
 1577 1563.57 1577 1563.57 1502 1450 c 0,15,16
 1481 1418 1481 1418 1444 1355 c 2,17,-1
 726 104 l 2,18,0
 689 41 689 41 651 15.5 c 128,-1,1
1578 309 m 1,19,20
 1497 300 1497 300 1456 300 c 0,21,22
 1383.5 300 1383.5 300 1351.75 308.5 c 128,-1,23
 1320 317 1320 317 1296.5 334.5 c 128,-1,24
 1273 352 1273 352 1255.5 375 c 0,25,26
 1215.95 426.981 1215.95 426.981 1218 468 c 0,27,28
 1218 482 1218 482 1234 512.5 c 2,29,-1
 1326.5 683.5 l 1,30,31
 1438.32 897.34 1438.32 897.34 1453 1071 c 0,32,33
 1454.86 1097 1454.86 1097 1482.43 1097 c 128,-1,34
 1510 1097 1510 1097 1533 1088.5 c 128,-1,35
 1556 1080 1556 1080 1576 1063.5 c 0,36,37
 1623 1024.72 1623 1024.72 1623 971.862 c 128,-1,38
 1623 919 1623 919 1599 849 c 128,-1,39
 1575 779 1575 779 1539 704.5 c 0,40,41
 1471.53 564.881 1471.53 564.881 1383 437 c 1,42,43
 1407.14 424 1407.14 424 1454.57 424 c 0,44,45
 1520.8 424 1520.8 424 1630 437 c 1,46,47
 1695.49 609.453 1695.49 609.453 1714.74 688.227 c 128,-1,48
 1734 767 1734 767 1739 781 c 0,49,50
 1754.01 823.037 1754.01 823.037 1816 798.5 c 0,51,52
 1864.92 779.137 1864.92 779.137 1881.46 752.069 c 128,-1,53
 1898 725 1898 725 1898 709 c 0,54,55
 1898 624.973 1898 624.973 1820 450 c 1,56,57
 1867.6 430.961 1867.6 430.961 1894 372.5 c 0,58,59
 1901 357 1901 357 1901 343.5 c 0,60,61
 1901 311.391 1901 311.391 1867 315.696 c 0,62,63
 1803.41 323.746 1803.41 323.746 1758 322 c 1,64,65
 1617.46 57.7822 1617.46 57.7822 1500 1.5 c 0,66,67
 1476 -10 1476 -10 1457 -10 c 0,68,69
 1428 -10 1428 -10 1428 21 c 128,-1,70
 1428 52 1428 52 1459.5 94.5 c 0,71,72
 1517.98 173.405 1517.98 173.405 1578 309 c 1,19,20
628 984 m 1,73,74
 730 922 730 922 730 812 c 0,75,76
 730 690.832 730 690.832 616.5 589 c 0,77,78
 495.01 480 495.01 480 326 480 c 0,79,80
 214.508 480 214.508 480 143.5 546.5 c 0,81,82
 80 605.968 80 605.968 80 684 c 0,83,84
 80 739.657 80 739.657 106 773.829 c 0,85,86
 154.826 838 154.826 838 208.913 838 c 128,-1,87
 263 838 263 838 285.5 819.5 c 128,-1,88
 308 801 308 801 297.5 779 c 128,-1,89
 287 757 287 757 276 730.5 c 128,-1,90
 265 704 265 704 265 660 c 0,91,92
 265 579 265 579 331 579 c 0,93,94
 405.5 579 405.5 579 467 661 c 0,95,96
 525 738.333 525 738.333 525 824 c 0,97,98
 525 894.667 525 894.667 479 910 c 0,99,100
 467 914 467 914 456 914 c 1,101,-1
 379 905 l 1,102,103
 351 905 351 905 351 935 c 0,104,105
 351 994.849 351 994.849 399.5 1036 c 0,106,107
 416 1050 416 1050 447.5 1059.5 c 128,-1,108
 479 1069 479 1069 524 1093.5 c 128,-1,109
 569 1118 569 1118 606 1153 c 0,110,111
 691 1233.41 691 1233.41 691 1337 c 0,112,113
 691 1397 691 1397 663 1425.5 c 128,-1,114
 635 1454 635 1454 599 1454 c 128,-1,115
 563 1454 563 1454 539 1441.5 c 128,-1,116
 515 1429 515 1429 497 1409.5 c 0,117,118
 458 1367.25 458 1367.25 458 1323 c 256,119,120
 458 1270.25 458 1270.25 477 1258.62 c 128,-1,121
 496 1247 496 1247 496 1234.5 c 128,-1,122
 496 1222 496 1222 486 1208 c 128,-1,123
 476 1194 476 1194 460 1181.5 c 0,124,125
 420.96 1151 420.96 1151 388.48 1151 c 128,-1,126
 356 1151 356 1151 337 1162 c 128,-1,127
 318 1173 318 1173 305.5 1190.5 c 0,128,129
 281 1224.8 281 1224.8 281 1274.9 c 128,-1,130
 281 1325 281 1325 306 1376 c 128,-1,131
 331 1427 331 1427 374 1467 c 0,132,133
 469.675 1556 469.675 1556 600 1556 c 0,134,135
 751.412 1556 751.412 1556 826.5 1482 c 0,136,137
 892 1417.45 892 1417.45 892 1314 c 0,138,139
 892 1194.68 892 1194.68 799.5 1097.5 c 0,140,141
 728.123 1022.51 728.123 1022.51 628 984 c 1,73,74
EndSplineSet
EndChar

StartChar: ordfeminine
Encoding: 170 170 96
Width: 1156
Flags: HW
LayerCount: 2
Fore
SplineSet
913 829 m 1,0,1
 913 744 913 744 971 744 c 0,2,3
 1008.88 744 1008.88 744 1035.44 756.5 c 128,-1,4
 1062 769 1062 769 1071 769 c 0,5,6
 1089 769 1089 769 1089 749.5 c 0,7,8
 1089 672.104 1089 672.104 1006 618.5 c 0,9,10
 949.484 582 949.484 582 903.242 582 c 128,-1,11
 857 582 857 582 831.5 591.5 c 128,-1,12
 806 601 806 601 785.5 622 c 0,13,14
 740 668.61 740 668.61 740 763 c 0,15,16
 740 780.5 740 780.5 749 839 c 1,17,18
 667.457 671.622 667.457 671.622 545.5 607.5 c 0,19,20
 497 582 497 582 442 582 c 128,-1,21
 387 582 387 582 346 604.5 c 128,-1,22
 305 627 305 627 277 666.5 c 0,23,24
 217.961 749.787 217.961 749.787 221.48 852.894 c 128,-1,25
 225 956 225 956 250 1034 c 128,-1,26
 275 1112 275 1112 315.5 1181.5 c 128,-1,27
 356 1251 356 1251 409 1310 c 128,-1,28
 462 1369 462 1369 520.5 1411.5 c 0,29,30
 645.071 1502 645.071 1502 753.088 1502 c 128,-1,31
 861.105 1502 861.105 1502 923 1404 c 1,32,33
 982.889 1502 982.889 1502 1030 1502 c 0,34,35
 1079.91 1502 1079.91 1502 1106.46 1483.5 c 0,36,37
 1155.62 1449.24 1155.62 1449.24 1141.81 1422.12 c 0,38,39
 921.372 968.576 921.372 968.576 914 858 c 1,40,-1
 913 829 l 1,0,1
484 727 m 0,41,42
 568.037 727 568.037 727 682.5 904.5 c 0,43,44
 793.038 1075.91 793.038 1075.91 849 1278 c 1,45,46
 844.845 1344.48 844.845 1344.48 799 1376 c 0,47,48
 783 1387 783 1387 755 1387 c 128,-1,49
 727 1387 727 1387 689.5 1363 c 128,-1,50
 652 1339 652 1339 614.5 1298 c 128,-1,51
 577 1257 577 1257 542.5 1202 c 128,-1,52
 508 1147 508 1147 481.5 1085.5 c 0,53,54
 424 952.057 424 952.057 424 839.528 c 128,-1,55
 424 727 424 727 484 727 c 0,41,42
EndSplineSet
EndChar

StartChar: ordmasculine
Encoding: 186 186 97
Width: 1021
Flags: HW
LayerCount: 2
Fore
SplineSet
643 608.5 m 0,0,1
 577 582 577 582 511 582 c 128,-1,2
 445 582 445 582 392 599 c 128,-1,3
 339 616 339 616 300 651 c 0,4,5
 216.912 725.566 216.912 725.566 215 869 c 0,6,7
 212.995 1015.34 212.995 1015.34 285.5 1163.5 c 0,8,9
 356.543 1308.67 356.543 1308.67 476.5 1403 c 0,10,11
 602.402 1502 602.402 1502 740 1502 c 0,12,13
 931.136 1502 931.136 1502 999.5 1342 c 0,14,15
 1047.18 1230.41 1047.18 1230.41 1007 1063 c 0,16,17
 970.935 912.73 970.935 912.73 872 787 c 0,18,19
 772.436 660.47 772.436 660.47 643 608.5 c 0,0,1
497.5 694 m 0,20,21
 568.563 694 568.563 694 646.5 789.5 c 0,22,23
 761.908 930.916 761.908 930.916 805.5 1129.5 c 0,24,25
 824.678 1216.87 824.678 1216.87 817.339 1272.43 c 128,-1,26
 810 1328 810 1328 800.5 1347.5 c 0,27,28
 779.795 1390 779.795 1390 741.397 1390 c 128,-1,29
 703 1390 703 1390 668 1365.5 c 128,-1,30
 633 1341 633 1341 598 1299.5 c 128,-1,31
 563 1258 563 1258 530.5 1202.5 c 128,-1,32
 498 1147 498 1147 473 1085 c 0,33,34
 417.126 946.433 417.126 946.433 419.157 820.216 c 128,-1,35
 421.188 694 421.188 694 497.5 694 c 0,20,21
EndSplineSet
EndChar

StartChar: degree
Encoding: 176 176 98
Width: 831
Flags: HW
LayerCount: 2
Fore
SplineSet
491 890 m 0,0,1
 226 890 226 890 226 1139 c 0,2,3
 226 1148 226 1148 226 1157 c 0,4,5
 226 1234.29 226 1234.29 260 1307.14 c 128,-1,6
 294 1380 294 1380 347 1434 c 0,7,8
 465.759 1555 465.759 1555 633 1555 c 0,9,10
 814.134 1555 814.134 1555 868 1417.5 c 0,11,12
 887 1369 887 1369 887 1330.5 c 2,13,-1
 887 1283 l 2,14,15
 887 1210.4 887 1210.4 854 1136.7 c 128,-1,16
 821 1063 821 1063 769.5 1009.5 c 0,17,18
 654.467 890 654.467 890 491 890 c 0,0,1
495 990 m 0,19,20
 570.688 990 570.688 990 632 1099 c 0,21,22
 688.373 1199.22 688.373 1199.22 695.186 1292.11 c 128,-1,23
 702 1385 702 1385 681 1420 c 128,-1,24
 660 1455 660 1455 622.5 1455 c 128,-1,25
 585 1455 585 1455 552 1431.5 c 128,-1,26
 519 1408 519 1408 490 1366.5 c 0,27,28
 424.554 1272.84 424.554 1272.84 414.277 1131.42 c 128,-1,29
 404 990 404 990 495 990 c 0,19,20
EndSplineSet
EndChar

StartChar: less
Encoding: 60 60 99
Width: 1305
Flags: HW
LayerCount: 2
Fore
SplineSet
1118 1177 m 0,0,1
 1162 1177 1162 1177 1162 1119 c 0,2,3
 1162 1055.24 1162 1055.24 1107 1023 c 2,4,-1
 411 618 l 1,5,-1
 1126 203 l 2,6,7
 1161 182.737 1161 182.737 1161 161.368 c 128,-1,8
 1161 140 1161 140 1154 127.5 c 128,-1,9
 1147 115 1147 115 1135.5 105.5 c 0,10,11
 1110.68 85 1110.68 85 1078.84 85 c 128,-1,12
 1047 85 1047 85 1023 99 c 2,13,-1
 216 544 l 1,14,15
 135 591.769 135 591.769 135 618.885 c 128,-1,16
 135 646 135 646 196 678 c 1,17,-1
 1083 1167 l 2,18,19
 1102 1177 1102 1177 1118 1177 c 0,0,1
EndSplineSet
EndChar

StartChar: greater
Encoding: 62 62 100
Width: 1242
Flags: HW
LayerCount: 2
Fore
SplineSet
193 88 m 0,0,1
 149 88 149 88 149 146 c 0,2,3
 149 209.759 149 209.759 204 242 c 2,4,-1
 899 647 l 1,5,-1
 185 1062 l 2,6,7
 150 1082.26 150 1082.26 150 1103.63 c 128,-1,8
 150 1125 150 1125 157 1137.5 c 128,-1,9
 164 1150 164 1150 175.5 1159.5 c 0,10,11
 200.316 1180 200.316 1180 232.158 1180 c 128,-1,12
 264 1180 264 1180 288 1166 c 2,13,-1
 1095 721 l 1,14,15
 1176 673.231 1176 673.231 1176 646.115 c 128,-1,16
 1176 619 1176 619 1115 587 c 1,17,-1
 228 98 l 2,18,19
 209 88 209 88 193 88 c 0,0,1
EndSplineSet
EndChar

StartChar: plus
Encoding: 43 43 101
Width: 1265
Flags: HW
LayerCount: 2
Fore
SplineSet
618 244 m 0,0,1
 571 244 571 244 571 300 c 2,2,-1
 571 684 l 1,3,-1
 211 684 l 2,4,5
 142 684 142 684 142 733 c 0,6,7
 142 767 142 767 164.5 789.5 c 0,8,9
 205.905 830.905 205.905 830.905 244 829 c 1,10,-1
 571 829 l 1,11,-1
 571 1156 l 1,12,13
 569.095 1194.1 569.095 1194.1 592.548 1217.55 c 0,14,15
 633 1258 633 1258 667 1258 c 0,16,17
 716 1258 716 1258 716 1189 c 2,18,-1
 716 829 l 1,19,-1
 1100 829 l 2,20,21
 1156 829 1156 829 1156 782 c 0,22,23
 1156 747 1156 747 1133.5 724.5 c 0,24,25
 1093 684 1093 684 1047 684 c 2,26,-1
 716 684 l 1,27,-1
 716 353 l 2,28,29
 716 307 716 307 692.5 283.5 c 0,30,31
 653 244 653 244 618 244 c 0,0,1
EndSplineSet
EndChar

StartChar: plusminus
Encoding: 177 177 102
Width: 1265
Flags: HW
LayerCount: 2
Fore
SplineSet
616 324 m 0,0,1
 569 324 569 324 569 380 c 2,2,-1
 569 764 l 1,3,-1
 209 764 l 2,4,5
 140 764 140 764 140 813 c 0,6,7
 140 847 140 847 162.5 869.5 c 0,8,9
 203.905 910.905 203.905 910.905 242 909 c 1,10,-1
 569 909 l 1,11,-1
 569 1236 l 1,12,13
 567.095 1274.1 567.095 1274.1 590.548 1297.55 c 0,14,15
 631 1338 631 1338 665 1338 c 0,16,17
 714 1338 714 1338 714 1269 c 2,18,-1
 714 909 l 1,19,-1
 1098 909 l 2,20,21
 1154 909 1154 909 1154 862 c 0,22,23
 1154 827 1154 827 1131.5 804.5 c 0,24,25
 1091 764 1091 764 1045 764 c 2,26,-1
 714 764 l 1,27,-1
 714 433 l 2,28,29
 714 387 714 387 690.5 363.5 c 0,30,31
 651 324 651 324 616 324 c 0,0,1
1098 145 m 2,32,33
 1154 145 1154 145 1154 98 c 0,34,35
 1154 63 1154 63 1131.5 40.5 c 0,36,37
 1091 0 1091 0 1045 0 c 2,38,-1
 209 0 l 2,39,40
 140 0 140 0 140 49 c 0,41,42
 140 83 140 83 162.5 105.5 c 0,43,44
 203.905 146.905 203.905 146.905 242 145 c 1,45,-1
 1098 145 l 2,32,33
EndSplineSet
EndChar

StartChar: hyphen
Encoding: 45 45 103
Width: 926
Flags: HW
LayerCount: 2
Fore
SplineSet
228 540 m 2,0,1
 171 540 171 540 171 584 c 0,2,3
 171 624.059 171 624.059 200 659.029 c 0,4,5
 252.263 722.053 252.263 722.053 281 720 c 1,6,-1
 743 720 l 2,7,8
 787 720 787 720 787 680 c 0,9,10
 787 638.029 787 638.029 758.5 603.014 c 0,11,12
 707.209 540 707.209 540 670 540 c 2,13,-1
 228 540 l 2,0,1
EndSplineSet
EndChar

StartChar: equal
Encoding: 61 61 104
Width: 1265
Flags: HW
LayerCount: 2
Fore
SplineSet
1126 1032 m 2,0,1
 1182 1032 1182 1032 1182 985 c 0,2,3
 1182 950 1182 950 1159.5 927.5 c 0,4,5
 1119 887 1119 887 1073 887 c 2,6,-1
 237 887 l 2,7,8
 168 887 168 887 168 936 c 0,9,10
 168 970 168 970 190.5 992.5 c 0,11,12
 231.905 1033.9 231.905 1033.9 270 1032 c 1,13,-1
 1126 1032 l 2,0,1
1106 632 m 2,14,15
 1162 632 1162 632 1162 585 c 0,16,17
 1162 550 1162 550 1139.5 527.5 c 0,18,19
 1099 487 1099 487 1053 487 c 2,20,-1
 217 487 l 2,21,22
 148 487 148 487 148 536 c 0,23,24
 148 570 148 570 170.5 592.5 c 0,25,26
 211.905 633.905 211.905 633.905 250 632 c 1,27,-1
 1106 632 l 2,14,15
EndSplineSet
EndChar

StartChar: multiply
Encoding: 215 215 105
Width: 1174
Flags: HW
LayerCount: 2
Fore
SplineSet
529 704 m 1,0,-1
 232 1019 l 2,1,2
 212 1040 212 1040 212 1062 c 128,-1,3
 212 1084 212 1084 235 1099 c 128,-1,4
 258 1114 258 1114 283.5 1114 c 0,5,6
 336 1114 336 1114 369 1081 c 1,7,-1
 629 804 l 1,8,-1
 906 1081 l 2,9,10
 939 1114 939 1114 978 1114 c 128,-1,11
 1017 1114 1017 1114 1040.5 1099 c 128,-1,12
 1064 1084 1064 1084 1064 1062 c 128,-1,13
 1064 1040 1064 1040 1043 1019 c 2,14,-1
 725 702 l 1,15,-1
 1005 405 l 1,16,17
 1033 377 1033 377 1033 352.5 c 128,-1,18
 1033 328 1033 328 1009.5 314 c 128,-1,19
 986 300 986 300 961 300 c 0,20,21
 910.067 300 910.067 300 883 329 c 2,22,-1
 625 602 l 1,23,-1
 352 329 l 1,24,25
 324.933 300 324.933 300 286.967 300 c 128,-1,26
 249 300 249 300 225.5 314 c 128,-1,27
 202 328 202 328 202 352.5 c 128,-1,28
 202 377 202 377 230 405 c 2,29,-1
 529 704 l 1,0,-1
EndSplineSet
EndChar

StartChar: divide
Encoding: 247 247 106
Width: 1265
Flags: HW
LayerCount: 2
Fore
SplineSet
731.5 998 m 128,-1,1
 707 985 707 985 678.5 982 c 128,-1,2
 650 979 650 979 623.5 989.5 c 128,-1,3
 597 1000 597 1000 578 1019 c 0,4,5
 537 1060 537 1060 537 1105.5 c 128,-1,6
 537 1151 537 1151 549.5 1176.5 c 128,-1,7
 562 1202 562 1202 580.5 1217 c 0,8,9
 613.8 1244 613.8 1244 650.9 1244 c 128,-1,10
 688 1244 688 1244 714.5 1239 c 128,-1,11
 741 1234 741 1234 763.5 1222 c 0,12,13
 817 1193.47 817 1193.47 817 1151.73 c 128,-1,14
 817 1110 817 1110 805.5 1081.5 c 128,-1,15
 794 1053 794 1053 775 1032 c 128,-1,0
 756 1011 756 1011 731.5 998 c 128,-1,1
1118 829 m 2,16,17
 1174 829 1174 829 1174 782 c 0,18,19
 1174 747 1174 747 1151.5 724.5 c 0,20,21
 1111 684 1111 684 1065 684 c 2,22,-1
 229 684 l 2,23,24
 160 684 160 684 160 733 c 0,25,26
 160 767 160 767 182.5 789.5 c 0,27,28
 223.905 830.905 223.905 830.905 262 829 c 1,29,-1
 1118 829 l 2,16,17
523 324.5 m 128,-1,31
 512 349 512 349 512 381 c 128,-1,32
 512 413 512 413 524.5 438.5 c 128,-1,33
 537 464 537 464 555.5 479 c 0,34,35
 588.8 506 588.8 506 625.9 506 c 128,-1,36
 663 506 663 506 689.5 501 c 128,-1,37
 716 496 716 496 738.5 484.5 c 0,38,39
 792 457.156 792 457.156 792 414.578 c 128,-1,40
 792 372 792 372 780.5 343.5 c 128,-1,41
 769 315 769 315 750 294 c 0,42,43
 710.457 250.295 710.457 250.295 668.229 245.647 c 128,-1,44
 626 241 626 241 599.5 251.5 c 128,-1,45
 573 262 573 262 553.5 281 c 128,-1,30
 534 300 534 300 523 324.5 c 128,-1,31
EndSplineSet
EndChar

StartChar: logicalnot
Encoding: 172 172 107
Width: 1495
Flags: HW
LayerCount: 2
Fore
SplineSet
227 639 m 2,0,1
 158 639 158 639 158 691 c 0,2,3
 158 726.179 158 726.179 180.5 751.089 c 0,4,5
 221.019 795.949 221.019 795.949 260 794 c 1,6,-1
 1246 794 l 1,7,8
 1297.32 792.099 1297.32 792.099 1302 750 c 1,9,10
 1313 733 1313 733 1313 705 c 1,11,-1
 1293 239 l 1,12,13
 1293 193.027 1293 193.027 1251.5 160.5 c 0,14,15
 1212.59 130 1212.59 130 1168 130 c 0,16,17
 1108 130 1108 130 1108 186 c 1,18,-1
 1136 639 l 1,19,-1
 227 639 l 2,0,1
EndSplineSet
EndChar

StartChar: mu
Encoding: 181 181 108
Width: 1266
Flags: HW
LayerCount: 2
Fore
SplineSet
333 -10 m 0,0,1
 243.643 -10 243.643 -10 196 48 c 1,2,3
 145.026 -153.858 145.026 -153.858 113 -476 c 0,4,5
 103.667 -560 103.667 -560 31 -560 c 0,6,7
 -5 -560 -5 -560 -29 -537.5 c 0,8,9
 -74.7098 -494.647 -74.7098 -494.647 -71 -439 c 0,10,11
 -38.9643 34.4167 -38.9643 34.4167 188 564 c 0,12,13
 274.552 765.956 274.552 765.956 338.276 865.978 c 0,14,15
 445.96 1035 445.96 1035 485 1035 c 0,16,17
 538.214 1035 538.214 1035 568.607 1012 c 0,18,19
 622.944 970.88 622.944 970.88 609.972 944.44 c 2,20,-1
 516.5 760 l 1,21,22
 337 395.115 337 395.115 337 238 c 0,23,24
 337 169 337 169 402 169 c 0,25,26
 470.296 169 470.296 169 583.5 300.5 c 0,27,28
 676.618 408.668 676.618 408.668 768 568 c 1,29,30
 996.157 972.344 996.157 972.344 1010.58 991.172 c 0,31,32
 1044.15 1035 1044.15 1035 1077.57 1035 c 128,-1,33
 1111 1035 1111 1035 1136 1027.5 c 128,-1,34
 1161 1020 1161 1020 1179 1006.5 c 0,35,36
 1221 975 1221 975 1205.5 944 c 0,37,38
 953.736 421.875 953.736 421.875 947 304 c 0,39,40
 945 282 945 282 945 252 c 0,41,42
 945 166 945 166 993 166 c 0,43,44
 1035.27 166 1035.27 166 1069.64 184 c 128,-1,45
 1104 202 1104 202 1114 202 c 0,46,47
 1135 202 1135 202 1135 180.5 c 0,48,49
 1135 93.6078 1135 93.6078 1044.5 31.5 c 0,50,51
 947.233 -35.2516 947.233 -35.2516 851 2 c 0,52,53
 785.116 27.5035 785.116 27.5035 754.5 107.5 c 0,54,55
 739 148 739 148 739 195 c 0,56,57
 739 278.111 739 278.111 758 352 c 1,58,-1
 698.5 272.5 l 1,59,60
 484.072 -9.99999 484.072 -9.99999 333 -10 c 0,0,1
EndSplineSet
EndChar

StartChar: percent
Encoding: 37 37 109
Width: 1795
Flags: HW
LayerCount: 2
Fore
SplineSet
365 24 m 128,-1,1
 326 -4 326 -4 274 -4 c 128,-1,2
 222 -4 222 -4 222 31 c 0,3,4
 222 60.4783 222 60.4783 249.5 98.7391 c 128,-1,5
 277 137 277 137 291 155.5 c 128,-1,6
 305 174 305 174 352 231.5 c 0,7,8
 1286.35 1383.81 1286.35 1383.81 1339 1445 c 1,9,10
 1422.7 1558 1422.7 1558 1528 1558 c 0,11,12
 1577 1558 1577 1558 1577 1526 c 0,13,14
 1577 1482 1577 1482 1481 1356 c 1,15,-1
 1296.5 1125.5 l 1,16,-1
 685.5 387.5 l 1,17,-1
 449 110 l 1,18,0
 404 52 404 52 365 24 c 128,-1,1
532.5 820.5 m 128,-1,20
 478 800 478 800 419.5 800 c 128,-1,21
 361 800 361 800 312.5 816.5 c 128,-1,22
 264 833 264 833 228.5 866.5 c 0,23,24
 154 936.803 154 936.803 154 1076 c 0,25,26
 154 1244.43 154 1244.43 283 1396 c 0,27,28
 418.319 1555 418.319 1555 594 1555 c 0,29,30
 770.887 1555 770.887 1555 829 1401 c 0,31,32
 849 1348 849 1348 849 1285 c 128,-1,33
 849 1222 849 1222 833.5 1166 c 128,-1,34
 818 1110 818 1110 790 1057 c 128,-1,35
 762 1004 762 1004 722.5 957.5 c 128,-1,36
 683 911 683 911 635 876 c 128,-1,19
 587 841 587 841 532.5 820.5 c 128,-1,20
416 910 m 0,37,38
 468.044 910 468.044 910 526.5 985 c 0,39,40
 610.903 1093.29 610.903 1093.29 644 1250.5 c 0,41,42
 654 1298 654 1298 654 1329 c 128,-1,43
 654 1360 654 1360 651.5 1379.5 c 128,-1,44
 649 1399 649 1399 641.5 1413.5 c 0,45,46
 625.207 1445 625.207 1445 594.103 1445 c 128,-1,47
 563 1445 563 1445 537 1426.5 c 128,-1,48
 511 1408 511 1408 484.5 1375.5 c 128,-1,49
 458 1343 458 1343 433 1300.5 c 128,-1,50
 408 1258 408 1258 388.5 1209.5 c 0,51,52
 346 1103.79 346 1103.79 346 1006.9 c 128,-1,53
 346 910 346 910 416 910 c 0,37,38
973.5 142 m 0,54,55
 954 194 954 194 954 257 c 128,-1,56
 954 320 954 320 969.5 376.5 c 128,-1,57
 985 433 985 433 1014 486 c 128,-1,58
 1043 539 1043 539 1083 586 c 128,-1,59
 1123 633 1123 633 1172 668.5 c 0,60,61
 1277.59 745 1277.59 745 1394 745 c 0,62,63
 1570.89 745 1570.89 745 1629 591 c 0,64,65
 1649 538 1649 538 1649 475 c 128,-1,66
 1649 412 1649 412 1633.5 356 c 128,-1,67
 1618 300 1618 300 1590 247 c 128,-1,68
 1562 194 1562 194 1522.5 147.5 c 128,-1,69
 1483 101 1483 101 1435 66 c 0,70,71
 1330.77 -9.99996 1330.77 -9.99996 1219 -10 c 0,72,73
 1030.5 -10 1030.5 -10 973.5 142 c 0,54,55
1216 100 m 0,74,75
 1268.04 100 1268.04 100 1326.5 175 c 0,76,77
 1410.9 283.291 1410.9 283.291 1444 440.5 c 0,78,79
 1454 488 1454 488 1454 519 c 128,-1,80
 1454 550 1454 550 1451.5 569.5 c 128,-1,81
 1449 589 1449 589 1441.5 603.5 c 0,82,83
 1425.21 635 1425.21 635 1394.1 635 c 128,-1,84
 1363 635 1363 635 1337 616.5 c 128,-1,85
 1311 598 1311 598 1284.5 565.5 c 128,-1,86
 1258 533 1258 533 1233 490.5 c 128,-1,87
 1208 448 1208 448 1188.5 399.5 c 0,88,89
 1146 293.795 1146 293.795 1146 196.897 c 128,-1,90
 1146 100 1146 100 1216 100 c 0,74,75
EndSplineSet
EndChar

StartChar: numbersign
Encoding: 35 35 110
Width: 1486
Flags: HW
LayerCount: 2
Fore
SplineSet
736 -10 m 0,0,1
 703 -10 703 -10 703 20 c 0,2,3
 703 41 703 41 716.5 73.5 c 128,-1,4
 730 106 730 106 744 148 c 2,5,-1
 830 419 l 1,6,-1
 587 419 l 1,7,-1
 476 106 l 1,8,9
 447.036 29.9697 447.036 29.9697 389.5 0.5 c 0,10,11
 369 -10 369 -10 336 -10 c 128,-1,12
 303 -10 303 -10 303 20 c 0,13,14
 303 41 303 41 316.5 73.5 c 128,-1,15
 330 106 330 106 344 148 c 2,16,-1
 430 419 l 1,17,-1
 166 419 l 2,18,19
 108 419 108 419 108 462 c 0,20,21
 108 502.684 108 502.684 139.5 535.842 c 0,22,23
 196.582 595.928 196.582 595.928 239 594 c 1,24,-1
 486 594 l 1,25,-1
 558 819 l 1,26,-1
 296 819 l 2,27,28
 238 819 238 819 238 862 c 0,29,30
 238 902.684 238 902.684 269.5 935.842 c 0,31,32
 326.582 995.928 326.582 995.928 369 994 c 1,33,-1
 614 994 l 1,34,-1
 757 1442 l 1,35,36
 780 1500 780 1500 821 1527.5 c 128,-1,37
 862 1555 862 1555 915 1555 c 128,-1,38
 968 1555 968 1555 968 1512 c 0,39,40
 968 1486 968 1486 953.5 1446.5 c 2,41,-1
 791 994 l 1,42,-1
 1014 994 l 1,43,-1
 1157 1442 l 1,44,45
 1180 1500 1180 1500 1221 1527.5 c 128,-1,46
 1262 1555 1262 1555 1315 1555 c 128,-1,47
 1368 1555 1368 1555 1368 1512 c 0,48,49
 1368 1486 1368 1486 1353.5 1446.5 c 2,50,-1
 1191 994 l 1,51,-1
 1415 994 l 2,52,53
 1460 994 1460 994 1460 954 c 0,54,55
 1460 911.18 1460 911.18 1429 878.59 c 0,56,57
 1372.32 819 1372.32 819 1322 819 c 2,58,-1
 1129 819 l 1,59,-1
 1049 594 l 1,60,-1
 1285 594 l 2,61,62
 1330 594 1330 594 1330 554 c 0,63,64
 1330 511.179 1330 511.179 1299 478.59 c 0,65,66
 1242.32 419 1242.32 419 1192 419 c 2,67,-1
 987 419 l 1,68,-1
 876 106 l 1,69,70
 831.81 -10 831.81 -10 736 -10 c 0,0,1
886 594 m 1,71,-1
 958 819 l 1,72,-1
 729 819 l 1,73,-1
 649 594 l 1,74,-1
 886 594 l 1,71,-1
EndSplineSet
EndChar

StartChar: asterisk
Encoding: 42 42 111
Width: 1061
Flags: HW
LayerCount: 2
Fore
SplineSet
974 1139 m 0,0,1
 830.493 1146.18 830.493 1146.18 699 1072 c 1,2,-1
 749.5 1023.5 l 2,3,4
 866 911.088 866 911.088 866 864 c 0,5,6
 866 806.611 866 806.611 795 779 c 0,7,8
 777 772 777 772 756.5 772 c 128,-1,9
 736 772 736 772 727 788 c 2,10,-1
 666 892.5 l 2,11,12
 631 951 631 951 590 1011 c 1,13,14
 538 983 538 983 492.5 943.5 c 2,15,-1
 410.5 870 l 2,16,17
 374 836 374 836 347 815.5 c 128,-1,18
 320 795 320 795 299.5 808.5 c 128,-1,19
 279 822 279 822 279 848.5 c 128,-1,20
 279 875 279 875 295.5 903.5 c 128,-1,21
 312 932 312 932 339.5 962 c 0,22,23
 394.351 1021.84 394.351 1021.84 476 1082 c 1,24,25
 347.373 1168.91 347.373 1168.91 316.5 1263 c 0,26,27
 290.914 1340.98 290.914 1340.98 358 1386.5 c 0,28,29
 392.292 1409.77 392.292 1409.77 399.646 1390.38 c 128,-1,30
 407 1371 407 1371 423 1346 c 128,-1,31
 439 1321 439 1321 460 1293.5 c 0,32,33
 510.077 1227.92 510.077 1227.92 555 1183 c 1,34,-1
 555 1202 l 2,35,36
 555 1357.74 555 1357.74 603.5 1474.5 c 0,37,38
 617 1507 617 1507 634 1523 c 0,39,40
 670.125 1557 670.125 1557 744 1557 c 0,41,42
 820.174 1557 820.174 1557 849.5 1521.5 c 0,43,44
 859 1510 859 1510 859 1491.5 c 128,-1,45
 859 1473 859 1473 844 1455.5 c 2,46,-1
 810 1414 l 1,47,48
 726.511 1308.54 726.511 1308.54 656 1165 c 1,49,-1
 707.5 1203 l 2,50,51
 809.8 1277.4 809.8 1277.4 913 1299 c 0,52,53
 958.182 1308.41 958.182 1308.41 991.5 1270.5 c 0,54,55
 1021 1236.93 1021 1236.93 1021 1187.03 c 128,-1,56
 1021 1137.12 1021 1137.12 974 1139 c 0,0,1
EndSplineSet
EndChar

StartChar: endash
Encoding: 8211 8211 112
Width: 1540
Flags: HW
LayerCount: 2
Fore
SplineSet
235 540 m 2,0,1
 178 540 178 540 178 584 c 0,2,3
 178 624.059 178 624.059 207 659.029 c 0,4,5
 259.263 722.053 259.263 722.053 288 720 c 1,6,-1
 1354 720 l 2,7,8
 1398 720 1398 720 1398 680 c 0,9,10
 1398 638.029 1398 638.029 1369.5 603.014 c 0,11,12
 1318.21 540 1318.21 540 1281 540 c 2,13,-1
 235 540 l 2,0,1
EndSplineSet
EndChar

StartChar: emdash
Encoding: 8212 8212 113
Width: 2185
Flags: HW
LayerCount: 2
Fore
SplineSet
243 540 m 2,0,1
 186 540 186 540 186 584 c 0,2,3
 186 624.059 186 624.059 215 659.029 c 0,4,5
 267.263 722.053 267.263 722.053 296 720 c 1,6,-1
 2009 720 l 2,7,8
 2053 720 2053 720 2053 680 c 0,9,10
 2053 638.029 2053 638.029 2024.5 603.014 c 0,11,12
 1973.21 540 1973.21 540 1936 540 c 2,13,-1
 243 540 l 2,0,1
EndSplineSet
EndChar

StartChar: slash
Encoding: 47 47 114
Width: 831
Flags: HW
LayerCount: 2
Fore
SplineSet
-17 -322.5 m 128,-1,1
 -55 -348 -55 -348 -107.5 -348 c 128,-1,2
 -160 -348 -160 -348 -160 -312 c 0,3,4
 -160 -282.2 -160 -282.2 -136.5 -244.6 c 1,5,-1
 -57 -109.5 l 1,6,-1
 805 1435.5 l 1,7,-1
 901.5 1603.5 l 2,8,9
 943 1675 943 1675 970.5 1719 c 0,10,11
 1035.5 1823 1035.5 1823 1134 1823 c 0,12,13
 1182 1823 1182 1823 1182 1784 c 0,14,15
 1182 1734.57 1182 1734.57 1107 1621 c 0,16,17
 1090 1595 1090 1595 1055 1535.5 c 1,18,19
 85.5452 -188.091 85.5452 -188.091 53.2726 -242.546 c 128,-1,0
 21 -297 21 -297 -17 -322.5 c 128,-1,1
EndSplineSet
EndChar

StartChar: backslash
Encoding: 92 92 115
Width: 951
Flags: HW
LayerCount: 2
Fore
SplineSet
778 -302 m 0,0,1
 778 -348 778 -348 742 -348 c 0,2,3
 631.314 -348 631.314 -348 602 -234 c 2,4,-1
 106.5 1722.5 l 2,5,6
 96 1764 96 1764 96 1788 c 0,7,8
 96 1823 96 1823 126 1823 c 0,9,10
 178 1823 178 1823 221.5 1796.5 c 128,-1,11
 265 1770 265 1770 276.5 1723.5 c 0,12,13
 758.382 -185.813 758.382 -185.813 768.191 -232.407 c 128,-1,14
 778 -279 778 -279 778 -302 c 0,0,1
EndSplineSet
EndChar

StartChar: bar
Encoding: 124 124 116
Width: 628
Flags: HW
LayerCount: 2
Fore
SplineSet
441 995.5 m 1,0,-1
 440 525.5 l 1,1,-1
 440 -194 l 2,2,3
 440 -263 440 -263 395.5 -307.5 c 0,4,5
 355 -348 355 -348 305 -348 c 0,6,7
 259.24 -348 259.24 -348 256 -267 c 0,8,9
 255 -242 255 -242 255 -212 c 2,10,-1
 255 1670 l 2,11,12
 255 1730.33 255 1730.33 295 1777 c 0,13,14
 334.429 1823 334.429 1823 387 1823 c 0,15,16
 423.306 1823 423.306 1823 433 1775.5 c 0,17,18
 441 1736.3 441 1736.3 441 1666.15 c 2,19,-1
 441 995.5 l 1,0,-1
EndSplineSet
EndChar

StartChar: brokenbar
Encoding: 166 166 117
Width: 599
Flags: HW
LayerCount: 2
Fore
SplineSet
411 1496 m 1,0,-1
 410 1204.5 l 1,1,-1
 410 1006 l 2,2,3
 410 937 410 937 365.5 892.5 c 0,4,5
 325 852 325 852 275 852 c 0,6,7
 229.24 852 229.24 852 226 933 c 0,8,9
 225 958 225 958 225 988 c 2,10,-1
 225 1670 l 2,11,12
 225 1730.33 225 1730.33 265 1777 c 0,13,14
 304.429 1823 304.429 1823 357 1823 c 0,15,16
 393.306 1823 393.306 1823 403 1775.5 c 0,17,18
 411 1736.3 411 1736.3 411 1647.15 c 2,19,-1
 411 1496 l 1,0,-1
411 296 m 1,20,-1
 410 4.5 l 1,21,-1
 410 -194 l 2,22,23
 410 -263 410 -263 365.5 -307.5 c 0,24,25
 325 -348 325 -348 275 -348 c 0,26,27
 229.24 -348 229.24 -348 226 -267 c 0,28,29
 225 -242 225 -242 225 -212 c 2,30,-1
 225 470 l 2,31,32
 225 530.333 225 530.333 265 577 c 0,33,34
 304.429 623 304.429 623 357 623 c 0,35,36
 393.306 623 393.306 623 403 575.5 c 0,37,38
 411 536.3 411 536.3 411 447.15 c 2,39,-1
 411 296 l 1,20,-1
EndSplineSet
EndChar

StartChar: paragraph
Encoding: 182 182 118
Width: 1514
Flags: HW
LayerCount: 2
Fore
SplineSet
1005.5 -86 m 128,-1,1
 950 -136 950 -136 905.5 -136 c 128,-1,2
 861 -136 861 -136 861 -105 c 0,3,4
 861 -89 861 -89 872 -67 c 1,5,6
 964.476 80.9615 964.476 80.9615 1081.5 449.5 c 1,7,8
 1166.27 727.662 1166.27 727.662 1197.64 844.831 c 0,9,10
 1260.86 1088.25 1260.86 1088.25 1279.93 1169.12 c 2,11,-1
 1306 1279 l 1,12,13
 1336.13 1441.72 1336.13 1441.72 1371 1490 c 1,14,15
 1344 1498 1344 1498 1312 1498 c 1,16,17
 1240 1492 1240 1492 1196 1467.5 c 128,-1,18
 1152 1443 1152 1443 1121 1388.5 c 128,-1,19
 1090 1334 1090 1334 1065 1243.5 c 128,-1,20
 1040 1153 1040 1153 1018 1061.5 c 2,21,-1
 979.5 896.5 l 1,22,23
 835.501 255.049 835.501 255.049 610 15 c 0,24,25
 473.788 -130 473.788 -130 310 -130 c 0,26,27
 185.167 -130 185.167 -130 118 -65 c 0,28,29
 58 -6.93548 58 -6.93548 58 87 c 0,30,31
 58 175.462 58 175.462 126.5 254.5 c 0,32,33
 201.467 341 201.467 341 307 341 c 0,34,35
 355.731 341 355.731 341 381.365 319.5 c 0,36,37
 428.305 280.131 428.305 280.131 405 251 c 0,38,39
 392 235 392 235 373.5 222.5 c 128,-1,40
 355 210 355 210 335.5 192.5 c 0,41,42
 287.566 149.483 287.566 149.483 268 81 c 1,43,44
 251.096 26.9062 251.096 26.9062 296.5 0 c 0,45,46
 310 -8 310 -8 342 -8 c 128,-1,47
 374 -8 374 -8 412 24 c 128,-1,48
 450 56 450 56 482.5 111 c 128,-1,49
 515 166 515 166 543.5 239.5 c 128,-1,50
 572 313 572 313 597.5 396 c 128,-1,51
 623 479 623 479 647 566.5 c 2,52,-1
 696 738 l 1,53,54
 559.105 767.335 559.105 767.335 471.5 869 c 0,55,56
 386 968.222 386 968.222 386 1073.61 c 128,-1,57
 386 1179 386 1179 422 1257 c 128,-1,58
 458 1335 458 1335 522.5 1399 c 128,-1,59
 587 1463 587 1463 676.5 1513 c 128,-1,60
 766 1563 766 1563 874 1596.5 c 0,61,62
 1094.84 1665 1094.84 1665 1356 1665 c 0,63,64
 1589.5 1665 1589.5 1665 1708 1662 c 0,65,66
 1738 1661 1738 1661 1738 1635 c 0,67,68
 1738 1591.83 1738 1591.83 1706.5 1553.41 c 0,69,70
 1644.41 1477.69 1644.41 1477.69 1586 1483 c 1,71,-1
 1577 1483 l 1,72,73
 1526.57 1218.23 1526.57 1218.23 1390 799 c 1,74,-1
 1301.5 538.5 l 1,75,76
 1203.09 260.568 1203.09 260.568 1117 75 c 1,77,0
 1061 -36 1061 -36 1005.5 -86 c 128,-1,1
1428.5 1418 m 2,78,-1
 1427 1428 l 2,79,80
 1428 1423 1428 1423 1428.5 1418 c 2,78,-1
EndSplineSet
EndChar

StartChar: braceleft
Encoding: 123 123 119
Width: 870
Flags: HW
LayerCount: 2
Fore
SplineSet
301 -348 m 0,0,1
 104 -348 104 -348 104 -173 c 0,2,3
 104 -54.0385 104 -54.0385 200 191.5 c 1,4,-1
 250 322 l 1,5,6
 303 457.241 303 457.241 303 540.121 c 0,7,8
 303 681.778 303 681.778 212 702 c 0,9,10
 199 705.714 199 705.714 199 725.857 c 128,-1,11
 199 746 199 746 204 763.5 c 128,-1,12
 209 781 209 781 218.5 797 c 0,13,14
 240.553 834.142 240.553 834.142 274 836 c 0,15,16
 450.762 846.713 450.762 846.713 554 1137.5 c 0,17,18
 584 1222 584 1222 603 1298.5 c 2,19,20
 637 1436 l 2,21,22
 690.982 1655.53 690.982 1655.53 773 1745 c 0,23,24
 844.5 1823 844.5 1823 950 1823 c 0,25,26
 1098.67 1823 1098.67 1823 1120 1799 c 0,27,28
 1128 1790 1128 1790 1128 1778 c 0,29,30
 1128 1723 1128 1723 1038 1723 c 0,31,32
 988 1723 988 1723 952 1678.5 c 128,-1,33
 916 1634 916 1634 888 1564 c 128,-1,34
 860 1494 860 1494 838.5 1408 c 2,35,-1
 796 1238 l 1,36,37
 673.031 740.776 673.031 740.776 383 731 c 1,38,39
 504 682.175 504 682.175 504 517 c 0,40,41
 504 405.125 504 405.125 441.5 252.562 c 0,42,43
 321 -41.578 321 -41.578 321 -164 c 0,44,45
 321 -250 321 -250 380 -250 c 0,46,47
 454 -250 454 -250 454 -294 c 0,48,49
 454 -348 454 -348 301 -348 c 0,0,1
EndSplineSet
EndChar

StartChar: braceright
Encoding: 125 125 120
Width: 870
Flags: HW
LayerCount: 2
Fore
SplineSet
-131 -303 m 0,0,1
 -131 -248 -131 -248 -41 -248 c 0,2,3
 79.75 -248 79.75 -248 158.5 67 c 2,4,-1
 201 237 l 1,5,6
 323.969 734.224 323.969 734.224 614 744 c 1,7,8
 493 792.825 493 792.825 493 958 c 0,9,10
 493 1069.88 493 1069.88 555.5 1222.44 c 0,11,12
 676 1516.58 676 1516.58 676 1639 c 0,13,14
 676 1725 676 1725 617 1725 c 0,15,16
 543 1725 543 1725 543 1769 c 0,17,18
 543 1823 543 1823 696 1823 c 0,19,20
 893 1823 893 1823 893 1648 c 0,21,22
 893 1529.04 893 1529.04 797 1283.5 c 1,23,-1
 747 1153 l 1,24,25
 694 1017.76 694 1017.76 694 934.879 c 0,26,27
 694 793.222 694 793.222 785 773 c 0,28,29
 798 769.286 798 769.286 798 749.143 c 128,-1,30
 798 729 798 729 793 711.5 c 128,-1,31
 788 694 788 694 778.5 678 c 0,32,33
 756.447 640.858 756.447 640.858 723 639 c 0,34,35
 502.327 625.626 502.327 625.626 390 161 c 0,36,37
 375 100 375 100 360 39 c 128,-1,38
 345 -22 345 -22 325.5 -79 c 128,-1,39
 306 -136 306 -136 281.5 -185 c 128,-1,40
 257 -234 257 -234 224 -270 c 0,41,42
 152.5 -348 152.5 -348 47 -348 c 0,43,44
 -101.667 -348 -101.667 -348 -123 -324 c 0,45,46
 -131 -315 -131 -315 -131 -303 c 0,0,1
EndSplineSet
EndChar

StartChar: parenleft
Encoding: 40 40 121
Width: 980
Flags: HW
LayerCount: 2
Fore
SplineSet
1194 1823 m 0,0,1
 1236 1823 1236 1823 1236 1791 c 0,2,3
 1236 1770.93 1236 1770.93 1191.5 1735.96 c 2,4,-1
 1110 1673 l 2,5,6
 1073 1645 1073 1645 1032 1610 c 1,7,8
 888.181 1471.14 888.181 1471.14 800.091 1343.07 c 128,-1,9
 712 1215 712 1215 651.5 1101 c 128,-1,10
 591 987 591 987 545 854 c 0,11,12
 444 561.978 444 561.978 444 246 c 0,13,14
 444 7.98438 444 7.98438 515 -179.5 c 0,15,16
 579.591 -350.061 579.591 -350.061 671 -411 c 0,17,18
 690 -423 690 -423 690 -437.5 c 128,-1,19
 690 -452 690 -452 684 -463.5 c 128,-1,20
 678 -475 678 -475 667.5 -484 c 0,21,22
 644.167 -504 644.167 -504 609.083 -504 c 128,-1,23
 574 -504 574 -504 527.5 -474.5 c 128,-1,24
 481 -445 481 -445 437.5 -392.5 c 128,-1,25
 394 -340 394 -340 355 -267.5 c 128,-1,26
 316 -195 316 -195 287 -108.5 c 0,27,28
 224 79.4138 224 79.4138 224 258.207 c 128,-1,29
 224 437 224 437 255.5 591.5 c 128,-1,30
 287 746 287 746 340 884.5 c 128,-1,31
 393 1023 393 1023 463 1145 c 128,-1,32
 533 1267 533 1267 610 1369 c 0,33,34
 753.015 1558.45 753.015 1558.45 916 1687 c 0,35,36
 1090.08 1823 1090.08 1823 1194 1823 c 0,0,1
EndSplineSet
EndChar

StartChar: parenright
Encoding: 41 41 122
Width: 980
Flags: HW
LayerCount: 2
Fore
SplineSet
-161 -504 m 0,0,1
 -203 -504 -203 -504 -203 -472 c 0,2,3
 -203 -451.929 -203 -451.929 -158.5 -416.964 c 2,4,-1
 -77 -354 l 2,5,6
 -40 -326 -40 -326 1 -291 c 1,7,8
 224.804 -78.7718 224.804 -78.7718 381 218 c 0,9,10
 588 611.3 588 611.3 588 1073 c 0,11,12
 588 1309.38 588 1309.38 517.5 1498.5 c 0,13,14
 455.187 1665.66 455.187 1665.66 362 1730 c 0,15,16
 343 1742 343 1742 343 1756.5 c 128,-1,17
 343 1771 343 1771 349 1782.5 c 128,-1,18
 355 1794 355 1794 365.5 1803 c 0,19,20
 388.833 1823 388.833 1823 423.917 1823 c 128,-1,21
 459 1823 459 1823 505.5 1793.5 c 128,-1,22
 552 1764 552 1764 595.5 1711.5 c 128,-1,23
 639 1659 639 1659 678 1586.5 c 128,-1,24
 717 1514 717 1514 746 1427.5 c 0,25,26
 809 1239.59 809 1239.59 809 1060.79 c 128,-1,27
 809 882 809 882 777.5 727.5 c 128,-1,28
 746 573 746 573 693 434.5 c 128,-1,29
 640 296 640 296 570 174 c 128,-1,30
 500 52 500 52 423 -50 c 0,31,32
 279.985 -239.448 279.985 -239.448 117 -368 c 0,33,34
 -57.08 -504 -57.08 -504 -161 -504 c 0,0,1
EndSplineSet
EndChar

StartChar: bracketleft
Encoding: 91 91 123
Width: 812
Flags: HW
LayerCount: 2
Fore
SplineSet
423 -287 m 0,0,1
 423 -348 423 -348 158 -348 c 0,2,3
 61.6667 -348 61.6667 -348 35.8333 -332.5 c 128,-1,4
 10 -317 10 -317 3.5 -301.5 c 128,-1,5
 -3 -286 -3 -286 -3 -268.5 c 0,6,7
 -3 -239.571 -3 -239.571 9.5 -207.786 c 128,-1,8
 22 -176 22 -176 44 -112 c 2,9,-1
 652 1649.5 l 1,10,-1
 694 1763 l 2,11,12
 717.077 1823 717.077 1823 843 1823 c 0,13,14
 1034.19 1823 1034.19 1823 1063 1795.5 c 0,15,16
 1074 1785 1074 1785 1074 1771 c 128,-1,17
 1074 1757 1074 1757 1061.5 1749.5 c 128,-1,18
 1049 1742 1049 1742 1030.5 1736.5 c 128,-1,19
 1012 1731 1012 1731 989 1725.5 c 128,-1,20
 966 1720 966 1720 940.5 1709.5 c 0,21,22
 890.317 1688.84 890.317 1688.84 863 1630 c 0,23,24
 847 1595 847 1595 818 1516 c 1,25,-1
 668 1089.5 l 1,26,27
 292.679 -28.2693 292.679 -28.2693 275.339 -76.1346 c 0,28,29
 240 -173.689 240 -173.689 240 -211 c 0,30,31
 240 -240 240 -240 297 -240 c 0,32,33
 377.706 -240 377.706 -240 412 -266.5 c 0,34,35
 423 -275 423 -275 423 -287 c 0,0,1
EndSplineSet
EndChar

StartChar: bracketright
Encoding: 93 93 124
Width: 808
Flags: HW
LayerCount: 2
Fore
SplineSet
527 1762 m 0,0,1
 527 1823 527 1823 792 1823 c 0,2,3
 888.333 1823 888.333 1823 914.167 1807.5 c 128,-1,4
 940 1792 940 1792 946.5 1776.5 c 128,-1,5
 953 1761 953 1761 953 1743.5 c 0,6,7
 953 1714.57 953 1714.57 940.5 1682.79 c 128,-1,8
 928 1651 928 1651 906 1587 c 2,9,-1
 298 -174.5 l 1,10,-1
 256 -288 l 2,11,12
 232.923 -348 232.923 -348 107 -348 c 0,13,14
 -84.1905 -348 -84.1905 -348 -113 -320.5 c 0,15,16
 -124 -310 -124 -310 -124 -296 c 128,-1,17
 -124 -282 -124 -282 -110 -274.5 c 128,-1,18
 -96 -267 -96 -267 -75.5 -261.5 c 128,-1,19
 -55 -256 -55 -256 -30.5 -250.5 c 128,-1,20
 -6 -245 -6 -245 19.5 -234.5 c 0,21,22
 69.6831 -213.836 69.6831 -213.836 97 -155 c 0,23,24
 113 -120 113 -120 142 -41 c 1,25,-1
 292 385.5 l 1,26,27
 667.321 1503.27 667.321 1503.27 684.661 1551.13 c 0,28,29
 720 1648.69 720 1648.69 720 1686 c 0,30,31
 720 1715 720 1715 663 1715 c 0,32,33
 578.471 1715 578.471 1715 539.5 1741.5 c 0,34,35
 527 1750 527 1750 527 1762 c 0,0,1
EndSplineSet
EndChar

StartChar: currency
Encoding: 164 164 125
Width: 1172
Flags: HW
LayerCount: 2
Fore
SplineSet
700 277 m 1,0,1
 608.043 230 608.043 230 508.165 230 c 128,-1,2
 408.286 230 408.286 230 338 271 c 1,3,-1
 264.5 191 l 1,4,5
 231 153 231 153 215.5 130.5 c 0,6,7
 193.111 98 193.111 98 167 98 c 256,8,9
 128.529 98 128.529 98 107.5 130.5 c 0,10,11
 92.9954 152.916 92.9954 152.916 149.5 235.5 c 1,12,-1
 193.5 297 l 2,13,14
 218 330 218 330 246 364 c 1,15,16
 204 443.8 204 443.8 204 532.9 c 128,-1,17
 204 622 204 622 222 690 c 128,-1,18
 240 758 240 758 273 822.5 c 0,19,20
 341.684 956.746 341.684 956.746 454 1047 c 1,21,22
 420 1157.5 420 1157.5 420 1201.75 c 128,-1,23
 420 1246 420 1246 431 1275.5 c 128,-1,24
 442 1305 442 1305 458.5 1326 c 0,25,26
 492.93 1369.82 492.93 1369.82 524.465 1371.91 c 128,-1,27
 556 1374 556 1374 569.5 1361.5 c 128,-1,28
 583 1349 583 1349 586 1313.5 c 0,29,30
 594.158 1216.96 594.158 1216.96 610 1133 c 1,31,32
 674 1155 674 1155 747 1155 c 128,-1,33
 820 1155 820 1155 883 1125 c 1,34,35
 912 1157 912 1157 940 1184.5 c 2,36,-1
 992 1235 l 1,37,38
 1062.2 1298 1062.2 1298 1136 1298 c 0,39,40
 1181.73 1298 1181.73 1298 1204.36 1281.5 c 128,-1,41
 1227 1265 1227 1265 1227 1251 c 0,42,43
 1227 1223.38 1227 1223.38 1189 1196.69 c 0,44,45
 1100.98 1134.87 1100.98 1134.87 989 1029 c 1,46,47
 1039 946.391 1039 946.391 1039 825 c 0,48,49
 1039 634.864 1039 634.864 909.5 459 c 0,50,51
 869 404 869 404 819 359 c 1,52,53
 831 321 831 321 842.5 289 c 0,54,55
 889.147 158.821 889.147 158.821 891.574 137.911 c 128,-1,56
 894 117 894 117 889 107 c 128,-1,57
 884 97 884 97 875 89.5 c 0,58,59
 855.2 73 855.2 73 836.1 73 c 0,60,61
 800.933 73 800.933 73 786 101 c 1,62,-1
 700 277 l 1,0,1
416 491 m 0,63,64
 416 340 416 340 506 340 c 0,65,66
 572.563 340 572.563 340 650.5 435.5 c 0,67,68
 764.002 574.58 764.002 574.58 810 775 c 0,69,70
 824 836 824 836 824 878 c 128,-1,71
 824 920 824 920 821 948.5 c 128,-1,72
 818 977 818 977 808.5 998.5 c 0,73,74
 787.953 1045 787.953 1045 734 1045 c 256,75,76
 676.325 1045 676.325 1045 600 954.5 c 0,77,78
 478.283 810.179 478.283 810.179 431.5 615.5 c 0,79,80
 416 551 416 551 416 491 c 0,63,64
EndSplineSet
EndChar

StartChar: dollar
Encoding: 36 36 126
Width: 1118
Flags: HW
LayerCount: 2
Fore
SplineSet
1034 1804.5 m 0,0,1
 1075 1831 1075 1831 1130.5 1831 c 128,-1,2
 1186 1831 1186 1831 1186 1795 c 0,3,4
 1186 1775 1186 1775 1162 1740 c 0,5,6
 1101.08 1651.15 1101.08 1651.15 1030 1509 c 1,7,8
 1192 1411.8 1192 1411.8 1192 1189 c 0,9,10
 1192 1060.06 1192 1060.06 1119 946 c 0,11,12
 1028.76 805 1028.76 805 912 805 c 0,13,14
 860.538 805 860.538 805 832.269 826 c 0,15,16
 784 861.857 784 861.857 784 889.429 c 128,-1,17
 784 917 784 917 805 937 c 2,18,-1
 861 990.5 l 2,19,20
 1003.23 1126.64 1003.23 1126.64 1008 1253 c 0,21,22
 1010 1331 1010 1331 969.5 1374 c 128,-1,23
 929 1417 929 1417 857.5 1417 c 128,-1,24
 786 1417 786 1417 726.5 1384.5 c 128,-1,25
 667 1352 667 1352 623.5 1297 c 0,26,27
 531 1180.05 531 1180.05 531 1018 c 0,28,29
 531 924 531 924 604.5 805 c 0,30,31
 636 754 636 754 672.5 703 c 128,-1,32
 709 652 709 652 740.5 597 c 0,33,34
 814 468.667 814 468.667 814 372.333 c 128,-1,35
 814 276 814 276 781.5 211.5 c 128,-1,36
 749 147 749 147 695.5 99 c 0,37,38
 584.429 -0.65247 584.429 -0.65247 430 -9 c 1,39,40
 363.228 -154.056 363.228 -154.056 350.114 -203.528 c 128,-1,41
 337 -253 337 -253 319 -262 c 128,-1,42
 301 -271 301 -271 279 -271 c 128,-1,43
 257 -271 257 -271 237.5 -263 c 128,-1,44
 218 -255 218 -255 215 -241.5 c 128,-1,45
 212 -228 212 -228 216 -202 c 128,-1,46
 220 -176 220 -176 228 -142 c 0,47,48
 242.207 -81.6207 242.207 -81.6207 276 13 c 1,49,50
 157.283 58.8681 157.283 58.8681 124.5 176.5 c 0,51,52
 116 207 116 207 116 245 c 128,-1,53
 116 283 116 283 131 320.5 c 128,-1,54
 146 358 146 358 167 383.5 c 0,55,56
 205.94 430.784 205.94 430.784 242.47 440.392 c 0,57,58
 321 461.047 321 461.047 321 389 c 1,59,-1
 312 312 l 1,60,61
 312 191.455 312 191.455 393.5 147 c 0,62,63
 421 132 421 132 460 132 c 128,-1,64
 499 132 499 132 530 145.5 c 128,-1,65
 561 159 561 159 581.5 181 c 0,66,67
 623 225.537 623 225.537 623 284.268 c 128,-1,68
 623 343 623 343 599 390.5 c 128,-1,69
 575 438 575 438 538.5 485 c 128,-1,70
 502 532 502 532 459.5 581.5 c 128,-1,71
 417 631 417 631 380.5 689 c 0,72,73
 296 823.274 296 823.274 296 969 c 0,74,75
 296 1116.42 296 1116.42 373.5 1255.5 c 0,76,77
 489.637 1463.91 489.637 1463.91 701.5 1533.5 c 0,78,79
 770 1556 770 1556 820 1556 c 128,-1,80
 870 1556 870 1556 894 1553 c 1,81,-1
 926 1639.5 l 2,82,83
 970.896 1763.71 970.896 1763.71 1034 1804.5 c 0,0,1
EndSplineSet
EndChar

